<svg width="125" height="125" viewBox="0 0 125 125" fill="none" xmlns="http://www.w3.org/2000/svg">
<path d="M34.5 76C44.7173 76 53 67.7173 53 57.5C53 47.2827 44.7173 39 34.5 39C24.2827 39 16 47.2827 16 57.5C16 67.7173 24.2827 76 34.5 76Z" fill="#F7F7F8"/>
<path d="M34.5 113C44.7173 113 53 104.717 53 94.5C53 84.2827 44.7173 76 34.5 76C24.2827 76 16 84.2827 16 94.5C16 104.717 24.2827 113 34.5 113Z" fill="#F7F7F8"/>
<path d="M86 92C105.33 92 121 76.33 121 57C121 37.67 105.33 22 86 22C66.67 22 51 37.67 51 57C51 76.33 66.67 92 86 92Z" fill="#F7F7F8"/>
<path d="M59.9969 104.614C59.996 104.614 59.9973 104.614 59.9963 104.614C47.0303 104.614 36.1211 104.006 27.6215 103.26C22.3823 102.801 19.1018 97.3768 21.1104 92.516C26.6819 79.0326 33.5606 65.7131 41.6301 52.7951C47.1229 44.002 52.4254 36.5905 56.9094 30.7592C60.0366 26.6924 66.1544 26.6912 69.2817 30.7578C73.7434 36.56 79.0176 43.9295 84.4831 52.6686C92.5114 65.5055 99.3643 78.7412 104.927 92.1416C106.946 97.0067 103.653 102.438 98.4057 102.9C85.4483 104.038 72.5713 104.614 59.9969 104.614Z" fill="#EE8D5D"/>
<path d="M64.9278 27.9251C63.4064 28.3251 61.9821 29.2792 60.929 30.7853C56.8155 36.6681 51.9517 44.146 46.9134 53.0173C39.5107 66.0499 33.2003 79.4876 28.0903 93.0894C26.42 97.5327 28.7349 102.443 32.761 103.67C30.9608 103.54 29.2478 103.402 27.6218 103.26C22.3817 102.8 19.1026 97.3771 21.1099 92.5148C26.6816 79.0329 33.5612 65.7132 41.6308 52.795C47.1237 44.0025 52.4255 36.5894 56.9099 30.7597C58.8894 28.1849 62.0694 27.2396 64.9278 27.9251Z" fill="#DA4A54"/>
<path d="M99.2964 66.4437V65.8784C99.2964 63.8847 100.84 62.2313 102.829 62.0948L108.948 61.6751C111.14 61.5247 113 63.262 113 65.4587V66.8634C113 69.0601 111.139 70.7974 108.948 70.647L102.829 70.2273C100.84 70.0909 99.2964 68.4376 99.2964 66.4437Z" fill="#EE8D5D"/>
<path d="M94.575 48.2579L94.2924 47.7683C93.2956 46.0415 93.8059 43.8378 95.4602 42.7251L100.549 39.3025C102.372 38.0765 104.852 38.6507 105.95 40.553L106.652 41.7696C107.751 43.672 107.008 46.1067 105.035 47.0724L99.5264 49.7681C97.7356 50.6446 95.5719 49.9847 94.575 48.2579Z" fill="#EE8D5D"/>
<path d="M81.393 34.8689L80.9034 34.5863C79.1766 33.5894 78.5169 31.4257 79.3932 29.6349L82.0889 24.1263C83.0546 22.1533 85.4893 21.4107 87.3917 22.509L88.6083 23.2113C90.5106 24.3097 91.0848 26.7894 89.8589 28.6123L86.4362 33.7011C85.3235 35.3554 83.1198 35.8658 81.393 34.8689Z" fill="#EE8D5D"/>
<path d="M26.7035 66.4437V65.8784C26.7035 63.8847 25.1598 62.2313 23.1705 62.0948L17.052 61.6751C14.8605 61.5247 13 63.262 13 65.4587V66.8634C13 69.0601 14.8605 70.7974 17.052 70.647L23.1705 70.2273C25.1596 70.0909 26.7035 68.4376 26.7035 66.4437Z" fill="#EE8D5D"/>
<path d="M31.425 48.2579L31.7076 47.7683C32.7045 46.0415 32.1941 43.8378 30.5398 42.7251L25.451 39.3025C23.6281 38.0765 21.1484 38.6507 20.05 40.553L19.3477 41.7696C18.2492 43.672 18.992 46.1067 20.965 47.0724L26.4736 49.7681C28.2645 50.6446 30.4281 49.9847 31.425 48.2579Z" fill="#EE8D5D"/>
<path d="M44.6071 34.8689L45.0968 34.5863C46.8235 33.5894 47.4833 31.4257 46.6069 29.6349L43.9112 24.1263C42.9456 22.1533 40.5108 21.4107 38.6085 22.509L37.3919 23.2113C35.4896 24.3097 34.9153 26.7894 36.1413 28.6123L39.564 33.7011C40.6767 35.3554 42.8804 35.8658 44.6071 34.8689Z" fill="#EE8D5D"/>
<path d="M60.8324 48.487C62.2914 48.3403 63.7503 48.3403 65.2093 48.487C67.0552 48.6727 68.4683 50.2143 68.5365 52.0682C68.7589 58.1325 68.7589 64.1967 68.5365 70.261C68.4685 72.1149 67.0552 73.6567 65.2093 73.8422C63.7503 73.9889 62.2914 73.9889 60.8324 73.8422C58.9865 73.6565 57.5734 72.1149 57.5052 70.261C57.2828 64.1967 57.2828 58.1325 57.5052 52.0682C57.5734 50.2141 58.9865 48.6725 60.8324 48.487Z" fill="white"/>
<path d="M60.9383 80.4976C62.3268 80.4312 63.7152 80.4312 65.1037 80.4976C67.0172 80.5892 68.5539 82.1294 68.6402 84.0431C68.7244 85.9087 68.7244 87.7743 68.6402 89.6401C68.5539 91.5538 67.0172 93.094 65.1037 93.1856C63.7152 93.252 62.3268 93.252 60.9383 93.1856C59.0248 93.094 57.4881 91.5538 57.4018 89.6401C57.3176 87.7745 57.3176 85.9089 57.4018 84.0431C57.4881 82.1294 59.0248 80.5892 60.9383 80.4976Z" fill="white"/>
</svg>
