<svg width="100" height="100" viewBox="0 0 100 100" fill="none" xmlns="http://www.w3.org/2000/svg">
<path d="M21.2 64.8002C29.3738 64.8002 36 58.174 36 50.0002C36 41.8264 29.3738 35.2002 21.2 35.2002C13.0262 35.2002 6.40002 41.8264 6.40002 50.0002C6.40002 58.174 13.0262 64.8002 21.2 64.8002Z" fill="#F7F7F8"/>
<path d="M32.4 94.3998C40.5738 94.3998 47.2 87.7736 47.2 79.5998C47.2 71.426 40.5738 64.7998 32.4 64.7998C24.2262 64.7998 17.6 71.426 17.6 79.5998C17.6 87.7736 24.2262 94.3998 32.4 94.3998Z" fill="#F7F7F8"/>
<path d="M62.4 77.6001C77.864 77.6001 90.4 65.0641 90.4 49.6001C90.4 34.1361 77.864 21.6001 62.4 21.6001C46.9361 21.6001 34.4 34.1361 34.4 49.6001C34.4 65.0641 46.9361 77.6001 62.4 77.6001Z" fill="#F7F7F8"/>
<g clip-path="url(#clip0_163_4640)">
<path d="M90.4 50.3989C90.4 54.3562 83.3103 57.1441 82.1509 60.715C80.9484 64.416 85.004 70.8311 82.7614 73.9105C80.4979 77.0221 73.1288 75.1361 70.0173 77.4008C66.9367 79.6422 66.4663 87.2444 62.7664 88.4423C59.1956 89.6016 54.3618 83.7651 50.3999 83.7651C46.4381 83.7651 41.6086 89.6016 38.0334 88.4423C34.3324 87.2397 33.862 79.6378 30.7814 77.4008C27.671 75.1373 20.302 77.0232 18.0373 73.9117C15.7959 70.8311 19.8503 64.416 18.6489 60.7161C17.4898 57.1453 10.4 54.3573 10.4 50.4001C10.4 46.4429 17.4898 43.6549 18.6491 40.0841C19.8505 36.384 15.7961 29.9689 18.0375 26.8885C20.3022 23.777 27.6712 25.6629 30.7828 23.3994C33.8622 21.158 34.3326 13.5547 38.0336 12.358C41.6045 11.1986 46.4383 17.0351 50.4001 17.0351C54.3618 17.0351 59.1914 11.1986 62.7667 12.358C66.4668 13.5593 66.9381 21.1624 70.0175 23.3994C73.1291 25.6641 80.4981 23.7781 82.7628 26.8885C85.0042 29.9691 80.9486 36.3842 82.1512 40.0841C83.3103 43.6536 90.4 46.4415 90.4 50.3989Z" fill="#4CD964"/>
<path d="M46.9066 63.9989C45.7353 64.0005 44.6115 63.5352 43.784 62.7059L33.9372 52.8592C32.2122 51.1346 32.2117 48.3381 33.9361 46.613C35.6607 44.8879 38.4572 44.8875 40.1822 46.6118L46.9064 53.3351L60.6254 39.6172C62.3503 37.8921 65.147 37.8919 66.872 39.6167C68.5971 41.3416 68.5973 44.1383 66.8725 45.8633L50.0299 62.7059C49.2025 63.5355 48.0782 64.0008 46.9066 63.9989Z" fill="white"/>
</g>
<defs>
<clipPath id="clip0_163_4640">
<rect width="80" height="80" fill="white" transform="translate(10.4 10.3999)"/>
</clipPath>
</defs>
</svg>
