<svg width="100" height="100" viewBox="0 0 100 100" fill="none" xmlns="http://www.w3.org/2000/svg">
<g clip-path="url(#clip0_163_4711)">
<path d="M18.5 57C28.7173 57 37 48.7173 37 38.5C37 28.2827 28.7173 20 18.5 20C8.28273 20 0 28.2827 0 38.5C0 48.7173 8.28273 57 18.5 57Z" fill="#F7F7F8"/>
<path d="M18.5 94C28.7173 94 37 85.7173 37 75.5C37 65.2827 28.7173 57 18.5 57C8.28273 57 0 65.2827 0 75.5C0 85.7173 8.28273 94 18.5 94Z" fill="#F7F7F8"/>
<path d="M18.5 26C28.7173 26 37 17.7173 37 7.5C37 -2.71727 28.7173 -11 18.5 -11C8.28273 -11 0 -2.71727 0 7.5C0 17.7173 8.28273 26 18.5 26Z" fill="#F7F7F8"/>
<path d="M70 73C89.33 73 105 57.33 105 38C105 18.67 89.33 3 70 3C50.67 3 35 18.67 35 38C35 57.33 50.67 73 70 73Z" fill="#F7F7F8"/>
<path d="M50 3.125C40.729 3.125 31.6662 5.87417 23.9577 11.0249C16.2491 16.1756 10.241 23.4964 6.69317 32.0617C3.14531 40.627 2.21703 50.052 4.02571 59.1449C5.83439 68.2377 10.2988 76.59 16.8544 83.1456C23.41 89.7012 31.7623 94.1656 40.8552 95.9743C49.948 97.783 59.373 96.8547 67.9383 93.3069C76.5036 89.759 83.8245 83.7509 88.9752 76.0424C94.1259 68.3338 96.875 59.271 96.875 50C96.8706 37.5693 91.9305 25.6491 83.1407 16.8593C74.3509 8.06951 62.4307 3.12947 50 3.125ZM65.4375 61.0625C65.7338 61.3446 65.9697 61.684 66.1309 62.06C66.292 62.436 66.3751 62.8409 66.3751 63.25C66.3751 63.6591 66.292 64.064 66.1309 64.44C65.9697 64.816 65.7338 65.1554 65.4375 65.4375C65.1587 65.738 64.82 65.9767 64.4432 66.1382C64.0664 66.2997 63.6599 66.3803 63.25 66.375C62.841 66.3743 62.4364 66.2909 62.0605 66.1298C61.6845 65.9687 61.3451 65.7332 61.0625 65.4375L50 54.375L38.9375 65.4375C38.655 65.7332 38.3155 65.9687 37.9396 66.1298C37.5637 66.2909 37.159 66.3743 36.75 66.375C36.3401 66.3803 35.9337 66.2997 35.5569 66.1382C35.1801 65.9767 34.8413 65.738 34.5625 65.4375C34.2663 65.1554 34.0304 64.816 33.8692 64.44C33.708 64.064 33.6249 63.6591 33.6249 63.25C33.6249 62.8409 33.708 62.436 33.8692 62.06C34.0304 61.684 34.2663 61.3446 34.5625 61.0625L45.625 50L34.5625 38.9375C33.992 38.3553 33.6743 37.5716 33.6784 36.7565C33.6825 35.9414 34.0081 35.1609 34.5845 34.5845C35.1609 34.0081 35.9414 33.6825 36.7565 33.6784C37.5716 33.6743 38.3554 33.992 38.9375 34.5625L50 45.625L61.0625 34.5625C61.3487 34.2705 61.69 34.038 62.0666 33.8787C62.4432 33.7194 62.8476 33.6363 63.2565 33.6342C63.6654 33.6321 64.0707 33.7111 64.4488 33.8667C64.827 34.0222 65.1706 34.2512 65.4597 34.5403C65.7489 34.8294 65.9778 35.173 66.1334 35.5512C66.2889 35.9294 66.3679 36.3346 66.3658 36.7435C66.3638 37.1524 66.2807 37.5569 66.1213 37.9334C65.962 38.31 65.7296 38.6513 65.4375 38.9375L54.375 50L65.4375 61.0625Z" fill="#EE8D5D"/>
</g>
<defs>
<clipPath id="clip0_163_4711">
<rect width="100" height="100" fill="white"/>
</clipPath>
</defs>
</svg>
