<svg width="125" height="125" viewBox="0 0 125 125" fill="none" xmlns="http://www.w3.org/2000/svg">
<path d="M38.5 55C46.5081 55 53 48.5081 53 40.5C53 32.4919 46.5081 26 38.5 26C30.4919 26 24 32.4919 24 40.5C24 48.5081 30.4919 55 38.5 55Z" fill="#F7F7F8"/>
<path d="M43.5 88C51.5081 88 58 81.5081 58 73.5C58 65.4919 51.5081 59 43.5 59C35.4919 59 29 65.4919 29 73.5C29 81.5081 35.4919 88 43.5 88Z" fill="#F7F7F8"/>
<path d="M78.5 104C93.6878 104 106 91.6878 106 76.5C106 61.3122 93.6878 49 78.5 49C63.3122 49 51 61.3122 51 76.5C51 91.6878 63.3122 104 78.5 104Z" fill="#F7F7F8"/>
<path d="M71.8889 113C73.7298 113 75.2222 111.508 75.2222 109.667C75.2222 107.826 73.7298 106.333 71.8889 106.333C70.0479 106.333 68.5555 107.826 68.5555 109.667C68.5555 111.508 70.0479 113 71.8889 113Z" fill="#FFCB66"/>
<path d="M98.5555 19.6667C100.396 19.6667 101.889 18.1743 101.889 16.3333C101.889 14.4924 100.396 13 98.5555 13C96.7146 13 95.2222 14.4924 95.2222 16.3333C95.2222 18.1743 96.7146 19.6667 98.5555 19.6667Z" fill="#FFCB66"/>
<path d="M110.778 30.7779C112.005 30.7779 113 29.783 113 28.5557C113 27.3284 112.005 26.3335 110.778 26.3335C109.55 26.3335 108.556 27.3284 108.556 28.5557C108.556 29.783 109.55 30.7779 110.778 30.7779Z" fill="#FFCB66"/>
<path d="M110.778 110.778C112.005 110.778 113 109.783 113 108.556C113 107.328 112.005 106.333 110.778 106.333C109.55 106.333 108.556 107.328 108.556 108.556C108.556 109.783 109.55 110.778 110.778 110.778Z" fill="#FFCB66"/>
<path d="M120.222 61.4444C121.45 61.4444 122.444 60.4495 122.444 59.2222C122.444 57.9949 121.45 57 120.222 57C118.995 57 118 57.9949 118 59.2222C118 60.4495 118.995 61.4444 120.222 61.4444Z" fill="#F7F7F8"/>
<path d="M30.7778 19.6666C32.0051 19.6666 33 18.6717 33 17.4444C33 16.2171 32.0051 15.2222 30.7778 15.2222C29.5505 15.2222 28.5555 16.2171 28.5555 17.4444C28.5555 18.6717 29.5505 19.6666 30.7778 19.6666Z" fill="#FFCB66"/>
<path d="M19.6667 68.5558C20.894 68.5558 21.8889 67.5609 21.8889 66.3336C21.8889 65.1063 20.894 64.1113 19.6667 64.1113C18.4394 64.1113 17.4445 65.1063 17.4445 66.3336C17.4445 67.5609 18.4394 68.5558 19.6667 68.5558Z" fill="#F7F7F8"/>
<path d="M43.13 81.0287C42.0471 79.9461 40.6242 79.4043 39.2016 79.4043C37.7787 79.4043 36.3565 79.9456 35.2734 81.0287C34.224 82.0783 33.6462 83.4732 33.6462 84.9572C33.6462 86.4414 34.224 87.8363 35.2734 88.8859L41.5587 95.1712C42.608 96.2205 44.0031 96.7983 45.4871 96.7983C46.9709 96.7983 48.3662 96.2203 49.4154 95.1712C50.4647 94.1216 51.0427 92.7267 51.0427 91.2427C51.0427 89.7587 50.4647 88.3636 49.4156 87.3145L43.13 81.0287Z" fill="#CBF147"/>
<path d="M17.7069 101.853C15.7015 103.151 14.4071 105.257 14.1555 107.632C13.904 110.007 14.7282 112.338 16.4171 114.027C18.106 115.716 20.4369 116.541 22.812 116.289C25.1871 116.037 27.2938 114.743 28.5913 112.738L39.352 96.1074L34.3369 91.0923L17.7069 101.853Z" fill="#CBF147"/>
<path d="M92.8678 37.5765C87.7669 32.4756 80.9851 29.6665 73.7714 29.6665C66.5578 29.6665 59.7758 32.4756 54.6749 37.5765C44.1451 48.1065 44.1451 65.2396 54.6749 75.7696C65.2049 86.2992 82.338 86.2992 92.8678 75.7696C103.398 65.2396 103.398 48.1065 92.8678 37.5765ZM87.1191 67.7698C87.5531 68.2036 87.5531 68.9072 87.1191 69.341C86.902 69.5581 86.6178 69.6665 86.3334 69.6665C86.0489 69.6665 85.7647 69.5581 85.5476 69.341L74.1111 57.9045L62.6747 69.341C62.4576 69.5581 62.1734 69.6665 61.8889 69.6665C61.6045 69.6665 61.3203 69.5581 61.1031 69.341C60.6691 68.9072 60.6691 68.2036 61.1031 67.7698L72.5398 56.3332L61.1031 44.8965C60.6691 44.4627 60.6691 43.7592 61.1031 43.3254C61.5371 42.8914 62.2405 42.8914 62.6745 43.3254L74.1111 54.7621L85.5476 43.3256C85.9816 42.8916 86.6849 42.8916 87.1189 43.3256C87.5529 43.7594 87.5529 44.4629 87.1189 44.8967L75.6823 56.3334L87.1191 67.7698Z" fill="#CBF147"/>
<path d="M99.6986 30.7462C92.7731 23.8208 83.5653 20.0068 73.7713 20.0068C63.9773 20.0068 54.7695 23.8208 47.8442 30.7462C40.9186 37.6717 37.1046 46.8795 37.1046 56.6735C37.1046 66.4664 40.9179 75.6733 47.8419 82.5986L47.8464 82.6031C54.7715 89.5271 63.9784 93.3402 73.7713 93.3402C83.5653 93.3402 92.7731 89.5262 99.6986 82.6008C113.995 68.3044 113.995 45.0426 99.6986 30.7462ZM94.4391 77.3413C88.7408 83.0395 81.2562 85.8884 73.7713 85.8884C66.2864 85.8884 58.8017 83.0395 53.1035 77.3413C41.7073 65.9451 41.7073 47.4019 53.1035 36.0057C58.6242 30.4851 65.9642 27.4448 73.7713 27.4448C81.5786 27.4448 88.9186 30.4853 94.4391 36.0057C105.835 47.4019 105.835 65.9448 94.4391 77.3413Z" fill="#CBF147"/>
</svg>
