<svg width="125" height="125" viewBox="0 0 125 125" fill="none" xmlns="http://www.w3.org/2000/svg">
<path d="M34.5 76C44.7173 76 53 67.7173 53 57.5C53 47.2827 44.7173 39 34.5 39C24.2827 39 16 47.2827 16 57.5C16 67.7173 24.2827 76 34.5 76Z" fill="#F7F7F8"/>
<path d="M34.5 113C44.7173 113 53 104.717 53 94.5C53 84.2827 44.7173 76 34.5 76C24.2827 76 16 84.2827 16 94.5C16 104.717 24.2827 113 34.5 113Z" fill="#F7F7F8"/>
<path d="M86 92C105.33 92 121 76.33 121 57C121 37.67 105.33 22 86 22C66.67 22 51 37.67 51 57C51 76.33 66.67 92 86 92Z" fill="#F7F7F8"/>
<path d="M99.5914 46.791C104.509 76.9769 77.0371 104.463 46.8301 99.5181C56.9091 112.311 77.167 116.919 92.0268 109.21L102.927 112.842C104.766 113.499 106.826 112.013 106.784 110.063V96.3028C117.468 81.0679 113.936 58.1472 99.5914 46.791Z" fill="#FFCB66"/>
<path d="M94.2293 53.5851C94.2293 31.2083 76.0183 13.0034 53.6342 13.0034C22.1386 12.5941 2.13441 48.917 19.3166 75.2599V91.2374C19.2735 93.1873 21.3392 94.6739 23.1738 94.0163L35.5158 89.9027C61.9265 103.485 94.5866 83.3023 94.2293 53.5851ZM63.2588 43.9822C63.402 40.1013 68.9761 40.101 69.1195 43.9822V47.1199C68.9763 51.0008 63.4022 51.0012 63.2588 47.1199V43.9822ZM44.0095 47.1199C43.8663 51.0008 38.2922 51.0012 38.1488 47.1199V43.9822C38.292 40.1013 43.8661 40.101 44.0095 43.9822V47.1199ZM46.8535 63.8783C45.7095 62.7341 45.7099 60.8792 46.8547 59.7356C50.5931 56.0006 56.6755 56.0008 60.4138 59.7356C61.5584 60.8792 61.559 62.7341 60.4152 63.8783C59.2708 65.0227 57.4155 65.0231 56.2709 63.8795C54.8172 62.4269 52.4513 62.4269 50.9976 63.8795C49.853 65.0231 47.9975 65.0229 46.8535 63.8783Z" fill="#CBF147"/>
</svg>
