<svg width="151" height="150" viewBox="0 0 151 150" fill="none" xmlns="http://www.w3.org/2000/svg">
<circle cx="75.5" cy="75" r="75" fill="#C1BCED"/>
<mask id="mask0_163_3299" style="mask-type:alpha" maskUnits="userSpaceOnUse" x="1" y="0" width="150" height="150">
<circle cx="76" cy="75" r="75" fill="#C1BCED"/>
</mask>
<g mask="url(#mask0_163_3299)">
<circle cx="76" cy="75" r="75" fill="#CBF147"/>
<path fill-rule="evenodd" clip-rule="evenodd" d="M60.0506 107.318C45.5789 111.109 30 121.757 30 149.326H121.643C121.643 121.757 106.058 111.109 91.5862 107.318C88.8182 106.595 86.6885 107.279 86.4671 103.886L85.8158 94.0837H65.8276L65.1763 103.886C64.9484 107.279 62.8186 106.595 60.0506 107.318Z" fill="#E4AE7C"/>
<path fill-rule="evenodd" clip-rule="evenodd" d="M60.0506 107.318C45.5789 111.109 30 121.757 30 149.327H121.643C121.643 122.226 106.585 111.48 92.3352 107.52C90.7127 110.448 88.3306 112.884 85.4398 114.571C82.549 116.258 79.2566 117.134 75.9096 117.107C69.5856 117.049 63.8281 113.799 60.2786 107.273L60.0506 107.318Z" fill="#E5E3F1"/>
<path fill-rule="evenodd" clip-rule="evenodd" d="M65.2414 102.935C71.4938 108.686 80.0779 108.862 86.428 103.332L85.7767 94.0837H65.8276L65.2414 102.935Z" fill="#D67F54"/>
<path fill-rule="evenodd" clip-rule="evenodd" d="M63.0075 148.975C47.129 149.06 38.317 149.275 30 149.32C30 123.379 43.8009 112.425 57.4911 108.067C58.7806 116.743 61.8352 137.636 63.0075 148.975Z" fill="#73AA7D"/>
<path fill-rule="evenodd" clip-rule="evenodd" d="M61.2945 134.907C56.0841 129.234 51.6488 121.575 48.6919 111.93C51.4736 110.322 54.4245 109.026 57.4909 108.067C58.3376 113.786 59.9593 124.806 61.2945 134.907Z" fill="#FFCB66"/>
<path fill-rule="evenodd" clip-rule="evenodd" d="M88.9354 106.837C87.5556 109.043 85.6343 110.859 83.3544 112.113C81.0744 113.367 78.5116 114.017 75.9096 114.001C70.9598 113.955 66.4333 111.532 63.4829 106.674C62.6297 106.96 61.5291 106.999 60.2655 107.325C63.8411 113.838 69.5986 117.095 75.8966 117.16C79.2436 117.187 82.536 116.31 85.4267 114.623C88.3175 112.936 90.6997 110.5 92.3222 107.573L91.5862 107.371C90.6028 107.065 89.704 106.986 88.9354 106.837Z" fill="#C4C2D5"/>
<path fill-rule="evenodd" clip-rule="evenodd" d="M88.6359 148.975C104.508 149.06 113.326 149.275 121.643 149.32C121.643 123.379 107.836 112.425 94.1524 108.067C92.8563 116.743 89.7952 137.636 88.6359 148.975Z" fill="#73AA7D"/>
<path fill-rule="evenodd" clip-rule="evenodd" d="M90.3421 134.907C95.5525 129.234 99.9943 121.575 102.945 111.93C100.166 110.321 97.217 109.025 94.1522 108.067C93.299 113.786 91.6838 124.806 90.3421 134.907Z" fill="#FFCB66"/>
<path fill-rule="evenodd" clip-rule="evenodd" d="M44.7323 136.184C44.734 136.055 44.7862 135.933 44.8776 135.843C44.969 135.752 45.0923 135.702 45.2207 135.702C45.284 135.703 45.3465 135.716 45.4047 135.741C45.4628 135.766 45.5155 135.802 45.5596 135.848C45.6038 135.893 45.6386 135.947 45.662 136.005C45.6854 136.064 45.697 136.127 45.6962 136.19L45.592 149.568C45.5782 149.687 45.5211 149.797 45.4316 149.876C45.3422 149.956 45.2266 150 45.1068 150C44.987 150 44.8713 149.956 44.7819 149.876C44.6924 149.797 44.6354 149.687 44.6216 149.568L44.7323 136.184Z" fill="#48589B"/>
<path fill-rule="evenodd" clip-rule="evenodd" d="M106.077 136.184C106.079 136.055 106.131 135.933 106.223 135.843C106.314 135.752 106.438 135.702 106.566 135.702C106.629 135.703 106.692 135.716 106.75 135.741C106.808 135.766 106.861 135.802 106.905 135.848C106.949 135.893 106.984 135.947 107.007 136.005C107.031 136.064 107.042 136.127 107.041 136.19L106.937 149.568C106.923 149.687 106.866 149.797 106.777 149.876C106.687 149.956 106.572 150 106.452 150C106.332 150 106.217 149.956 106.127 149.876C106.038 149.797 105.981 149.687 105.967 149.568L106.077 136.184Z" fill="#48589B"/>
<path fill-rule="evenodd" clip-rule="evenodd" d="M51.6621 72.8716C48.08 53.5738 52.9647 31.2996 75.558 32.3482H76.04H76.5154C99.011 31.3061 102.743 52.662 100.457 72.077C98.6854 87.1089 92.1529 102.121 76.04 102.141C61.1384 102.115 54.1826 86.425 51.6621 72.8716Z" fill="#E4AE7C"/>
<path fill-rule="evenodd" clip-rule="evenodd" d="M104.299 52.069C105.179 55.9768 100.392 76.753 99.3497 77.0852C98.3076 77.4174 98.6984 66.5538 96.9204 64.2091C93.1233 59.0965 96.4058 54.8826 93.5401 50.4538C92.485 49.8025 90.8829 49.6593 88.3949 50.3887C84.4066 51.6227 80.3151 52.4946 76.1702 52.9939H76.0529H75.9357C71.7907 52.4953 67.6991 51.6233 63.7109 50.3887C61.223 49.6593 59.6143 49.7765 58.5657 50.4538C55.7 54.8826 58.976 59.0965 55.179 64.2091C53.4335 66.5538 53.7722 77.4043 52.7562 77.0852C51.7402 76.7661 46.8946 55.9898 47.7999 52.069C57.96 22.6437 94.1458 22.6437 104.299 52.069Z" fill="#292F3D"/>
<path fill-rule="evenodd" clip-rule="evenodd" d="M74.8547 30.238C82.8721 29.463 95.2792 37.8581 92.407 46.7288C92.0087 47.7157 91.4226 48.616 90.6811 49.3795C88.1215 51.3334 83.315 51.9847 83.569 51.5418C86.9427 45.3871 79.9282 39.5971 72.015 51.874C66.974 59.6895 59.7642 59.7286 55.4527 59.0773C47.0315 57.8138 43.547 48.1942 46.0285 48.3961C49.0309 48.6436 50.6592 47.5494 52.5414 46.1035C59.6209 40.6001 68.3027 29.5607 74.8547 30.238Z" fill="#161B27"/>
<path fill-rule="evenodd" clip-rule="evenodd" d="M51.0432 71.7646C50.9325 70.5532 45.9761 69.1203 44.3284 73.0671C42.6806 77.014 45.6309 82.6477 51.2646 83.084C56.8983 83.5204 55.2245 82.5369 55.2245 82.5369L51.0432 71.7646Z" fill="#E4AE7C"/>
<path fill-rule="evenodd" clip-rule="evenodd" d="M101.03 71.7646C101.141 70.5532 106.097 69.1203 107.745 73.0671C109.393 77.014 106.442 82.6477 100.809 83.084C95.175 83.5204 96.8488 82.5369 96.8488 82.5369L101.03 71.7646Z" fill="#E4AE7C"/>
<path fill-rule="evenodd" clip-rule="evenodd" d="M68.3026 84.8032C73.337 84.7446 78.3325 84.7446 83.367 84.8032C79.622 92.0391 72.0214 92.0391 68.3026 84.8032Z" fill="#88342A"/>
<path fill-rule="evenodd" clip-rule="evenodd" d="M79.7132 89.0301C78.5621 89.8172 77.2 90.2384 75.8055 90.2384C74.4109 90.2384 73.0489 89.8172 71.8977 89.0301C73.0489 88.2429 74.4109 87.8218 75.8055 87.8218C77.2 87.8218 78.5621 88.2429 79.7132 89.0301V89.0301Z" fill="#D17B65"/>
<path fill-rule="evenodd" clip-rule="evenodd" d="M64.3102 77.1832C65.8342 78.349 65.8993 80.0619 64.46 81.0063C63.0206 81.9506 60.6173 81.7618 59.0998 80.5959C57.5823 79.4301 57.5107 77.7172 58.95 76.7729C60.3894 75.8285 62.7861 76.0239 64.3102 77.1832Z" fill="#CF806B"/>
<path fill-rule="evenodd" clip-rule="evenodd" d="M87.3333 77.1832C85.8093 78.349 85.7442 80.0619 87.1835 81.0063C88.6229 81.9506 91.0196 81.7618 92.5437 80.5959C94.0677 79.4301 94.1328 77.7172 92.6935 76.7729C91.2541 75.8285 88.8508 76.0239 87.3333 77.1832Z" fill="#CF806B"/>
<path fill-rule="evenodd" clip-rule="evenodd" d="M46.6405 75.9649C46.6405 76.0513 46.6061 76.1341 46.5451 76.1952C46.484 76.2562 46.4012 76.2905 46.3148 76.2905C46.2284 76.2905 46.1456 76.2562 46.0845 76.1952C46.0235 76.1341 45.9892 76.0513 45.9892 75.9649C45.9184 75.1411 46.1272 74.3174 46.5818 73.6268C46.7109 73.4608 46.8757 73.326 47.064 73.2324C47.2523 73.1388 47.4592 73.0888 47.6695 73.0862C48.098 73.0957 48.5161 73.2194 48.8809 73.4444C49.9827 74.1424 50.8477 75.1572 51.3623 76.3557C51.6638 77.0083 51.8931 77.6918 52.0462 78.3942C52.0682 78.5192 52.0682 78.647 52.0462 78.772V78.772C52.043 78.8258 52.0274 78.8783 52.0007 78.9251C51.9739 78.972 51.9368 79.0121 51.8921 79.0423C51.8474 79.0726 51.7963 79.0921 51.7429 79.0994C51.6894 79.1068 51.635 79.1017 51.5838 79.0846C51.4543 79.0509 51.3383 78.9781 51.2516 78.8762C51.0774 78.6868 50.8645 78.5371 50.6274 78.4371C50.3904 78.3371 50.1346 78.2892 49.8774 78.2965C49.7387 78.3039 49.6052 78.3514 49.4931 78.4333C49.3989 78.4969 49.3298 78.5913 49.2977 78.7003C49.2713 78.9155 49.29 79.1338 49.3528 79.3413C49.4157 79.5488 49.5211 79.7408 49.6624 79.9052C49.7086 79.9767 49.7255 80.0632 49.7098 80.1468C49.694 80.2304 49.6468 80.3048 49.5778 80.3546C49.506 80.4017 49.4185 80.4186 49.3343 80.4015C49.2502 80.3845 49.1761 80.3348 49.1284 80.2634C48.93 80.0233 48.787 79.7424 48.7093 79.4408C48.6316 79.1391 48.6213 78.8241 48.679 78.518C48.7533 78.2715 48.9066 78.0564 49.1154 77.9057C49.3227 77.765 49.5626 77.6798 49.8122 77.6583C50.3494 77.6226 50.882 77.777 51.3167 78.0946C51.1705 77.5828 50.9877 77.0822 50.7697 76.5967C50.3068 75.5275 49.5359 74.6205 48.5553 73.9915C48.2913 73.8247 47.988 73.7303 47.676 73.7179C47.56 73.7194 47.4458 73.7471 47.3421 73.799C47.2383 73.8509 47.1476 73.9256 47.0768 74.0175C46.7239 74.6021 46.5707 75.2856 46.6405 75.9649V75.9649Z" fill="#D67F54"/>
<path fill-rule="evenodd" clip-rule="evenodd" d="M68.2373 62.2035L67.9703 62.0798C67.0293 61.6904 66.0073 61.5373 64.9935 61.6338C63.9797 61.7303 63.0049 62.0735 62.1542 62.6334C61.7309 62.946 60.0701 64.47 60.539 65.0301C60.7344 65.0953 62.3822 64.1379 62.8707 63.9555C63.5662 63.7093 64.3021 63.5966 65.0395 63.6233C65.7146 63.6493 66.3782 63.8064 66.9933 64.0858C67.0516 64.1077 67.1082 64.1339 67.1627 64.1639C68.5499 64.9259 68.4197 65.4209 69.364 64.685C70.8555 63.7862 69.3575 62.8548 68.2373 62.2035Z" fill="#3F2716"/>
<path fill-rule="evenodd" clip-rule="evenodd" d="M83.8359 62.2035L84.1029 62.0798C85.044 61.6904 86.066 61.5373 87.0798 61.6338C88.0936 61.7303 89.0683 62.0735 89.919 62.6334C90.3488 62.946 92.0031 64.47 91.5342 65.0301C91.3453 65.0953 89.691 64.1379 89.2026 63.9555C88.507 63.7093 87.7712 63.5966 87.0338 63.6233C86.3586 63.6493 85.695 63.8064 85.0799 64.0858C85.0216 64.1077 84.9651 64.1339 84.9106 64.1639C83.5298 64.9259 83.6536 65.4209 82.7092 64.685C81.2177 63.7862 82.7157 62.8548 83.8359 62.2035Z" fill="#3F2716"/>
<path fill-rule="evenodd" clip-rule="evenodd" d="M75.6035 80.335C75.5172 80.335 75.4343 80.3007 75.3733 80.2396C75.3122 80.1786 75.2779 80.0957 75.2779 80.0094C75.2779 79.923 75.3122 79.8402 75.3733 79.7791C75.4343 79.718 75.5172 79.6837 75.6035 79.6837C76.4111 79.7037 77.2191 79.6601 78.0198 79.5535C78.6125 79.4558 79.0424 79.2995 79.0424 79.0259C79.0424 78.1011 78.098 72.3176 78.098 72.3046C78.0848 72.22 78.1054 72.1337 78.1554 72.0642C78.2053 71.9947 78.2807 71.9477 78.365 71.9333C78.4496 71.9201 78.5359 71.9408 78.6054 71.9907C78.6749 72.0407 78.7219 72.116 78.7363 72.2004C78.7363 72.2004 79.6871 78.062 79.6871 79.0259C79.6871 79.7098 79.0358 80.0419 78.124 80.1917C77.2889 80.3051 76.4462 80.353 75.6035 80.335Z" fill="#D67F54"/>
<path fill-rule="evenodd" clip-rule="evenodd" d="M105.941 75.9651C105.941 76.0514 105.906 76.1342 105.845 76.1953C105.784 76.2564 105.701 76.2907 105.615 76.2907C105.529 76.2907 105.446 76.2564 105.385 76.1953C105.324 76.1342 105.289 76.0514 105.289 75.9651C105.359 75.2829 105.203 74.5968 104.846 74.0112C104.776 73.9193 104.685 73.8445 104.581 73.7927C104.477 73.7408 104.363 73.7131 104.247 73.7116C103.935 73.724 103.632 73.8183 103.368 73.9851C102.383 74.6096 101.611 75.5179 101.154 76.5903C100.937 77.077 100.752 77.5774 100.6 78.0883C101.037 77.7712 101.572 77.6169 102.111 77.6519C102.361 77.6735 102.601 77.7587 102.808 77.8994C103.015 78.0504 103.166 78.2656 103.238 78.5116C103.297 78.8172 103.288 79.1321 103.211 79.4338C103.135 79.7355 102.993 80.0166 102.795 80.2571C102.747 80.3285 102.673 80.3781 102.589 80.3952C102.505 80.4122 102.417 80.3954 102.346 80.3482C102.31 80.3247 102.28 80.2942 102.256 80.2587C102.232 80.2232 102.216 80.1833 102.208 80.1414C102.2 80.0995 102.201 80.0565 102.21 80.0148C102.219 79.9732 102.236 79.9337 102.261 79.8989C102.403 79.7353 102.509 79.5431 102.571 79.3352C102.632 79.1274 102.649 78.9087 102.619 78.694C102.592 78.5844 102.524 78.4891 102.43 78.4269C102.318 78.3461 102.184 78.2987 102.046 78.2902C101.788 78.2827 101.531 78.3306 101.293 78.4306C101.055 78.5305 100.841 78.6803 100.665 78.8698C100.578 78.9686 100.466 79.0409 100.34 79.0782C100.288 79.0952 100.233 79.1002 100.179 79.0928C100.126 79.0855 100.074 79.0661 100.029 79.036C99.9839 79.0058 99.9461 78.9659 99.9187 78.919C99.8912 78.8722 99.8748 78.8197 99.8706 78.7656V78.7656C99.848 78.6407 99.848 78.5128 99.8706 78.3879C100.016 77.6876 100.235 77.0043 100.522 76.3493C101.039 75.1502 101.906 74.1354 103.01 73.438C103.375 73.213 103.793 73.0894 104.221 73.0798C104.431 73.0825 104.638 73.1325 104.827 73.226C105.015 73.3196 105.18 73.4544 105.309 73.6204C105.779 74.308 106.001 75.1345 105.941 75.9651V75.9651Z" fill="#D67F54"/>
<path fill-rule="evenodd" clip-rule="evenodd" d="M45.67 50.0892C45.6261 50.0163 45.6125 49.9293 45.6319 49.8465C45.6514 49.7638 45.7025 49.6919 45.7742 49.6463C45.81 49.6237 45.85 49.6085 45.8918 49.6015C45.9335 49.5945 45.9763 49.5959 46.0175 49.6056C46.0587 49.6153 46.0976 49.6331 46.1319 49.658C46.1661 49.6829 46.1951 49.7143 46.2171 49.7505C47.7764 52.4972 50.3473 54.5259 53.3813 55.4037C56.5718 56.1945 59.9415 55.7866 62.8511 54.2574C66.1857 52.525 68.8886 49.3792 71.4091 46.4419C74.8675 42.4169 78.0067 38.7697 82.1033 39.4145C83.6246 39.6608 85.0092 40.4385 86.0111 41.6093C86.6546 42.3468 87.1341 43.2126 87.4179 44.1494C87.7152 45.1122 87.7887 46.1302 87.6328 47.1258C87.3283 48.892 86.4047 50.4921 85.0276 51.6392C84.9603 51.698 84.8723 51.7275 84.7832 51.7214C84.694 51.7153 84.6109 51.674 84.5522 51.6067C84.4935 51.5393 84.4639 51.4514 84.47 51.3622C84.4761 51.273 84.5174 51.19 84.5847 51.1312C85.8595 50.091 86.7191 48.6283 87.0076 47.0086C87.1491 46.1092 87.0845 45.1895 86.8187 44.3187C86.5522 43.4668 86.1083 42.681 85.5161 42.0131C84.5994 40.9681 83.346 40.2769 81.9731 40.0593C78.2346 39.4731 75.2127 42.9901 71.878 46.8783C69.3119 49.8612 66.5635 53.0525 63.1247 54.8501C60.0697 56.4519 56.533 56.876 53.1859 56.042C49.9994 55.1153 47.3019 52.9787 45.67 50.0892Z" fill="#292F3D"/>
<path fill-rule="evenodd" clip-rule="evenodd" d="M88.4208 50.6564C88.3776 50.7298 88.307 50.783 88.2246 50.8044C88.1421 50.8258 88.0545 50.8136 87.9811 50.7704C87.9077 50.7272 87.8545 50.6566 87.8331 50.5742C87.8117 50.4917 87.824 50.4041 87.8672 50.3307C89.2545 48.2129 89.8835 45.6876 89.6517 43.1665C89.4885 41.8926 89.0289 40.6747 88.31 39.6105C87.5746 38.5486 86.6167 37.6596 85.503 37.0053C83.0884 35.6208 80.2776 35.0908 77.5246 35.5008C74.4115 35.9046 72.1059 38.5944 69.0122 42.2156C67.384 44.1239 65.5409 46.2732 63.2418 48.4941C54.026 57.4038 46.1063 49.2496 46.0867 49.2236C46.0263 49.1631 45.9923 49.0811 45.9923 48.9956C45.9923 48.9101 46.0263 48.8281 46.0867 48.7676C46.1472 48.7072 46.2292 48.6732 46.3147 48.6732C46.4002 48.6732 46.4822 48.7072 46.5426 48.7676C46.5426 48.7676 54.039 56.492 62.825 48.0317C65.098 45.8368 66.9281 43.6876 68.5498 41.7988C71.7346 38.0734 74.1119 35.2859 77.466 34.8625C80.3568 34.4187 83.313 34.9576 85.8612 36.3931C87.0561 37.102 88.0827 38.062 88.8702 39.2067C89.6477 40.3559 90.1431 41.6725 90.316 43.0493C90.5659 45.7266 89.8975 48.4092 88.4208 50.6564Z" fill="#292F3D"/>
<path fill-rule="evenodd" clip-rule="evenodd" d="M75.3152 82C75.8093 83.4363 76.182 83.4363 76.6892 82L82.3845 82.8402L83 84H69L69.6155 82.8402L75.3152 82Z" fill="#B58460" fill-opacity="0.4"/>
<path fill-rule="evenodd" clip-rule="evenodd" d="M72.2103 92.3389C73.3444 92.8835 74.5864 93.1663 75.8445 93.1663C77.1026 93.1663 78.3446 92.8835 79.4787 92.3389C79.6937 97.1063 71.9498 97.1063 72.2103 92.3389Z" fill="#B58460"/>
</g>
</svg>
