<svg width="151" height="150" viewBox="0 0 151 150" fill="none" xmlns="http://www.w3.org/2000/svg">
<circle cx="75" cy="75" r="75" fill="#C1BCED"/>
<mask id="mask0_163_3221" style="mask-type:alpha" maskUnits="userSpaceOnUse" x="0" y="0" width="151" height="150">
<circle cx="75.5" cy="75" r="75" fill="#C1BCED"/>
</mask>
<g mask="url(#mask0_163_3221)">
<circle cx="75.5" cy="75" r="75" fill="#CBF147"/>
<path fill-rule="evenodd" clip-rule="evenodd" d="M74.7516 122.955C74.7516 122.955 63.1751 117.878 59.4814 115.072C55.7876 112.267 55.6733 102.379 56.4222 99.6879C57.1712 96.9969 58.0914 93.1888 63.5877 92.7065C69.0839 92.2241 74.7516 94.0202 74.7516 94.0202C74.7516 94.0202 80.4192 92.2051 85.9155 92.7065C91.4117 93.2079 92.332 97.0413 93.0809 99.6879C93.8298 102.334 93.7156 112.235 90.0281 115.072C86.3407 117.909 74.7516 122.955 74.7516 122.955Z" fill="#D79006"/>
<path fill-rule="evenodd" clip-rule="evenodd" d="M74.6311 123.215C74.593 123.215 63.0166 118.138 59.2911 115.295C57.7171 114.089 56.7524 111.709 56.2573 109.119C55.5211 105.387 55.6671 101.192 56.1177 99.5992L56.1875 99.358C56.9555 96.6162 58.009 92.878 63.5624 92.3766C68.7223 91.9069 73.9964 93.4429 74.7517 93.6777C75.5133 93.4429 80.7874 91.9069 85.9473 92.3766C91.507 92.8843 92.5542 96.6353 93.3222 99.358L93.3857 99.5865C93.8426 101.199 93.9886 105.394 93.246 109.107C92.732 111.696 91.7863 114.076 90.2187 115.282C86.4931 118.144 74.9103 123.19 74.8786 123.203C74.8397 123.22 74.7975 123.229 74.7548 123.229C74.7122 123.229 74.6701 123.22 74.6311 123.203V123.215ZM59.6719 114.8C63.1181 117.446 73.5014 122.035 74.7517 122.587C76.021 122.035 86.3852 117.446 89.8378 114.8C91.2659 113.702 92.1417 111.455 92.6304 108.999C93.3539 105.362 93.2206 101.3 92.7827 99.7515L92.7193 99.523C92.0021 96.9843 91.0183 93.4428 85.8902 92.9795C80.5336 92.4908 75.0246 94.2489 74.8532 94.2489C74.7933 94.2679 74.7291 94.2679 74.6692 94.2489C74.6692 94.2489 69.0587 92.4528 63.6259 92.9795C58.5041 93.4428 57.514 96.9462 56.7968 99.5103L56.7333 99.7515C56.2954 101.3 56.1621 105.362 56.8856 108.999C57.368 111.48 58.2439 113.727 59.6719 114.825V114.8Z" fill="#20201E"/>
<path fill-rule="evenodd" clip-rule="evenodd" d="M74.9928 149.872H29.9311C29.4106 126.833 47.137 113.46 62.3565 108.466C63.5877 102.036 63.2767 93.7031 63.2767 93.7031H86.6962C86.6962 93.7031 86.3788 102.036 87.6164 108.466C102.849 113.46 120.556 126.833 120.035 149.872H74.9928Z" fill="#E4AE7C"/>
<path fill-rule="evenodd" clip-rule="evenodd" d="M86.7024 93.7031C86.7024 93.7031 86.639 95.3533 86.7024 97.7523C82.2597 108.929 68.4429 110.186 63.3211 98.222C63.3782 95.5691 63.3211 93.7031 63.3211 93.7031H86.7024Z" fill="#D67F54"/>
<path fill-rule="evenodd" clip-rule="evenodd" d="M121.578 149.872C122.06 129.302 107.507 116.443 93.1825 110.37C91.6593 109.735 88.9683 118.151 87.4705 117.662C84.3479 124.586 63.391 124.561 60.3002 117.618C58.3009 118.252 57.4314 110.059 55.4068 110.979C41.5456 117.288 27.9382 129.968 28.4015 149.872H121.578Z" fill="#73AA7D"/>
<path fill-rule="evenodd" clip-rule="evenodd" d="M41.9137 136.347C41.9154 136.221 41.9663 136.102 42.0553 136.014C42.1444 135.926 42.2646 135.877 42.3897 135.877C42.4516 135.877 42.5129 135.889 42.57 135.913C42.627 135.937 42.6787 135.973 42.7219 136.017C42.7651 136.061 42.799 136.114 42.8215 136.172C42.844 136.229 42.8547 136.291 42.853 136.353L42.7388 149.389C42.7388 149.514 42.6893 149.633 42.6012 149.721C42.5131 149.809 42.3937 149.859 42.2691 149.859C42.1446 149.859 42.0251 149.809 41.937 149.721C41.8489 149.633 41.7995 149.514 41.7995 149.389L41.9137 136.347Z" fill="#472C53"/>
<path fill-rule="evenodd" clip-rule="evenodd" d="M74.9928 119.623C62.8451 119.414 51.2687 96.7113 62.2993 93.7029C63.2704 93.4427 63.5687 92.9731 63.391 92.4019C59.0879 93.0683 55.1402 94.6296 54.7531 98.1139C53.9788 105.095 34.7736 108.98 52.0049 120.423C58.6499 124.865 68.2652 127.404 74.9674 127.188C81.8282 127.442 91.8243 124.65 98.5391 119.896C114.647 108.535 95.9623 105.159 95.1754 98.1139C94.7819 94.6105 90.8405 93.0365 86.5375 92.4019C86.3534 92.9731 86.6644 93.4427 87.6291 93.7029C98.7105 96.7113 87.1404 119.407 74.9928 119.623Z" fill="#FFCB66"/>
<path fill-rule="evenodd" clip-rule="evenodd" d="M70.4549 125.468C70.8654 125.468 71.2666 125.346 71.6079 125.118C71.9492 124.89 72.2152 124.566 72.3723 124.187C72.5294 123.808 72.5705 123.39 72.4904 122.988C72.4103 122.585 72.2127 122.215 71.9224 121.925C71.6322 121.635 71.2624 121.437 70.8598 121.357C70.4572 121.277 70.0399 121.318 69.6607 121.475C69.2815 121.632 68.9573 121.898 68.7293 122.24C68.5012 122.581 68.3795 122.982 68.3795 123.393C68.3812 123.943 68.6004 124.47 68.9892 124.858C69.3781 125.247 69.905 125.466 70.4549 125.468V125.468Z" fill="#472C53"/>
<path fill-rule="evenodd" clip-rule="evenodd" d="M78.9913 125.468C79.4018 125.468 79.803 125.346 80.1443 125.118C80.4856 124.89 80.7516 124.566 80.9087 124.187C81.0658 123.808 81.1069 123.39 81.0268 122.988C80.9467 122.585 80.749 122.215 80.4588 121.925C80.1685 121.635 79.7988 121.437 79.3962 121.357C78.9936 121.277 78.5763 121.318 78.1971 121.475C77.8178 121.632 77.4937 121.898 77.2657 122.24C77.0376 122.581 76.9159 122.982 76.9159 123.393C76.9176 123.943 77.1368 124.47 77.5256 124.858C77.9145 125.247 78.4414 125.466 78.9913 125.468V125.468Z" fill="#472C53"/>
<path fill-rule="evenodd" clip-rule="evenodd" d="M69.5473 123.12C69.5832 123.002 69.642 122.891 69.7204 122.796C69.7988 122.7 69.8953 122.621 70.0043 122.563C70.1133 122.504 70.2328 122.468 70.3558 122.456C70.4789 122.444 70.6031 122.456 70.7215 122.492C70.8398 122.527 70.95 122.586 71.0456 122.665C71.1412 122.743 71.2205 122.839 71.2788 122.949C71.3372 123.058 71.3735 123.177 71.3856 123.3C71.3978 123.423 71.3856 123.547 71.3498 123.666C70.3783 126.725 69.8691 129.913 69.8393 133.122C69.8162 135.981 70.3219 138.819 71.3308 141.494C71.3833 141.611 71.4114 141.738 71.4132 141.867C71.415 141.995 71.3905 142.123 71.3413 142.242C71.292 142.361 71.219 142.468 71.1267 142.558C71.0344 142.648 70.9248 142.718 70.8045 142.764C70.6843 142.809 70.556 142.83 70.4274 142.825C70.2988 142.819 70.1727 142.788 70.0568 142.732C69.9409 142.676 69.8376 142.597 69.7533 142.5C69.669 142.402 69.6054 142.289 69.5664 142.166C68.4751 139.277 67.9264 136.211 67.948 133.122C67.9815 129.727 68.5205 126.356 69.5473 123.12Z" fill="#EE8D5D"/>
<path fill-rule="evenodd" clip-rule="evenodd" d="M78.1155 123.977C78.0796 123.858 78.0674 123.734 78.0796 123.611C78.0918 123.488 78.1281 123.368 78.1864 123.259C78.2448 123.15 78.324 123.054 78.4197 122.975C78.5153 122.897 78.6254 122.838 78.7438 122.802C78.8621 122.767 78.9864 122.754 79.1094 122.767C79.2325 122.779 79.352 122.815 79.461 122.873C79.57 122.932 79.6665 123.011 79.7449 123.107C79.8233 123.202 79.8821 123.312 79.9179 123.431C80.9402 126.666 81.4771 130.034 81.511 133.427C81.5321 136.515 80.9856 139.58 79.8989 142.471C79.8093 142.705 79.6308 142.893 79.4024 142.996C79.174 143.098 78.9143 143.105 78.6803 143.017C78.5641 142.973 78.4576 142.907 78.3672 142.822C78.2767 142.737 78.2039 142.635 78.1532 142.521C78.1024 142.408 78.0746 142.286 78.0714 142.162C78.0682 142.037 78.0897 141.914 78.1345 141.798C79.1388 139.122 79.6422 136.285 79.6196 133.427C79.5892 130.22 79.0823 127.035 78.1155 123.977V123.977Z" fill="#EE8D5D"/>
<path fill-rule="evenodd" clip-rule="evenodd" d="M50.1898 73.076C50.0819 71.8701 45.1568 70.4485 43.513 74.3898C41.8692 78.3311 44.8268 83.9099 50.4119 84.3478C55.997 84.7857 54.3532 83.802 54.3532 83.802L50.1898 73.076Z" fill="#E4AE7C"/>
<path fill-rule="evenodd" clip-rule="evenodd" d="M99.9101 73.076C100.018 71.8701 104.943 70.4485 106.587 74.3898C108.231 78.3311 105.273 83.9099 99.688 84.3478C94.1028 84.7857 95.7466 83.802 95.7466 83.802L99.9101 73.076Z" fill="#E4AE7C"/>
<path fill-rule="evenodd" clip-rule="evenodd" d="M74.9928 99.6375C45.9375 100.336 31.2702 28.7002 74.9928 30.5344C118.709 28.7002 104.016 100.367 74.9928 99.6375Z" fill="#E4AE7C"/>
<path fill-rule="evenodd" clip-rule="evenodd" d="M48.7554 71.7687C46.7118 63.1562 45.7217 52.792 48.2287 45.3029C51.3132 36.0938 63.1435 30.0707 74.9674 30.0009C86.3217 29.9184 97.6696 35.3576 101.224 43.8812C104.397 51.4465 103.401 62.5914 101.224 71.756C98.0505 66.9198 96.6796 58.2946 96.9588 53.0776C97.384 45.1506 86.3725 40.9871 74.9865 40.638C63.5941 40.9871 52.5825 45.1506 53.0077 53.0776C53.2934 58.3073 51.9732 66.9325 48.7554 71.7687Z" fill="#161B27"/>
<path fill-rule="evenodd" clip-rule="evenodd" d="M87.9338 39.0388C93.5189 44.8968 94.8136 47.7084 97.8728 50.0694C99.3008 51.1737 92.3702 54.2519 88.3527 52.9508C88.8096 54.0615 91.3039 56.6636 91.2087 56.7144C88.4352 58.0536 79.1499 57.5204 73.1332 54.0424C73.203 55.1087 73.495 56.9619 74.447 57.6474C74.7263 57.8441 71.3942 57.5776 70.3978 57.3872C64.8635 56.3463 54.2454 50.996 53.3632 42.3899C56.1494 30.3755 76.3637 26.9165 87.9338 39.0388Z" fill="#161B27"/>
<path fill-rule="evenodd" clip-rule="evenodd" d="M62.0201 74.5108C63.5052 75.6469 63.5687 77.316 62.1661 78.23C60.7634 79.1439 58.4215 78.9725 56.9427 77.8301C55.4639 76.6877 55.3941 75.0249 56.7968 74.1109C58.1994 73.197 60.5413 73.3684 62.0201 74.5108Z" fill="#DA9077"/>
<path fill-rule="evenodd" clip-rule="evenodd" d="M88.1495 74.5108C86.6644 75.6469 86.6009 77.316 88.0035 78.23C89.4061 79.1439 91.7481 78.9725 93.2269 77.8301C94.7057 76.6877 94.7755 75.0249 93.3729 74.1109C91.9702 73.197 89.6029 73.3684 88.1495 74.5108Z" fill="#DA9077"/>
<path fill-rule="evenodd" clip-rule="evenodd" d="M57.9328 47.6892C58.2576 48.6314 58.6478 49.5497 59.1006 50.4374C60.0733 52.3765 61.36 54.1415 62.9086 55.6607C63.6495 56.392 64.3427 57.17 64.984 57.99C64.5588 58.7389 62.3501 57.4695 61.8931 57.2411C59.4941 56.0606 57.8503 54.2327 56.3969 52.0304C55.7517 51.0067 55.2217 49.9148 54.8166 48.7745C54.2454 46.8705 53.3505 44.5857 55.6099 44.6999C57.533 44.5857 57.1585 45.3283 57.9328 47.6892Z" fill="#292F3D"/>
<path fill-rule="evenodd" clip-rule="evenodd" d="M66.3676 61.1632L66.0756 61.0426C65.0288 60.662 63.9118 60.5132 62.8018 60.6063C61.6918 60.6994 60.6152 61.0323 59.6464 61.582C59.1767 61.8867 57.3425 63.3718 57.863 63.9176C58.0724 63.9747 59.9003 63.0418 60.4397 62.8704C61.2135 62.629 62.0224 62.5196 62.8324 62.5467C63.5845 62.5675 64.3274 62.7178 65.0284 62.991L65.2188 63.0735C66.7484 63.8161 66.6087 64.2921 67.656 63.5749C69.2617 62.7244 67.6052 61.8042 66.3676 61.1632Z" fill="#3F2716"/>
<path fill-rule="evenodd" clip-rule="evenodd" d="M83.6116 61.1632L83.9036 61.0426C84.9504 60.662 86.0674 60.5132 87.1774 60.6063C88.2874 60.6994 89.364 61.0323 90.3328 61.582C90.8025 61.8867 92.6367 63.3718 92.1162 63.9176C91.9068 63.9747 90.0789 63.0418 89.5458 62.8704C88.7698 62.6294 87.9589 62.52 87.1468 62.5467C86.3947 62.5675 85.6518 62.7178 84.9508 62.991L84.7667 63.0735C83.2308 63.8161 83.3704 64.2921 82.3296 63.5749C80.7175 62.7244 82.374 61.8042 83.6116 61.1632Z" fill="#3F2716"/>
<path fill-rule="evenodd" clip-rule="evenodd" d="M73.6282 88.7905C73.5919 88.7701 73.5601 88.7427 73.5346 88.7097C73.5091 88.6768 73.4905 88.6391 73.4798 88.5989C73.4692 88.5586 73.4667 88.5166 73.4726 88.4754C73.4784 88.4342 73.4925 88.3946 73.514 88.3589C73.5574 88.2879 73.627 88.2369 73.7077 88.2167C73.7884 88.1965 73.8738 88.2088 73.9456 88.251C74.4156 88.5096 74.9451 88.6409 75.4815 88.6318C76.0081 88.6432 76.5279 88.5116 76.9857 88.251C77.0209 88.2293 77.0602 88.2148 77.1012 88.2085C77.1421 88.2022 77.1839 88.2041 77.2242 88.2141C77.2644 88.2242 77.3022 88.2422 77.3353 88.267C77.3685 88.2919 77.3963 88.3231 77.4172 88.3589C77.46 88.4299 77.4733 88.5147 77.4543 88.5954C77.4353 88.676 77.3856 88.746 77.3157 88.7905C76.7565 89.1062 76.1236 89.2683 75.4815 89.2601C74.8334 89.2675 74.1946 89.1056 73.6282 88.7905V88.7905Z" fill="#906949"/>
<path fill-rule="evenodd" clip-rule="evenodd" d="M104.803 77.5189C104.803 77.603 104.77 77.6838 104.71 77.7433C104.651 77.8028 104.57 77.8362 104.486 77.8362C104.402 77.8362 104.321 77.8028 104.262 77.7433C104.202 77.6838 104.169 77.603 104.169 77.5189C104.238 76.854 104.086 76.1848 103.737 75.6149C103.668 75.5253 103.58 75.4525 103.479 75.4019C103.378 75.3514 103.266 75.3243 103.153 75.3229C102.85 75.3325 102.554 75.4223 102.296 75.5831C101.341 76.1961 100.59 77.0799 100.139 78.1218C99.9317 78.5972 99.7536 79.0847 99.6054 79.5816C100.029 79.2721 100.548 79.1215 101.071 79.1563C101.316 79.1766 101.55 79.2621 101.751 79.4039C101.954 79.548 102.103 79.7556 102.176 79.9941C102.232 80.2934 102.222 80.6014 102.146 80.8964C102.071 81.1914 101.931 81.4661 101.738 81.7014C101.715 81.736 101.685 81.7656 101.651 81.7886C101.616 81.8116 101.577 81.8273 101.536 81.835C101.496 81.8427 101.454 81.8422 101.413 81.8334C101.372 81.8246 101.334 81.8078 101.3 81.7839C101.232 81.7375 101.185 81.6661 101.169 81.5852C101.154 81.5042 101.171 81.4205 101.217 81.3523C101.355 81.1917 101.457 81.0045 101.518 80.8024C101.579 80.6003 101.598 80.3878 101.573 80.1782C101.54 80.0711 101.473 79.9776 101.382 79.9116C101.271 79.8365 101.142 79.7927 101.008 79.7847C100.757 79.7745 100.507 79.8198 100.275 79.9175C100.044 80.0151 99.8368 80.1626 99.6689 80.3495C99.5835 80.4465 99.4706 80.5152 99.3452 80.5463C99.2953 80.5643 99.2419 80.5703 99.1893 80.5638C99.1366 80.5572 99.0863 80.5383 99.0423 80.5086C98.9984 80.4789 98.9621 80.4392 98.9364 80.3928C98.9108 80.3464 98.8964 80.2946 98.8946 80.2416V80.2416C98.8757 80.1196 98.8757 79.9955 98.8946 79.8735C99.0483 79.1875 99.2738 78.5195 99.5673 77.8806C100.071 76.7142 100.914 75.7259 101.985 75.0437C102.343 74.8291 102.749 74.711 103.166 74.7009C103.37 74.7018 103.572 74.7492 103.756 74.8393C103.939 74.9295 104.1 75.0601 104.226 75.2214C104.671 75.9007 104.874 76.7099 104.803 77.5189Z" fill="#D67F54"/>
<path fill-rule="evenodd" clip-rule="evenodd" d="M45.8105 77.5189C45.8105 77.603 45.7771 77.6838 45.7176 77.7433C45.658 77.8028 45.5773 77.8362 45.4932 77.8362C45.409 77.8362 45.3283 77.8028 45.2688 77.7433C45.2093 77.6838 45.1758 77.603 45.1758 77.5189C45.1065 76.7149 45.3076 75.9108 45.747 75.2341C45.8728 75.0728 46.0336 74.9421 46.2172 74.852C46.4007 74.7619 46.6024 74.7145 46.8069 74.7136C47.2235 74.7237 47.6303 74.8418 47.9874 75.0563C49.0616 75.7377 49.9063 76.7261 50.4119 77.8933C50.7039 78.5322 50.9273 79.2002 51.0783 79.8862C51.1003 80.0079 51.1003 80.1326 51.0783 80.2543V80.2543C51.0754 80.3076 51.0602 80.3594 51.0338 80.4057C51.0074 80.4521 50.9705 80.4916 50.9262 80.5212C50.8818 80.5507 50.8311 80.5696 50.7782 80.5761C50.7253 80.5827 50.6716 80.5768 50.6213 80.559C50.4982 80.5267 50.3876 80.4581 50.304 80.3622C50.1348 80.1752 49.9266 80.0276 49.6941 79.93C49.4616 79.8324 49.2104 79.7871 48.9585 79.7973C48.8248 79.8065 48.6958 79.8503 48.584 79.9243C48.4934 79.9889 48.4283 80.0832 48.4 80.1908C48.3717 80.4001 48.3882 80.613 48.4484 80.8154C48.5086 81.0178 48.6111 81.2051 48.749 81.365C48.7728 81.3985 48.7895 81.4364 48.7982 81.4765C48.8069 81.5166 48.8074 81.558 48.7997 81.5984C48.792 81.6387 48.7762 81.677 48.7533 81.7111C48.7305 81.7451 48.7009 81.7742 48.6665 81.7966C48.6325 81.8204 48.5941 81.8373 48.5535 81.8461C48.5129 81.8548 48.471 81.8554 48.4302 81.8477C48.3893 81.84 48.3505 81.8242 48.3159 81.8013C48.2812 81.7783 48.2516 81.7487 48.2286 81.7141C48.0343 81.4794 47.8948 81.2045 47.8202 80.9091C47.7455 80.6138 47.7376 80.3056 47.797 80.0068C47.8673 79.769 48.0146 79.5613 48.2159 79.4165C48.416 79.2748 48.6506 79.1893 48.895 79.169C49.4204 79.1349 49.9412 79.2853 50.3674 79.5943C50.2197 79.0964 50.0395 78.6088 49.828 78.1345C49.377 77.0926 48.6257 76.2088 47.6701 75.5958C47.4125 75.435 47.1168 75.3452 46.8133 75.3356C46.7002 75.337 46.589 75.364 46.4878 75.4146C46.3867 75.4652 46.2984 75.538 46.2294 75.6275C45.8873 76.1954 45.7402 76.8596 45.8105 77.5189Z" fill="#D67F54"/>
<path fill-rule="evenodd" clip-rule="evenodd" d="M60.0082 38.3152C60.0157 38.2747 60.0313 38.2362 60.0541 38.202C60.0769 38.1678 60.1064 38.1385 60.1408 38.116C60.1752 38.0934 60.2138 38.0781 60.2543 38.0709C60.2947 38.0637 60.3363 38.0647 60.3763 38.074C60.4169 38.0816 60.4556 38.0972 60.4901 38.1199C60.5246 38.1425 60.5542 38.1719 60.5772 38.2061C60.6003 38.2404 60.6163 38.2789 60.6243 38.3194C60.6323 38.3599 60.6321 38.4016 60.6238 38.4421C60.3047 40.0145 60.316 41.6361 60.6569 43.204C60.9978 44.7718 61.6608 46.2517 62.604 47.5496C64.9015 50.9451 68.6334 53.6171 72.1622 55.3815C72.2369 55.4195 72.2936 55.4856 72.3197 55.5653C72.3459 55.645 72.3395 55.7318 72.3018 55.8067C72.2638 55.8798 72.1988 55.9353 72.1206 55.9613C72.0425 55.9874 71.9572 55.982 71.8829 55.9464C68.2716 54.1375 64.4509 51.3958 62.0836 47.9051C61.0929 46.5372 60.397 44.9786 60.0397 43.3279C59.6825 41.6771 59.6718 39.9702 60.0082 38.3152V38.3152Z" fill="#292F3D"/>
<path fill-rule="evenodd" clip-rule="evenodd" d="M62.9277 35.7635C62.9187 35.6812 62.9422 35.5987 62.9932 35.5335C63.0442 35.4683 63.1186 35.4256 63.2006 35.4145C63.2415 35.4091 63.2831 35.412 63.3228 35.4229C63.3626 35.4338 63.3998 35.4525 63.4323 35.4779C63.4648 35.5032 63.4919 35.5349 63.512 35.5708C63.5322 35.6068 63.545 35.6464 63.5497 35.6874C63.8988 38.4101 66.0884 41.666 69.1348 44.6363C72.394 47.8466 76.2373 50.4037 80.4574 52.1698C88.0734 55.1655 88.67 55.1655 88.6764 55.1655C88.7589 55.1703 88.8364 55.2066 88.893 55.2668C88.9497 55.3269 88.9812 55.4065 88.981 55.4892C88.9777 55.5722 88.9419 55.6506 88.8814 55.7076C88.8209 55.7646 88.7404 55.7955 88.6573 55.7938C88.6573 55.7938 87.9592 55.7938 80.2289 52.7537C75.9288 50.9548 72.0124 48.3503 68.6905 45.0805C65.5616 42.0214 63.2958 38.6386 62.9277 35.7635Z" fill="#292F3D"/>
<path fill-rule="evenodd" clip-rule="evenodd" d="M69.8838 34.2468C69.8644 34.1626 69.8793 34.0742 69.9251 34.001C69.9709 33.9278 70.044 33.8758 70.1281 33.8564C70.2123 33.8371 70.3007 33.8519 70.3739 33.8978C70.4471 33.9436 70.4991 34.0166 70.5184 34.1008C71.0896 36.43 73.0571 38.9306 75.6402 41.0822C78.3803 43.3328 81.5602 44.9865 84.9763 45.9374C91.6403 47.6764 92.256 47.7653 92.2623 47.7653C92.3465 47.7779 92.4222 47.8234 92.4728 47.8919C92.5233 47.9603 92.5447 48.046 92.532 48.1302C92.5194 48.2144 92.4739 48.2901 92.4054 48.3407C92.337 48.3912 92.2513 48.4126 92.1671 48.3999C92.1671 48.3999 91.5324 48.3047 84.8176 46.5657C81.2994 45.5925 78.024 43.8931 75.2023 41.5772C72.5113 39.3368 70.493 36.7156 69.8838 34.2468Z" fill="#292F3D"/>
<path fill-rule="evenodd" clip-rule="evenodd" d="M69.6437 82.0787C73.6737 82.0311 77.6725 82.0311 81.7025 82.0787C78.7047 87.9547 72.6206 87.9547 69.6437 82.0787Z" fill="#88342A"/>
<path fill-rule="evenodd" clip-rule="evenodd" d="M78.5291 85.5336C77.6877 86.1537 76.6923 86.4856 75.673 86.4856C74.6538 86.4856 73.6584 86.1537 72.817 85.5336C73.6584 84.9134 74.6538 84.5815 75.673 84.5815C76.6923 84.5815 77.6877 84.9134 78.5291 85.5336V85.5336Z" fill="#D17B65"/>
<path fill-rule="evenodd" clip-rule="evenodd" d="M73.8256 78.4056C73.7393 78.4056 73.6564 78.3713 73.5954 78.3102C73.5343 78.2491 73.5 78.1663 73.5 78.0799C73.5 77.9936 73.5343 77.9107 73.5954 77.8497C73.6564 77.7886 73.7393 77.7543 73.8256 77.7543C74.6332 77.7742 75.4412 77.7307 76.2419 77.624C76.8346 77.5263 77.2645 77.37 77.2645 77.0965C77.2645 76.1716 76.3201 70.3882 76.3201 70.3751C76.3069 70.2906 76.3275 70.2042 76.3775 70.1348C76.4275 70.0653 76.5028 70.0183 76.5871 70.0039C76.6717 69.9907 76.758 70.0113 76.8275 70.0613C76.897 70.1113 76.944 70.1866 76.9584 70.2709C76.9584 70.2709 77.9092 76.1326 77.9092 77.0965C77.9092 77.7803 77.258 78.1125 76.3461 78.2623C75.511 78.3756 74.6683 78.4235 73.8256 78.4056Z" fill="#D67F54"/>
</g>
</svg>
