<svg width="230" height="230" viewBox="0 0 230 230" fill="none" xmlns="http://www.w3.org/2000/svg">
<g filter="url(#filter0_d_129_668)">
<path fill-rule="evenodd" clip-rule="evenodd" d="M60.7885 128.553C49.5609 139.781 49.5609 157.984 60.7885 169.212C72.016 180.439 90.2195 180.439 101.447 169.212L121.776 148.882C125.519 145.14 131.587 145.14 135.329 148.882C139.072 152.625 139.072 158.693 135.329 162.435L115 182.765C96.2874 201.477 65.9482 201.477 47.2356 182.765C28.523 164.052 28.523 133.713 47.2356 115L67.5649 94.6708C71.3074 90.9283 77.3753 90.9283 81.1178 94.6708C84.8603 98.4133 84.8603 104.481 81.1178 108.224L60.7885 128.553Z" fill="#CBF147"/>
</g>
<g filter="url(#filter1_d_129_668)">
<path fill-rule="evenodd" clip-rule="evenodd" d="M81.118 148.882C77.3755 145.14 77.3755 139.072 81.118 135.33L135.33 81.118C139.072 77.3755 145.14 77.3755 148.882 81.118C152.625 84.8605 152.625 90.9283 148.882 94.6709L94.6709 148.882C90.9283 152.625 84.8605 152.625 81.118 148.882Z" fill="#CBF147"/>
</g>
<g filter="url(#filter2_d_129_668)">
<path fill-rule="evenodd" clip-rule="evenodd" d="M128.553 60.7886C139.78 49.561 157.984 49.561 169.212 60.7886C180.439 72.0162 180.439 90.2197 169.212 101.447L148.882 121.777C145.14 125.519 145.14 131.587 148.882 135.329C152.625 139.072 158.693 139.072 162.435 135.329L182.764 115C201.477 96.2875 201.477 65.9483 182.764 47.2357C164.052 28.5231 133.713 28.5231 115 47.2357L94.6707 67.565C90.9282 71.3075 90.9282 77.3754 94.6707 81.1179C98.4132 84.8604 104.481 84.8604 108.224 81.1179L128.553 60.7886Z" fill="#CBF147"/>
</g>
<path d="M75.7951 47.2813L70.8906 36.8688C69.5365 33.9917 70.7679 30.5646 73.645 29.2106C76.522 27.8566 79.9433 29.0769 81.3032 31.965L86.2073 42.3776C87.5614 45.2546 86.33 48.6818 83.4529 50.0358C80.559 51.3936 77.1399 50.1394 75.7951 47.2813Z" fill="#F7F7F8"/>
<path d="M159.61 174.407L164.515 184.819C165.869 187.696 164.637 191.123 161.76 192.477C158.883 193.831 155.462 192.611 154.102 189.723L149.198 179.31C147.844 176.433 149.075 173.006 151.952 171.652C154.846 170.294 158.265 171.549 159.61 174.407Z" fill="#F7F7F8"/>
<path d="M61.0257 64.4985L55.2222 57.9302C53.6194 56.1151 53.7898 53.3472 55.6049 51.7444C57.42 50.1417 60.1813 50.3053 61.7907 52.1272L67.594 58.6956C69.1967 60.5107 69.0263 63.2786 67.2112 64.8814C65.3846 66.4905 62.6176 66.3017 61.0257 64.4985Z" fill="#F7F7F8"/>
<path d="M174.38 157.19L180.183 163.758C181.786 165.573 181.615 168.341 179.8 169.944C177.985 171.547 175.224 171.383 173.615 169.561L167.811 162.993C166.209 161.178 166.379 158.41 168.194 156.807C170.021 155.198 172.788 155.387 174.38 157.19Z" fill="#F7F7F8"/>
<path d="M43.0396 83.473L32.2715 79.4083C29.297 78.2844 27.7965 74.9663 28.9204 71.9918C30.0443 69.0173 33.3505 67.5129 36.3369 68.6406L47.1048 72.7057C50.0793 73.8296 51.5798 77.1477 50.4559 80.1222C49.3226 83.1112 45.9943 84.5898 43.0396 83.473Z" fill="#F7F7F8"/>
<path d="M192.366 138.215L203.134 142.28C206.108 143.404 207.609 146.722 206.485 149.697C205.361 152.671 202.055 154.176 199.068 153.048L188.3 148.983C185.326 147.859 183.825 144.541 184.949 141.566C186.083 138.577 189.411 137.099 192.366 138.215Z" fill="#F7F7F8"/>
<defs>
<filter id="filter0_d_129_668" x="9.20117" y="67.8638" width="152.935" height="152.935" filterUnits="userSpaceOnUse" color-interpolation-filters="sRGB">
<feFlood flood-opacity="0" result="BackgroundImageFix"/>
<feColorMatrix in="SourceAlpha" type="matrix" values="0 0 0 0 0 0 0 0 0 0 0 0 0 0 0 0 0 0 127 0" result="hardAlpha"/>
<feOffset/>
<feGaussianBlur stdDeviation="12"/>
<feComposite in2="hardAlpha" operator="out"/>
<feColorMatrix type="matrix" values="0 0 0 0 0.717647 0 0 0 0 0.854902 0 0 0 0 0.266667 0 0 0 0.5 0"/>
<feBlend mode="normal" in2="BackgroundImageFix" result="effect1_dropShadow_129_668"/>
<feBlend mode="normal" in="SourceGraphic" in2="effect1_dropShadow_129_668" result="shape"/>
</filter>
<filter id="filter1_d_129_668" x="54.3112" y="54.311" width="121.378" height="121.378" filterUnits="userSpaceOnUse" color-interpolation-filters="sRGB">
<feFlood flood-opacity="0" result="BackgroundImageFix"/>
<feColorMatrix in="SourceAlpha" type="matrix" values="0 0 0 0 0 0 0 0 0 0 0 0 0 0 0 0 0 0 127 0" result="hardAlpha"/>
<feOffset/>
<feGaussianBlur stdDeviation="12"/>
<feComposite in2="hardAlpha" operator="out"/>
<feColorMatrix type="matrix" values="0 0 0 0 0.717647 0 0 0 0 0.854902 0 0 0 0 0.266667 0 0 0 0.5 0"/>
<feBlend mode="normal" in2="BackgroundImageFix" result="effect1_dropShadow_129_668"/>
<feBlend mode="normal" in="SourceGraphic" in2="effect1_dropShadow_129_668" result="shape"/>
</filter>
<filter id="filter2_d_129_668" x="67.8638" y="9.20117" width="152.935" height="152.935" filterUnits="userSpaceOnUse" color-interpolation-filters="sRGB">
<feFlood flood-opacity="0" result="BackgroundImageFix"/>
<feColorMatrix in="SourceAlpha" type="matrix" values="0 0 0 0 0 0 0 0 0 0 0 0 0 0 0 0 0 0 127 0" result="hardAlpha"/>
<feOffset/>
<feGaussianBlur stdDeviation="12"/>
<feComposite in2="hardAlpha" operator="out"/>
<feColorMatrix type="matrix" values="0 0 0 0 0.717647 0 0 0 0 0.854902 0 0 0 0 0.266667 0 0 0 0.5 0"/>
<feBlend mode="normal" in2="BackgroundImageFix" result="effect1_dropShadow_129_668"/>
<feBlend mode="normal" in="SourceGraphic" in2="effect1_dropShadow_129_668" result="shape"/>
</filter>
</defs>
</svg>
