<svg width="71" height="71" viewBox="0 0 71 71" fill="none" xmlns="http://www.w3.org/2000/svg">
<g clip-path="url(#clip0_192_3117)">
<path d="M23.43 40.47C29.3118 40.47 34.08 35.5429 34.08 29.465C34.08 23.3871 29.3118 18.46 23.43 18.46C17.5482 18.46 12.78 23.3871 12.78 29.465C12.78 35.5429 17.5482 40.47 23.43 40.47Z" fill="#1D2B2C"/>
<path d="M23.43 61.7697C29.3118 61.7697 34.08 57.0016 34.08 51.1197C34.08 45.2379 29.3118 40.4697 23.43 40.4697C17.5482 40.4697 12.78 45.2379 12.78 51.1197C12.78 57.0016 17.5482 61.7697 23.43 61.7697Z" fill="#1D2B2C"/>
<path d="M52.895 49.7005C64.0705 49.7005 73.13 40.641 73.13 29.4655C73.13 18.29 64.0705 9.23047 52.895 9.23047C41.7195 9.23047 32.66 18.29 32.66 29.4655C32.66 40.641 41.7195 49.7005 52.895 49.7005Z" fill="#1D2B2C"/>
<path d="M47.3557 47.3552L54.0926 37.1468L47.3557 35.4111C46.4732 32.7636 44.9727 30.2628 42.8546 28.1447C40.7658 26.0559 38.2948 24.526 35.5882 23.6435L35.4999 23.7319L27.2921 23.4082L23.6441 23.6435C20.9376 24.526 18.4665 26.0559 16.3777 28.1447L5.4717 39.0507C-1.8241 46.3465 -1.8241 58.204 5.4717 65.4998C12.9734 73.0016 24.8293 72.6192 31.9486 65.4998L42.8546 54.6216C44.9729 52.5032 46.4734 50.0028 47.3557 47.3552ZM24.594 58.1449C21.299 61.4399 16.0332 61.3517 12.8264 58.1449C9.5904 54.9089 9.5904 49.6134 12.8264 46.3774L23.6441 35.5875L29.5573 41.4418L35.5 47.2667L24.594 58.1449Z" fill="#CBF147"/>
<path d="M42.8548 54.6214L31.9488 65.4997C24.8293 72.6191 12.9736 73.0014 5.47186 65.4997L12.8265 58.1449C16.0333 61.3517 21.299 61.4399 24.594 58.1449L35.5 47.2668L29.5575 41.4418L42.8548 28.1445C44.9728 30.2626 46.4734 32.7633 47.3559 35.4109L54.0927 37.1467L47.3559 47.355C46.4734 50.0028 44.973 52.5032 42.8548 54.6214Z" fill="#B9DFBF"/>
<path d="M57.5641 60.5053L54.6222 57.5634C53.8091 56.7503 53.8091 55.4345 54.6222 54.6214C55.4352 53.8085 56.7511 53.8084 57.5641 54.6214L60.506 57.5634C61.319 58.3764 61.319 59.6923 60.506 60.5053C59.6928 61.3183 58.3771 61.3183 57.5641 60.5053Z" fill="#F7F7F8"/>
<path d="M13.4359 16.3772L10.4939 13.4353C9.68084 12.6223 9.68084 11.3064 10.4939 10.4935C11.3069 9.68062 12.6228 9.68048 13.4357 10.4935L16.3774 13.4353C17.1905 14.2483 17.1905 15.5642 16.3774 16.3771C15.5644 17.19 14.2488 17.1901 13.4359 16.3772Z" fill="#F7F7F8"/>
<path d="M61.6207 42.4975C61.918 41.3871 63.0585 40.7292 64.1689 41.0265L68.1882 42.1039C69.2986 42.3955 69.9536 43.5417 69.6592 44.6521C69.3619 45.7626 68.2213 46.4204 67.1109 46.1231L63.0917 45.0458C61.9886 44.7505 61.3231 43.6145 61.6207 42.4975Z" fill="#F7F7F8"/>
<path d="M1.34083 26.3462C1.63814 25.2357 2.77872 24.5778 3.88906 24.8751L7.90833 25.9526C9.01451 26.2427 9.67515 27.3891 9.37936 28.5009C9.08205 29.6113 7.94147 30.2692 6.83113 29.9719L2.81186 28.8944C1.70873 28.5992 1.0431 27.4632 1.34083 26.3462Z" fill="#F7F7F8"/>
<path d="M42.1048 68.188L41.0273 64.1688C40.73 63.0583 41.3879 61.9179 42.4984 61.6205C43.6088 61.3232 44.7479 61.9768 45.0466 63.0916L46.1239 67.1108C46.4212 68.2213 45.7634 69.3618 44.6529 69.6591C43.5362 69.9567 42.4 69.2912 42.1048 68.188Z" fill="#F7F7F8"/>
<path d="M25.9531 7.90775L24.8757 3.88848C24.5783 2.778 25.2362 1.63756 26.3467 1.34025C27.4572 1.04585 28.599 1.6965 28.8949 2.81128L29.9724 6.83055C30.2697 7.94103 29.6119 9.08147 28.5014 9.37878C27.3845 9.67609 26.2485 9.01061 25.9531 7.90775Z" fill="#F7F7F8"/>
<path d="M65.528 5.49856C58.2322 -1.79724 46.3763 -1.82678 39.0511 5.49856L28.1451 16.3768C26.027 18.4949 24.5266 20.9954 23.644 23.6432C22.3495 27.5266 22.3496 31.7039 23.6441 35.5873C24.5266 38.2348 26.027 40.7358 28.1451 42.8538C30.2045 44.9133 32.6757 46.4428 35.4117 47.3549L35.4999 47.2667C38.736 44.0305 38.7359 38.7351 35.4999 35.4991C32.2638 32.2631 32.2638 26.9676 35.4999 23.7315L46.4058 12.8533C47.9946 11.2645 50.0539 10.441 52.2898 10.441C52.3485 10.3823 52.8485 10.4116 52.9664 10.4704C54.555 10.4702 56.6436 11.3233 58.1734 12.8533C61.4094 16.0893 61.4096 21.3847 58.1734 24.6209L47.3559 35.4106C48.6504 39.294 48.6504 43.4715 47.3559 47.3549C50.0328 46.4429 52.563 44.9131 54.6223 42.8537L65.5283 31.9755C72.8241 24.6795 72.8238 12.7944 65.528 5.49856Z" fill="#CBF147"/>
<path d="M35.5 47.2666L35.4118 47.3548C32.676 46.4429 30.2045 44.9132 28.1453 42.8538L35.5 35.499C38.736 38.7352 38.7362 44.0305 35.5 47.2666Z" fill="#FFBA33"/>
<path d="M65.528 31.9759L54.622 42.8542C52.5628 44.9136 50.0327 46.4434 47.3556 47.3553C48.6501 43.472 48.6501 39.2945 47.3556 35.4111L58.1731 24.6213C61.4093 21.3851 61.4092 16.0898 58.1731 12.8538L65.5279 5.49902C72.8238 12.7947 72.8241 24.6798 65.528 31.9759Z" fill="#FFBA33"/>
</g>
<defs>
<clipPath id="clip0_192_3117">
<rect width="71" height="71" fill="white"/>
</clipPath>
</defs>
</svg>
