<svg width="160" height="160" viewBox="0 0 160 160" fill="none" xmlns="http://www.w3.org/2000/svg">
<defs>
<linearGradient id="paint0_linear_163_3934" x1="78.6637" y1="141.563" x2="86.1037" y2="172.917" gradientUnits="userSpaceOnUse">
<stop stop-color="#14283A"/>
<stop offset="1" stop-color="#1D212C"/>
</linearGradient>
<linearGradient id="paint1_linear_163_3934" x1="110.848" y1="153.009" x2="91.0389" y2="127.736" gradientUnits="userSpaceOnUse">
<stop stop-color="#102E4E" stop-opacity="0.27"/>
<stop offset="1" stop-color="#081A2B"/>
</linearGradient>
<clipPath id="clip0_163_3934">
<rect width="160" height="160" fill="white"/>
</clipPath>
</defs>
<g clip-path="url(#clip0_163_3934)">
<path d="M32.2871 58.8341C46.9486 58.8341 58.8342 46.788 58.8342 31.9283C58.8342 17.0686 46.9486 5.02246 32.2871 5.02246C17.6255 5.02246 5.73999 17.0686 5.73999 31.9283C5.73999 46.788 17.6255 58.8341 32.2871 58.8341Z" fill="#F7F7F8"/>
<path d="M32.2871 91.8388C46.9486 91.8388 58.8342 79.9533 58.8342 65.2917C58.8342 50.6302 46.9486 38.7446 32.2871 38.7446C17.6255 38.7446 5.73999 50.6302 5.73999 65.2917C5.73999 79.9533 17.6255 91.8388 32.2871 91.8388Z" fill="#F7F7F8"/>
<path d="M101.525 99.0136C129.461 99.0136 152.108 76.3668 152.108 48.4306C152.108 20.4944 129.461 -2.15234 101.525 -2.15234C73.5884 -2.15234 50.9417 20.4944 50.9417 48.4306C50.9417 76.3668 73.5884 99.0136 101.525 99.0136Z" fill="#F7F7F8"/>
<path d="M79.9826 160C113.06 160 139.875 154.234 139.875 147.121C139.875 140.008 113.06 134.242 79.9826 134.242C46.9047 134.242 20.0898 140.008 20.0898 147.121C20.0898 154.234 46.9047 160 79.9826 160Z" fill="url(#paint0_linear_163_3934)"/>
<path d="M139.641 147.049C139.641 139.937 112.826 134.17 79.7482 134.17C74.2455 134.17 68.9181 134.331 63.8564 134.63L75.0674 151.123C75.3802 151.583 75.7454 151.977 76.146 152.309L83.7363 159.899C114.954 159.458 139.641 153.874 139.641 147.049Z" fill="url(#paint1_linear_163_3934)"/>
<path d="M145.639 65.6446C145.639 29.3901 116.249 0 79.995 0C43.8983 0 14.7153 28.8762 14.3532 64.9713C14.08 92.2325 30.4273 115.705 53.8814 125.885C57.8061 127.588 61.1633 130.377 63.5686 133.915L75.3139 151.194C77.5598 154.498 82.4292 154.498 84.6751 151.194L96.4201 133.916C98.8179 130.388 102.157 127.597 106.071 125.901C129.352 115.813 145.639 92.6325 145.639 65.6446V65.6446Z" fill="#81BE8C"/>
<path d="M80.3106 150.401C79.9304 150.401 78.9767 150.299 78.3351 149.355L66.5902 132.076C63.8281 128.013 59.9931 124.834 55.5 122.884C32.4311 112.871 17.6882 90.1516 17.9404 65.0037C18.1067 48.4152 24.6592 32.8854 36.3906 21.2748C48.1208 9.66535 63.7202 3.271 80.3106 3.271H80.311C114.704 3.271 142.684 31.2519 142.684 65.6446C142.684 90.5284 127.926 113.002 105.087 122.899C100.619 124.835 96.7963 128.009 94.0311 132.077L82.2862 149.356C81.6446 150.299 80.6909 150.401 80.3106 150.401V150.401Z" fill="#CBF147"/>
<path d="M80.0081 106.908C102.797 106.908 121.272 88.4339 121.272 65.6446C121.272 42.8552 102.797 24.3809 80.0081 24.3809C57.2188 24.3809 38.7444 42.8552 38.7444 65.6446C38.7444 88.4339 57.2188 106.908 80.0081 106.908Z" fill="#0A335B" fill-opacity="0.56"/>
<path d="M80.0648 99.0725C98.5266 99.0725 113.493 84.1062 113.493 65.6444C113.493 47.1826 98.5266 32.2163 80.0648 32.2163C61.603 32.2163 46.6367 47.1826 46.6367 65.6444C46.6367 84.1062 61.603 99.0725 80.0648 99.0725Z" fill="white"/>
</g>
</svg>
