<svg width="118" height="108" viewBox="0 0 118 108" fill="none" xmlns="http://www.w3.org/2000/svg">
<ellipse cx="50.5" cy="49" rx="49.5" ry="49" fill="black" fill-opacity="0.1"/>
<ellipse cx="70" cy="71" rx="38" ry="37" fill="black" fill-opacity="0.1"/>
<g clip-path="url(#clip0_2_3131)">
<path d="M86.2471 51.5L79.3135 64.1509L86.2471 76.8018C89.9547 76.8018 92.9603 73.7962 92.9603 70.0886V58.2133C92.9603 54.5056 89.9547 51.5 86.2471 51.5Z" fill="#FFCB66"/>
<path d="M86.2471 38.8491L79.3135 51.5L86.2471 64.1509C89.9547 64.1509 92.9603 61.1453 92.9603 57.4377V45.5623C92.9603 41.8547 89.9547 38.8491 86.2471 38.8491Z" fill="#FCE3A0"/>
<path d="M86.2471 51.5L79.3135 38.8491L86.2471 25.561C89.9547 25.561 92.9603 28.5666 92.9603 32.2743V44.7868C92.9603 48.4944 89.9547 51.5 86.2471 51.5Z" fill="#FFBA33"/>
<path d="M77.9264 17.2407H36.5205C31.9443 17.2407 28.2002 20.9848 28.2002 25.561V77.6397C28.2002 82.2158 31.9443 85.96 36.5205 85.96H77.9264C82.5026 85.96 86.2467 82.2158 86.2467 77.6397V25.561C86.2467 20.9848 82.5026 17.2407 77.9264 17.2407ZM42.7607 77.6397C39.3143 77.6397 36.5205 74.8458 36.5205 71.3994C36.5205 67.953 39.3143 65.1592 42.7607 65.1592C46.2072 65.1592 49.001 67.953 49.001 71.3994C49.001 74.8458 46.2072 77.6397 42.7607 77.6397ZM42.7607 57.7402C39.3143 57.7402 36.5205 54.9464 36.5205 51.5C36.5205 48.0536 39.3143 45.2598 42.7607 45.2598C46.2072 45.2598 49.001 48.0536 49.001 51.5C49.001 54.9464 46.2072 57.7402 42.7607 57.7402ZM42.7607 37.8408C39.3143 37.8408 36.5205 35.047 36.5205 31.6006C36.5205 28.1542 39.3143 25.3604 42.7607 25.3604C46.2072 25.3604 49.001 28.1542 49.001 31.6006C49.001 35.047 46.2072 37.8408 42.7607 37.8408Z" fill="#CBF147"/>
<path d="M36.5205 31.6006C36.5205 28.1542 39.3143 25.3604 42.7607 25.3604C42.9047 25.3604 43.0468 25.367 43.1883 25.3766C44.2713 21.6652 47.0399 18.6539 50.6014 17.2407H36.5205C31.9443 17.2407 28.2002 20.9848 28.2002 25.561V77.6397C28.2002 82.2158 31.9443 85.96 36.5205 85.96H48.9896C45.9318 84.2027 43.6781 81.1881 42.9464 77.6349C42.8846 77.6367 42.823 77.6397 42.7607 77.6397C39.3143 77.6397 36.5205 74.8458 36.5205 71.3994C36.5205 67.9762 39.2772 65.1982 42.6915 65.161V57.7386C39.2772 57.7013 36.5205 54.9233 36.5205 51.5C36.5205 48.0767 39.2772 45.2987 42.6915 45.2616V37.8392C39.2772 37.8019 36.5205 35.0238 36.5205 31.6006Z" fill="#1D2B2C"/>
<path d="M26.1201 33.6807H42.7607C43.9095 33.6807 44.8408 32.7493 44.8408 31.6006C44.8408 30.4518 43.9095 29.5205 42.7607 29.5205H26.1201C24.9714 29.5205 24.04 30.4518 24.04 31.6006C24.04 32.7493 24.9714 33.6807 26.1201 33.6807Z" fill="#D4D4D5"/>
<path d="M42.7607 49.4199H26.1201C24.9714 49.4199 24.04 50.3512 24.04 51.5C24.04 52.6488 24.9714 53.5801 26.1201 53.5801H42.7607C43.9095 53.5801 44.8408 52.6488 44.8408 51.5C44.8408 50.3512 43.9095 49.4199 42.7607 49.4199Z" fill="#D4D4D5"/>
<path d="M42.7607 69.3193H26.1201C24.9714 69.3193 24.04 70.2507 24.04 71.3994C24.04 72.5482 24.9714 73.4795 26.1201 73.4795H42.7607C43.9095 73.4795 44.8408 72.5482 44.8408 71.3994C44.8408 70.2507 43.9095 69.3193 42.7607 69.3193Z" fill="#D4D4D5"/>
<path d="M39 86.3429C39.0242 86.2948 39.4834 86.4391 40.3053 86.7275C40.7403 86.8717 41.2479 87.0881 41.8522 87.2803C42.4807 87.4566 43.1978 87.6569 44.0035 87.8813C44.8253 88.1217 45.7438 88.2659 46.7348 88.4822C47.75 88.6986 48.8619 88.7947 50.0222 88.963C52.391 89.1553 55.1223 89.3235 58.0954 89.0351C61.0927 88.7947 64.3316 88.2659 67.6915 87.2083C71.0513 86.1506 74.5078 84.6122 77.7226 82.3767C78.1335 82.1364 78.5203 81.8239 78.907 81.5114C79.2937 81.1909 79.6805 80.8784 80.0672 80.5739C80.8407 79.9249 81.5417 79.1798 82.291 78.4827C82.9678 77.7375 83.6204 76.9202 84.2972 76.1511C84.9257 75.2857 85.5541 74.4444 86.1584 73.555C88.4789 69.9975 90.3401 65.9111 91.4761 61.5363C92.6122 57.1855 93.0231 52.7386 92.6605 48.484C92.3221 44.2534 91.2586 40.2392 89.6391 36.6576C89.204 35.7923 88.7448 34.9269 88.3097 34.0856L87.9713 33.4606L87.5845 32.8597C87.3267 32.4591 87.0769 32.0665 86.8352 31.6819C86.5774 31.2973 86.3196 30.9127 86.0617 30.5281C85.82 30.1435 85.5058 29.8069 85.2399 29.4464C84.7081 28.7253 84.1039 28.0522 83.5479 27.3792C81.2275 24.7591 78.6895 22.6678 76.224 20.9852C71.293 17.596 66.6279 15.9614 63.389 15.1201C60.15 14.3028 58.2646 14.1346 58.2888 14.0144C58.2888 13.9903 58.748 13.9903 59.6424 14.0624C60.0936 14.0945 60.6415 14.1586 61.286 14.2548C61.6083 14.3189 61.9548 14.3749 62.3254 14.423C62.696 14.5031 63.0908 14.5833 63.5098 14.6634C65.1776 15.0239 67.1839 15.5768 69.4318 16.4662C71.6797 17.3556 74.1694 18.5815 76.7316 20.2641C79.2696 21.9467 81.8801 24.062 84.2972 26.7061C84.9015 27.3792 85.5058 28.0522 86.0617 28.7974C86.3518 29.1579 86.666 29.5185 86.9319 29.9031C87.1897 30.3037 87.4556 30.6963 87.7296 31.0809C87.9874 31.4816 88.2533 31.8822 88.5272 32.2828L88.9381 32.9078L89.2765 33.5568C89.7358 34.4221 90.2192 35.2875 90.6785 36.2009C92.3705 39.8546 93.5065 44.0131 93.8691 48.3879C94.2317 52.7627 93.8449 57.3538 92.6605 61.8488C91.4761 66.3678 89.5908 70.5503 87.1494 74.2281C86.5452 75.1174 85.8684 75.9828 85.2399 76.8722C84.5389 77.6894 83.838 78.5067 83.137 79.2999C82.3635 80.0211 81.6384 80.7903 80.8165 81.4393C80.4137 81.7598 80.0108 82.0803 79.608 82.4008C79.1971 82.7133 78.8103 83.0498 78.3752 83.3142C75.0154 85.5977 71.438 87.1361 68.0057 88.1938C64.5492 89.2034 61.2135 89.6841 58.1679 89.9004C55.1223 90.1408 52.3426 89.9004 49.9496 89.6601C48.7653 89.4437 47.6292 89.2995 46.614 89.0591C45.623 88.7947 44.6803 88.6264 43.8826 88.338C43.0769 88.0656 42.3598 87.8252 41.7314 87.6169C41.1271 87.4005 40.6195 87.1361 40.2327 86.9679C39.4109 86.5833 39 86.367 39 86.3429Z" fill="#FFCB66" fill-opacity="0.15"/>
<path d="M56.5365 58.3971C54.2884 58.3971 52.4658 59.8485 52.4658 61.6389C52.4658 63.4292 54.2882 64.8804 56.5365 64.8804C58.7847 64.8804 60.6073 63.4291 60.6073 61.6389C60.6073 59.8486 58.7847 58.3971 56.5365 58.3971Z" fill="#CBF147"/>
<path d="M78.601 58.3971C76.3528 58.3971 74.5303 59.8485 74.5303 61.6389C74.5303 63.4292 76.3528 64.8804 78.601 64.8804C80.8491 64.8804 82.6717 63.4291 82.6717 61.6389C82.6717 59.8486 80.8491 58.3971 78.601 58.3971Z" fill="#CBF147"/>
<path d="M93.9997 32.2741C93.9997 28.3404 91.0541 25.0838 87.2531 24.5885C87.1404 23.2362 86.7337 21.918 86.0565 20.737C85.7734 20.2388 85.1342 20.0648 84.6379 20.3501C84.1409 20.6329 83.9658 21.2688 84.2512 21.77C84.8752 22.8613 85.2066 24.1038 85.2066 25.3604V77.6397C85.2066 81.6229 81.9453 84.9199 77.9263 84.9199H42.8672C42.2931 84.9199 41.8271 85.3857 41.8271 85.96C41.8271 86.5327 42.2931 87 42.8672 87H77.9276C82.9833 87 87.2128 82.9145 87.2846 77.7703C91.0703 77.2611 93.9998 74.0114 93.9998 70.0884C93.9996 65.7815 93.9997 38.194 93.9997 32.2741ZM87.2866 52.4682C89.1057 52.223 90.7262 51.3457 91.9193 50.0639V50.3121L91.9187 57.4377C91.9187 60.2101 89.9191 62.5229 87.2866 63.0134V52.4682ZM91.9196 70.0886C91.9196 72.8614 89.9195 75.1744 87.2866 75.6646V65.119C89.1058 64.8737 90.7264 63.996 91.9196 62.7139V70.0886ZM91.9196 44.7868C91.9196 47.5596 89.9195 49.8726 87.2866 50.3628V26.6983C89.9195 27.1885 91.9196 29.5014 91.9196 32.2741V44.7868Z" fill="black"/>
<path d="M38.7074 84.9199H36.5205C32.5237 84.9199 29.2402 81.651 29.2402 77.6396V74.5195H36.184C37.3783 77.0352 39.9339 78.6797 42.7607 78.6797C46.775 78.6797 50.041 75.4137 50.041 71.3994C50.041 67.3851 46.775 64.1191 42.7607 64.1191C39.9336 64.1191 37.3782 65.7636 36.184 68.2793H29.2402V54.6201H36.1837C37.346 57.0667 39.8378 58.7776 42.7607 58.7803C46.7743 58.7803 50.041 55.5276 50.041 51.5C50.041 47.4784 46.7808 44.2197 42.7607 44.2197C39.8581 44.2197 37.351 45.9182 36.1833 48.3799H29.2402V34.7207H36.184C37.3783 37.2363 39.9339 38.8809 42.7607 38.8809C46.775 38.8809 50.041 35.6149 50.041 31.6006C50.041 27.5863 46.775 24.3203 42.7607 24.3203C39.9336 24.3203 37.3782 25.9648 36.184 28.4805H29.2402V25.3604C29.2402 21.363 32.5091 18.0801 36.5205 18.0801H77.9265C79.2772 18.0801 80.5987 18.4585 81.7483 19.1728C82.2304 19.4725 82.8726 19.3324 83.1808 18.8386C83.4833 18.3505 83.3335 17.7084 82.8466 17.4061L82.8452 17.4047C81.3684 16.4854 79.6681 16 77.9279 16H36.5233C36.5219 16 36.5219 16 36.5205 16C31.3633 16.004 27.1642 20.2031 27.1602 25.3604V28.4805H26.1201C24.3998 28.4805 23 29.8802 23 31.6006C23 33.3209 24.3998 34.7207 26.1201 34.7207H27.1602V48.3799H26.1201C24.3998 48.3799 23 49.7796 23 51.5C23 53.2204 24.3998 54.6201 26.1201 54.6201H27.1602V68.2793H26.1201C24.3998 68.2793 23 69.6791 23 71.3994C23 73.1198 24.3998 74.5195 26.1201 74.5195H27.1602V77.6396C27.1642 82.7967 31.3633 86.9958 36.5205 87H38.7074C39.2801 87 39.7474 86.5327 39.7474 85.96C39.7474 85.3872 39.2799 84.9199 38.7074 84.9199ZM42.7607 66.1992C45.6282 66.1992 47.9609 68.532 47.9609 71.3994C47.9609 74.2669 45.6282 76.5996 42.7607 76.5996C41.0983 76.5996 39.5673 75.8034 38.6018 74.5195H42.7607C44.4811 74.5195 45.8809 73.1198 45.8809 71.3994C45.8809 69.6791 44.4811 68.2793 42.7607 68.2793H38.6017C39.5671 66.9955 41.0983 66.1992 42.7607 66.1992ZM42.7566 46.2998H42.7607C45.6179 46.2998 47.9609 48.6102 47.9609 51.5C47.9609 54.3632 45.6448 56.7002 42.7607 56.7002H42.7566C41.0977 56.7002 39.5681 55.9038 38.6024 54.6201H42.7607C44.4811 54.6201 45.8809 53.2204 45.8809 51.5C45.8809 49.7796 44.4811 48.3799 42.7607 48.3799H38.6023C39.5675 47.0962 41.0965 46.2998 42.7566 46.2998ZM42.7607 26.4004C45.6282 26.4004 47.9609 28.7331 47.9609 31.6006C47.9609 34.468 45.6282 36.8008 42.7607 36.8008C41.0983 36.8008 39.5673 36.0045 38.6018 34.7207H42.7607C44.4811 34.7207 45.8809 33.3209 45.8809 31.6006C45.8809 29.8802 44.4811 28.4805 42.7607 28.4805H38.6017C39.5671 27.1966 41.0983 26.4004 42.7607 26.4004ZM26.1201 32.6406C25.5466 32.6406 25.0801 32.1741 25.0801 31.6006C25.0801 31.027 25.5466 30.5605 26.1201 30.5605H42.7607C43.3343 30.5605 43.8008 31.027 43.8008 31.6006C43.8008 32.1741 43.3343 32.6406 42.7607 32.6406H26.1201ZM26.1201 52.54C25.5466 52.54 25.0801 52.0735 25.0801 51.5C25.0801 50.9265 25.5466 50.46 26.1201 50.46H42.7607C43.3343 50.46 43.8008 50.9265 43.8008 51.5C43.8008 52.0735 43.3343 52.54 42.7607 52.54H26.1201ZM28.2002 72.4381C28.1912 72.4381 28.1824 72.4392 28.1736 72.4395H26.1201C25.5466 72.4395 25.0801 71.973 25.0801 71.3994C25.0801 70.8259 25.5466 70.3594 26.1201 70.3594H42.7607C43.3343 70.3594 43.8008 70.8259 43.8008 71.3994C43.8008 71.973 43.3343 72.4395 42.7607 72.4395H28.227C28.2179 72.4393 28.2092 72.4381 28.2002 72.4381Z" fill="black"/>
</g>
<path d="M15.9171 19.2518L12.2378 16.9765C11.2211 16.3477 10.9071 15.016 11.536 13.9994C12.1648 12.9828 13.4964 12.6687 14.5131 13.2976L18.192 15.5728C19.2087 16.2016 19.5227 17.5333 18.8938 18.5499C18.265 19.5665 16.9336 19.8805 15.9171 19.2518Z" fill="#CBF147"/>
<path d="M6.05517 32.2261C6.09111 31.0314 7.08842 30.0935 8.28302 30.1295L12.6076 30.261C13.7962 30.2907 14.7383 31.2932 14.7042 32.4889C14.6682 33.6836 13.6709 34.6215 12.4763 34.5855L8.15179 34.454C6.96499 34.4184 6.02035 33.4276 6.05517 32.2261Z" fill="#CBF147"/>
<path d="M26.5648 7.69375L24.5155 3.88333C23.9496 2.83045 24.3433 1.51939 25.3962 0.953573C26.4498 0.390707 27.7605 0.776749 28.326 1.8343L30.3753 5.64472C30.9411 6.6976 30.5474 8.00867 29.4945 8.57448C28.4352 9.14181 27.1268 8.73937 26.5648 7.69375Z" fill="#CBF147"/>
<path d="M114.333 58.6667C116.174 58.6667 117.667 57.1743 117.667 55.3333C117.667 53.4924 116.174 52 114.333 52C112.492 52 111 53.4924 111 55.3333C111 57.1743 112.492 58.6667 114.333 58.6667Z" fill="#FFCB66"/>
<path d="M88.2222 94.4444C89.4495 94.4444 90.4444 93.4495 90.4444 92.2222C90.4444 90.9949 89.4495 90 88.2222 90C86.9949 90 86 90.9949 86 92.2222C86 93.4495 86.9949 94.4444 88.2222 94.4444Z" fill="#FFCB66"/>
<defs>
<clipPath id="clip0_2_3131">
<rect width="71" height="71" fill="white" transform="translate(23 16)"/>
</clipPath>
</defs>
</svg>
