<svg width="117" height="119" viewBox="0 0 117 119" fill="none" xmlns="http://www.w3.org/2000/svg">
<path d="M58.5827 89.5568C56.6019 89.5495 54.7046 88.759 53.3051 87.3581C51.9055 85.9571 51.1175 84.0595 51.1131 82.0797V66.5576L37.3399 73.7425C36.2012 74.3365 34.9285 74.6271 33.6447 74.5862C32.3609 74.5453 31.1094 74.1743 30.0108 73.509C28.9123 72.8437 28.004 71.9066 27.3734 70.7881C26.7429 69.6696 26.4115 68.4075 26.4112 67.1237V13.0471L26.3317 0.653076L54.1446 0.847311V61.5594L76.6829 49.8036L91.1094 72.6233L62.2064 88.6134C61.0982 89.2303 59.8511 89.555 58.5827 89.5568V89.5568ZM54.1409 64.9779V82.0797C54.1411 82.8519 54.3427 83.6108 54.726 84.2813C55.1093 84.9518 55.6609 85.5107 56.3264 85.903C56.9919 86.2953 57.7482 86.5072 58.5207 86.518C59.2932 86.5288 60.0552 86.338 60.7314 85.9644L86.8268 71.5356L75.6058 53.7881L54.1409 64.9779ZM29.3817 3.70903L29.4428 13.036V67.1237C29.4432 67.8865 29.6403 68.6364 30.015 69.3009C30.3897 69.9655 30.9294 70.5223 31.5821 70.9177C32.2347 71.3131 32.9783 71.5338 33.7411 71.5584C34.5039 71.583 35.2602 71.4108 35.937 71.0583L51.1131 63.141V3.86071L29.3817 3.70903Z" fill="#CBF147"/>
<path d="M45.8736 83.404C43.8923 83.3977 41.9941 82.6073 40.5943 81.2057C39.1945 79.8041 38.407 77.9055 38.4041 75.9251V3.2688H41.4356V75.9251C41.437 76.6955 41.6389 77.4522 42.0215 78.1209C42.4041 78.7897 42.9542 79.3474 43.6177 79.7393C44.2813 80.1312 45.0355 80.3438 45.8061 80.3561C46.5767 80.3685 47.3373 80.1802 48.0131 79.8098L82.1334 61.0857L83.5918 63.742L49.4715 82.4717C48.37 83.0806 47.1324 83.4014 45.8736 83.404V83.404Z" fill="#CBF147"/>
<path d="M0.94696 104.18H5.16849V114.472H11.7553V117.834H0.94696V104.18Z" fill="white"/>
<path d="M13.8447 104.18H18.0755V117.834H13.8447V104.18Z" fill="white"/>
<path d="M19.7634 104.18H24.1756L27.2497 114.006L30.2867 104.18H34.5693L29.4983 117.834H24.9214L19.7634 104.18Z" fill="white"/>
<path d="M35.9407 104.18H47.2524V107.095H40.1715V109.265H46.7398V112.049H40.1715V114.742H47.4579V117.834H35.9407V104.18Z" fill="white"/>
<path d="M59.408 117.796H49.0791V104.378H52.2253V115.075H59.408V117.796Z" fill="white"/>
<path d="M64.0701 104.378V117.796H60.9238V104.378H64.0701Z" fill="white"/>
<path d="M77.9377 104.378V117.796H74.5694L68.9525 108.864V117.796H65.8063V104.378H69.1746L74.7915 113.311V104.378H77.9377Z" fill="white"/>
<path d="M90.1377 117.796H79.6663V104.378H89.9952V107.099H82.8144V109.535H89.5362V112.256H82.8144V115.075H90.1377V117.796Z" fill="white"/>
<path d="M103.565 113.522C103.565 116.742 101.318 118.067 97.2372 118.067C92.8565 118.067 91.0057 116.359 91.0057 113.425H94.3371C94.3371 114.922 95.888 115.362 97.4537 115.362C99.1619 115.362 100.111 114.94 100.111 114.039C100.111 112.93 98.7344 112.985 95.714 112.352C92.9379 111.777 91.2722 111.106 91.2722 108.401C91.2722 105.697 93.0601 104.087 97.0466 104.087C101.427 104.087 102.852 106.045 102.852 108.459H99.6265C99.6265 107.558 98.7418 106.794 97.0169 106.794C95.1347 106.794 94.4074 107.273 94.4074 108.116C94.4074 109.248 96.099 109.324 97.9812 109.611C100.781 110.072 103.565 110.147 103.565 113.522Z" fill="white"/>
<path d="M116.827 113.522C116.827 116.742 114.58 118.067 110.499 118.067C106.119 118.067 104.268 116.359 104.268 113.425H107.599C107.599 114.922 109.15 115.362 110.716 115.362C112.424 115.362 113.374 114.94 113.374 114.039C113.374 112.93 111.997 112.985 108.976 112.352C106.2 111.777 104.535 111.106 104.535 108.401C104.535 105.697 106.322 104.087 110.309 104.087C114.69 104.087 116.115 106.045 116.115 108.459H112.889C112.889 107.558 112.004 106.794 110.279 106.794C108.397 106.794 107.67 107.273 107.67 108.116C107.67 109.248 109.361 109.324 111.243 109.611C114.044 110.072 116.827 110.147 116.827 113.522Z" fill="white"/>
</svg>
