<svg width="155" height="141" viewBox="0 0 155 141" fill="none" xmlns="http://www.w3.org/2000/svg">
<path d="M77.251 88.9037C75.2703 88.8964 73.3729 88.106 71.9734 86.705C70.5738 85.304 69.7858 83.4064 69.7814 81.4267V65.9046L56.0082 73.0894C54.8695 73.6834 53.5969 73.974 52.3131 73.9332C51.0293 73.8923 49.7777 73.5213 48.6792 72.856C47.5807 72.1907 46.6723 71.2535 46.0418 70.135C45.4112 69.0165 45.0798 67.7545 45.0796 66.4706V12.394L45 0L72.8129 0.194235V60.9063L95.3512 49.1505L109.778 71.9702L80.8748 87.9603C79.7666 88.5772 78.5195 88.9019 77.251 88.9037ZM72.8092 64.3248V81.4267C72.8094 82.1989 73.0111 82.9577 73.3943 83.6282C73.7776 84.2987 74.3292 84.8577 74.9947 85.2499C75.6602 85.6422 76.4165 85.8542 77.1891 85.8649C77.9616 85.8757 78.7235 85.6849 79.3997 85.3113L105.495 70.8825L94.2741 53.1351L72.8092 64.3248ZM48.05 3.05595L48.1111 12.3829V66.4706C48.1115 67.2335 48.3086 67.9833 48.6833 68.6478C49.0581 69.3124 49.5978 69.8692 50.2504 70.2646C50.9031 70.66 51.6467 70.8807 52.4094 70.9053C53.1722 70.93 53.9285 70.7577 54.6053 70.4053L69.7814 62.4879V3.20764L48.05 3.05595Z" fill="#CBF147"/>
<path d="M64.542 82.7509C62.5606 82.7446 60.6624 81.9542 59.2626 80.5526C57.8628 79.1511 57.0753 77.2524 57.0724 75.272V2.61572H60.1039V75.272C60.1053 76.0424 60.3072 76.7991 60.6898 77.4679C61.0724 78.1366 61.6225 78.6943 62.2861 79.0862C62.9496 79.4781 63.7038 79.6907 64.4744 79.703C65.2451 79.7154 66.0056 79.5271 66.6814 79.1567L100.802 60.4326L102.26 63.089L68.1398 81.8186C67.0383 82.4276 65.8007 82.7483 64.542 82.7509Z" fill="#CBF147"/>
<path d="M2.4 134.904V104.904H7.28V134.904H2.4ZM11.4875 114.904H16.3675V134.904H11.4875V114.904ZM13.9675 112.324C13.2475 112.324 12.6408 112.09 12.1475 111.624C11.6542 111.144 11.4075 110.544 11.4075 109.824C11.4075 109.117 11.6542 108.524 12.1475 108.044C12.6408 107.564 13.2408 107.324 13.9475 107.324C14.6542 107.324 15.2475 107.564 15.7275 108.044C16.2208 108.524 16.4675 109.117 16.4675 109.824C16.4675 110.544 16.2275 111.144 15.7475 111.624C15.2675 112.09 14.6742 112.324 13.9675 112.324ZM32.33 134.904H26.03L18.75 114.884H23.95L29.19 129.284L34.41 114.884H39.61L32.33 134.904ZM49.9859 135.424C48.1459 135.424 46.4659 134.95 44.9459 134.004C43.4393 133.057 42.2326 131.784 41.3259 130.184C40.4326 128.584 39.9859 126.817 39.9859 124.884C39.9859 123.43 40.2459 122.07 40.7659 120.804C41.2859 119.524 41.9993 118.404 42.9059 117.444C43.8259 116.47 44.8926 115.71 46.1059 115.164C47.3193 114.617 48.6126 114.344 49.9859 114.344C51.5459 114.344 52.9726 114.677 54.2659 115.344C55.5726 115.997 56.6793 116.897 57.5859 118.044C58.4926 119.19 59.1526 120.497 59.5659 121.964C59.9793 123.43 60.0726 124.964 59.8459 126.564H45.2259C45.4126 127.31 45.7193 127.984 46.1459 128.584C46.5726 129.17 47.1126 129.644 47.7659 130.004C48.4193 130.35 49.1593 130.53 49.9859 130.544C50.8393 130.557 51.6126 130.357 52.3059 129.944C53.0126 129.517 53.5993 128.944 54.0659 128.224L59.0459 129.384C58.2326 131.157 57.0193 132.61 55.4059 133.744C53.7926 134.864 51.9859 135.424 49.9859 135.424ZM45.0659 122.904H54.9059C54.7593 122.104 54.4459 121.384 53.9659 120.744C53.4993 120.09 52.9193 119.57 52.2259 119.184C51.5326 118.797 50.7859 118.604 49.9859 118.604C49.1859 118.604 48.4459 118.797 47.7659 119.184C47.0859 119.557 46.5059 120.07 46.0259 120.724C45.5593 121.364 45.2393 122.09 45.0659 122.904ZM62.1875 134.904V104.904H67.0675V134.904H62.1875ZM71.275 114.904H76.155V134.904H71.275V114.904ZM73.755 112.324C73.035 112.324 72.4283 112.09 71.935 111.624C71.4417 111.144 71.195 110.544 71.195 109.824C71.195 109.117 71.4417 108.524 71.935 108.044C72.4283 107.564 73.0283 107.324 73.735 107.324C74.4417 107.324 75.035 107.564 75.515 108.044C76.0083 108.524 76.255 109.117 76.255 109.824C76.255 110.544 76.015 111.144 75.535 111.624C75.055 112.09 74.4617 112.324 73.755 112.324ZM98.5263 122.264V134.904H93.6463V123.544C93.6463 122.757 93.4529 122.044 93.0663 121.404C92.6796 120.75 92.1596 120.237 91.5063 119.864C90.8663 119.477 90.1529 119.284 89.3663 119.284C88.5796 119.284 87.8596 119.477 87.2063 119.864C86.5663 120.237 86.0529 120.75 85.6663 121.404C85.2929 122.044 85.1063 122.757 85.1063 123.544V134.904H80.2263L80.2063 114.904H85.0863L85.1063 116.684C85.7863 115.964 86.5996 115.397 87.5463 114.984C88.4929 114.557 89.5129 114.344 90.6063 114.344C92.0596 114.344 93.3863 114.704 94.5863 115.424C95.7863 116.13 96.7396 117.084 97.4463 118.284C98.1663 119.47 98.5263 120.797 98.5263 122.264ZM110.32 135.424C108.48 135.424 106.8 134.95 105.28 134.004C103.774 133.057 102.567 131.784 101.66 130.184C100.767 128.584 100.32 126.817 100.32 124.884C100.32 123.43 100.58 122.07 101.1 120.804C101.62 119.524 102.334 118.404 103.24 117.444C104.16 116.47 105.227 115.71 106.44 115.164C107.654 114.617 108.947 114.344 110.32 114.344C111.88 114.344 113.307 114.677 114.6 115.344C115.907 115.997 117.014 116.897 117.92 118.044C118.827 119.19 119.487 120.497 119.9 121.964C120.314 123.43 120.407 124.964 120.18 126.564H105.56C105.747 127.31 106.054 127.984 106.48 128.584C106.907 129.17 107.447 129.644 108.1 130.004C108.754 130.35 109.494 130.53 110.32 130.544C111.174 130.557 111.947 130.357 112.64 129.944C113.347 129.517 113.934 128.944 114.4 128.224L119.38 129.384C118.567 131.157 117.354 132.61 115.74 133.744C114.127 134.864 112.32 135.424 110.32 135.424ZM105.4 122.904H115.24C115.094 122.104 114.78 121.384 114.3 120.744C113.834 120.09 113.254 119.57 112.56 119.184C111.867 118.797 111.12 118.604 110.32 118.604C109.52 118.604 108.78 118.797 108.1 119.184C107.42 119.557 106.84 120.07 106.36 120.724C105.894 121.364 105.574 122.09 105.4 122.904ZM128.891 135.264C127.851 135.197 126.844 134.99 125.871 134.644C124.911 134.284 124.057 133.797 123.311 133.184C122.564 132.57 121.991 131.837 121.591 130.984L125.711 129.224C125.871 129.49 126.131 129.777 126.491 130.084C126.851 130.377 127.277 130.624 127.771 130.824C128.277 131.024 128.831 131.124 129.431 131.124C129.937 131.124 130.417 131.057 130.871 130.924C131.337 130.777 131.711 130.557 131.991 130.264C132.284 129.97 132.431 129.59 132.431 129.124C132.431 128.63 132.257 128.25 131.911 127.984C131.577 127.704 131.151 127.497 130.631 127.364C130.124 127.217 129.631 127.084 129.151 126.964C127.884 126.71 126.704 126.317 125.611 125.784C124.531 125.25 123.657 124.564 122.991 123.724C122.337 122.87 122.011 121.844 122.011 120.644C122.011 119.324 122.357 118.184 123.051 117.224C123.757 116.264 124.671 115.524 125.791 115.004C126.924 114.484 128.144 114.224 129.451 114.224C131.037 114.224 132.491 114.557 133.811 115.224C135.144 115.877 136.197 116.804 136.971 118.004L133.111 120.284C132.924 119.964 132.664 119.67 132.331 119.404C131.997 119.124 131.617 118.897 131.191 118.724C130.764 118.537 130.317 118.43 129.851 118.404C129.251 118.377 128.704 118.43 128.211 118.564C127.717 118.697 127.317 118.924 127.011 119.244C126.717 119.564 126.571 119.99 126.571 120.524C126.571 121.03 126.771 121.41 127.171 121.664C127.571 121.904 128.051 122.09 128.611 122.224C129.184 122.357 129.731 122.504 130.251 122.664C131.424 123.05 132.524 123.524 133.551 124.084C134.591 124.644 135.424 125.33 136.051 126.144C136.677 126.957 136.977 127.93 136.951 129.064C136.951 130.357 136.564 131.49 135.791 132.464C135.017 133.424 134.017 134.157 132.791 134.664C131.577 135.17 130.277 135.37 128.891 135.264ZM145.673 135.264C144.633 135.197 143.627 134.99 142.653 134.644C141.693 134.284 140.84 133.797 140.093 133.184C139.347 132.57 138.773 131.837 138.373 130.984L142.493 129.224C142.653 129.49 142.913 129.777 143.273 130.084C143.633 130.377 144.06 130.624 144.553 130.824C145.06 131.024 145.613 131.124 146.213 131.124C146.72 131.124 147.2 131.057 147.653 130.924C148.12 130.777 148.493 130.557 148.773 130.264C149.067 129.97 149.213 129.59 149.213 129.124C149.213 128.63 149.04 128.25 148.693 127.984C148.36 127.704 147.933 127.497 147.413 127.364C146.907 127.217 146.413 127.084 145.933 126.964C144.667 126.71 143.487 126.317 142.393 125.784C141.313 125.25 140.44 124.564 139.773 123.724C139.12 122.87 138.793 121.844 138.793 120.644C138.793 119.324 139.14 118.184 139.833 117.224C140.54 116.264 141.453 115.524 142.573 115.004C143.707 114.484 144.927 114.224 146.233 114.224C147.82 114.224 149.273 114.557 150.593 115.224C151.927 115.877 152.98 116.804 153.753 118.004L149.893 120.284C149.707 119.964 149.447 119.67 149.113 119.404C148.78 119.124 148.4 118.897 147.973 118.724C147.547 118.537 147.1 118.43 146.633 118.404C146.033 118.377 145.487 118.43 144.993 118.564C144.5 118.697 144.1 118.924 143.793 119.244C143.5 119.564 143.353 119.99 143.353 120.524C143.353 121.03 143.553 121.41 143.953 121.664C144.353 121.904 144.833 122.09 145.393 122.224C145.967 122.357 146.513 122.504 147.033 122.664C148.207 123.05 149.307 123.524 150.333 124.084C151.373 124.644 152.207 125.33 152.833 126.144C153.46 126.957 153.76 127.93 153.733 129.064C153.733 130.357 153.347 131.49 152.573 132.464C151.8 133.424 150.8 134.157 149.573 134.664C148.36 135.17 147.06 135.37 145.673 135.264Z" fill="#CBF147"/>
</svg>
