<svg width="375" height="812" viewBox="0 0 375 812" fill="none" xmlns="http://www.w3.org/2000/svg">
<g clip-path="url(#clip0_163_4325)">
<rect width="375" height="812" fill="#141318"/>
<path d="M375.774 94.6073V-112.663H165.275C165.275 1.79595 259.602 94.6073 375.774 94.6073Z" fill="#CBF147"/>
<path d="M-48 95.3941C68.7318 95.3941 163.386 2.13555 163.386 -113H-48V95.3941Z" fill="#312F3A"/>
<path d="M-47.9205 94.6057H162.452C162.452 209.065 68.2516 302 -47.9205 302V94.6057Z" fill="#CBF147"/>
<path d="M167.13 302.063H377.629V94.668C261.457 94.668 167.13 187.604 167.13 302.063Z" fill="#CBF147"/>
<path d="M377.629 509.332V302.062H167.13C167.13 416.521 261.457 509.332 377.629 509.332Z" fill="#CBF147"/>
<path d="M273.453 302.062H377.629V199.422C320.048 199.422 273.453 245.33 273.453 302.062Z" fill="#1D212C"/>
<path d="M377.629 404.701V302.062H273.453C273.453 358.793 320.048 404.701 377.629 404.701Z" fill="#312F3A"/>
<path d="M-45.0956 509.27H165.277V302C49.1047 302 -45.0956 394.811 -45.0956 509.27Z" fill="#CBF147"/>
<path d="M-46.2825 716.901H165.104V508.507C48.3717 508.507 -46.2825 601.765 -46.2825 716.901Z" fill="#CBF147"/>
<path d="M165.102 716.901H376.615C376.615 601.765 281.961 508.507 165.102 508.507V716.901Z" fill="#312F3A"/>
<path d="M165.102 716.901H376.615C376.615 601.765 281.961 508.507 165.102 508.507V716.901Z" fill="#312F3A"/>
<path d="M32.3846 716.901H165.104V586.014C91.7655 586.014 32.3846 644.644 32.3846 716.901Z" fill="#CBF147"/>
<path d="M165.102 716.901H297.948C297.948 644.644 238.44 586.014 165.102 586.014V716.901Z" fill="#CBF147"/>
</g>
<defs>
<clipPath id="clip0_163_4325">
<rect width="375" height="812" fill="white"/>
</clipPath>
</defs>
</svg>
