<svg width="375" height="812" viewBox="0 0 375 812" fill="none" xmlns="http://www.w3.org/2000/svg">
<g clip-path="url(#clip0_163_3078)">
<rect width="375" height="812" fill="#141318"/>
<path d="M376.686 127.539V-56.7002H189.577C189.577 45.0406 273.423 127.539 376.686 127.539Z" fill="#CBF147"/>
<path d="M-7.62939e-05 128.238C103.761 128.238 187.898 45.3421 187.898 -57H-7.62939e-05V128.238Z" fill="#312F3A"/>
<path d="M0.0705109 127.537H187.067C187.067 229.278 103.334 311.887 0.0705109 311.887V127.537Z" fill="#CBF147"/>
<path d="M191.226 311.943H378.335V127.593C275.071 127.593 191.226 210.202 191.226 311.943Z" fill="#CBF147"/>
<path d="M378.335 496.181V311.941H191.226C191.226 413.682 275.071 496.181 378.335 496.181Z" fill="#CBF147"/>
<path d="M285.734 311.942H378.335V220.707C327.152 220.707 285.734 261.514 285.734 311.942Z" fill="#1D212C"/>
<path d="M378.335 403.176V311.941H285.734C285.734 362.369 327.152 403.176 378.335 403.176Z" fill="#312F3A"/>
<path d="M2.58162 496.126H189.578V311.886C86.3148 311.886 2.58162 394.385 2.58162 496.126Z" fill="#CBF147"/>
<path d="M1.52663 680.686H189.424V495.448C85.6632 495.448 1.52663 578.344 1.52663 680.686Z" fill="#CBF147"/>
<path d="M189.423 680.686H377.434C377.434 578.344 293.297 495.448 189.423 495.448V680.686Z" fill="#312F3A"/>
<path d="M189.423 680.686H377.434C377.434 578.344 293.297 495.448 189.423 495.448V680.686Z" fill="#312F3A"/>
<path d="M71.4525 680.686H189.424V564.342C124.235 564.342 71.4525 616.458 71.4525 680.686Z" fill="#CBF147"/>
<path d="M189.423 680.686H307.508C307.508 616.458 254.612 564.342 189.423 564.342V680.686Z" fill="#CBF147"/>
</g>
<defs>
<clipPath id="clip0_163_3078">
<rect width="375" height="812" fill="white"/>
</clipPath>
</defs>
</svg>
