<svg width="375" height="812" viewBox="0 0 375 812" fill="none" xmlns="http://www.w3.org/2000/svg">
<g clip-path="url(#clip0_163_3078)">
<rect width="375" height="812" fill="#141318"/>
<path d="M376.686 127.539V-56.7002H189.577C189.577 45.0406 273.423 127.539 376.686 127.539Z" fill="#CBF147"/>
<path d="M-7.16295e-05 128.238C103.761 128.238 187.898 45.3421 187.898 -57H-7.16295e-05V128.238Z" fill="#312F3A"/>
<path d="M0.0705123 127.537H187.067C187.067 229.278 103.334 311.887 0.0705123 311.887V127.537Z" fill="#CBF147"/>
<path d="M191.226 311.943H378.335V127.593C275.071 127.593 191.226 210.202 191.226 311.943Z" fill="#CBF147"/>
<path d="M378.335 492.181V307.941H191.226C191.226 409.682 275.071 492.181 378.335 492.181Z" fill="#CBF147"/>
<path d="M285.734 311.942H378.335V220.707C327.152 220.707 285.734 261.514 285.734 311.942Z" fill="#1D212C"/>
<path d="M378.335 401.176V309.941H285.734C285.734 360.369 327.152 401.176 378.335 401.176Z" fill="#312F3A"/>
</g>
<defs>
<clipPath id="clip0_163_3078">
<rect width="375" height="812" fill="white"/>
</clipPath>
</defs>
</svg>
