<svg width="375" height="812" viewBox="0 0 375 812" fill="none" xmlns="http://www.w3.org/2000/svg">
<g clip-path="url(#clip0_285_2882)">
<rect width="375" height="812" fill="#141318"/>
<path d="M-291.907 275.992V-52.9971H42.2058C42.2058 128.677 -107.514 275.992 -291.907 275.992Z" fill="#CBF147"/>
<path d="M42.2029 -52.9976C226.596 -52.9976 376.115 94.3167 376.115 275.991H42.2029V-52.9976Z" fill="#312F3A"/>
<path d="M376.116 275.989H42.2041C42.2041 457.664 191.723 605.175 376.116 605.175V275.989Z" fill="#CBF147"/>
<path d="M39.2625 605.274H-294.851V276.088C-110.457 276.088 39.2625 423.6 39.2625 605.274Z" fill="#312F3A"/>
<path d="M-294.851 934.261V605.272H39.2625C39.2625 786.946 -110.457 934.261 -294.851 934.261Z" fill="#CBF147"/>
<path d="M376.116 934.162H42.2041V605.173C226.597 605.173 376.116 752.488 376.116 934.162Z" fill="#312F3A"/>
</g>
<defs>
<clipPath id="clip0_285_2882">
<rect width="375" height="812" fill="white"/>
</clipPath>
</defs>
</svg>
