<svg width="16" height="16" viewBox="0 0 16 16" fill="none" xmlns="http://www.w3.org/2000/svg">
<path d="M1.2019 7.55138L5.64635 3.10694C5.7661 2.99128 5.92648 2.92729 6.09295 2.92873C6.25943 2.93018 6.41867 2.99696 6.53639 3.11467C6.65411 3.23239 6.72088 3.39164 6.72233 3.55811C6.72378 3.72459 6.65978 3.88497 6.54413 4.00472L3.18349 7.36535H14.3492C14.5176 7.36535 14.6791 7.43224 14.7982 7.55131C14.9172 7.67038 14.9841 7.83188 14.9841 8.00027C14.9841 8.16866 14.9172 8.33016 14.7982 8.44923C14.6791 8.5683 14.5176 8.63519 14.3492 8.63519H3.18349L6.54413 11.9958C6.60477 12.0544 6.65314 12.1245 6.68641 12.2019C6.71969 12.2794 6.7372 12.3627 6.73794 12.447C6.73867 12.5313 6.7226 12.6149 6.69068 12.6929C6.65875 12.771 6.61161 12.8419 6.552 12.9015C6.49238 12.9611 6.42149 13.0082 6.34346 13.0402C6.26543 13.0721 6.18183 13.0881 6.09752 13.0874C6.01322 13.0867 5.9299 13.0692 5.85244 13.0359C5.77498 13.0026 5.70492 12.9542 5.64635 12.8936L1.2019 8.44916C1.08287 8.33009 1.016 8.16863 1.016 8.00027C1.016 7.83191 1.08287 7.67045 1.2019 7.55138V7.55138Z" fill="white"/>
</svg>
