<svg width="24" height="24" viewBox="0 0 24 24" fill="none" xmlns="http://www.w3.org/2000/svg">
<path fill-rule="evenodd" clip-rule="evenodd" d="M11.6843 1.3667C5.77915 1.3667 1.00098 6.14529 1.00098 12.05C1.00098 17.9552 5.77956 22.7334 11.6843 22.7334C17.5895 22.7334 22.3677 17.9548 22.3677 12.05C22.3677 6.14487 17.589 1.3667 11.6843 1.3667ZM11.6843 21.0641C6.70184 21.0641 2.67025 17.0322 2.67025 12.05C2.67025 7.06756 6.70217 3.03597 11.6843 3.03597C16.6668 3.03597 20.6984 7.06789 20.6984 12.05C20.6984 17.0325 16.6664 21.0641 11.6843 21.0641ZM11.6843 10.3109C11.2234 10.3109 10.8497 10.6846 10.8497 11.1455V16.5203C10.8497 16.9813 11.2234 17.355 11.6843 17.355C12.1453 17.355 12.519 16.9812 12.519 16.5203V11.1455C12.519 10.6846 12.1453 10.3109 11.6843 10.3109ZM12.8111 8.1622C12.8111 8.78449 12.3066 9.28896 11.6843 9.28896C11.062 9.28896 10.5576 8.78449 10.5576 8.1622C10.5576 7.5399 11.062 7.03544 11.6843 7.03544C12.3066 7.03544 12.8111 7.5399 12.8111 8.1622Z" fill="#1D212C"/>
</svg>
