<svg width="16" height="16" viewBox="0 0 16 16" fill="none" xmlns="http://www.w3.org/2000/svg">
<path d="M14.7981 7.55138L10.3537 3.10694C10.2339 2.99128 10.0735 2.92729 9.90705 2.92873C9.74057 2.93018 9.58133 2.99696 9.46361 3.11467C9.34589 3.23239 9.27911 3.39164 9.27767 3.55811C9.27622 3.72459 9.34022 3.88497 9.45587 4.00472L12.8165 7.36535H1.65079C1.4824 7.36535 1.3209 7.43224 1.20183 7.55131C1.08276 7.67038 1.01587 7.83188 1.01587 8.00027C1.01587 8.16866 1.08276 8.33016 1.20183 8.44923C1.3209 8.5683 1.4824 8.63519 1.65079 8.63519H12.8165L9.45587 11.9958C9.39523 12.0544 9.34686 12.1245 9.31359 12.2019C9.28031 12.2794 9.2628 12.3627 9.26206 12.447C9.26133 12.5313 9.2774 12.6149 9.30932 12.6929C9.34125 12.771 9.38839 12.8419 9.448 12.9015C9.50762 12.9611 9.57851 13.0082 9.65654 13.0402C9.73457 13.0721 9.81817 13.0881 9.90248 13.0874C9.98678 13.0867 10.0701 13.0692 10.1476 13.0359C10.225 13.0026 10.2951 12.9542 10.3537 12.8936L14.7981 8.44916C14.9171 8.33009 14.984 8.16863 14.984 8.00027C14.984 7.83191 14.9171 7.67045 14.7981 7.55138Z" fill="white"/>
</svg>
