<svg width="20" height="20" viewBox="0 0 20 20" fill="none" xmlns="http://www.w3.org/2000/svg">
<path d="M10 0C4.48 0 0 4.48 0 10C0 15.52 4.48 20 10 20C15.52 20 20 15.52 20 10C20 4.48 15.52 0 10 0Z" fill="black"/>
<path d="M14.2392 5.76384C13.3295 4.85052 12.1501 4.25489 10.8757 4.06524C9.60126 3.87559 8.29971 4.10201 7.16395 4.71095C6.0282 5.31988 5.11868 6.27892 4.57022 7.44591C4.02176 8.61289 3.86355 9.92571 4.11904 11.1898C4.37452 12.4538 5.03011 13.6018 5.98862 14.4637C6.94714 15.3255 8.15756 15.8552 9.44047 15.9743C10.7234 16.0935 12.0105 15.7957 13.1111 15.1251C14.2116 14.4545 15.067 13.4468 15.5504 12.2513H13.887C13.4239 13.0701 12.7161 13.723 11.863 14.1182C11.0099 14.5133 10.0546 14.6309 9.13127 14.4543C8.20798 14.2778 7.36321 13.816 6.71574 13.1339C6.06828 12.4517 5.65071 11.5836 5.52175 10.6516C5.39279 9.71965 5.55892 8.77063 5.9968 7.93805C6.43467 7.10547 7.12225 6.43122 7.96285 6.01012C8.80344 5.58902 9.75476 5.44225 10.683 5.59045C11.6113 5.73866 12.4698 6.17438 13.1378 6.83634L10.7551 9.25134H16V4.00134L14.2392 5.76384Z" fill="#CBF147"/>
</svg>
