<svg width="16" height="16" viewBox="0 0 16 16" fill="none" xmlns="http://www.w3.org/2000/svg">
<g clip-path="url(#clip0_2_937)">
<path d="M14.3896 7.36775C13.9089 7.90728 13.4381 8.48849 13.1094 9.29037C12.9599 9.66067 12.6043 9.90101 12.2045 9.90101C11.8023 9.90101 11.4468 9.66067 11.2947 9.28794C10.9146 8.35602 10.3383 7.7209 9.77915 7.10781C9.63939 6.95332 9.49959 6.79881 9.36229 6.63941C9.35494 6.64187 9.34997 6.64433 9.34268 6.64676C8.79826 6.81105 8.37889 7.53204 8.63149 8.11816C8.80315 8.52033 10.0073 8.44433 9.90427 9.30998C9.81844 10.0187 10.7454 10.2051 11.074 10.1708C11.4026 10.1315 11.9078 10.7103 11.6527 10.9653C11.4002 11.2204 10.9219 11.2302 10.9955 11.8874C11.0151 12.0787 11.5939 12.0542 11.5939 12.3435C11.5939 12.6354 11.2948 12.9664 11.5252 13.3024C11.5743 13.376 11.6258 13.4324 11.6798 13.4765C10.5713 14.4967 9.09254 15.122 7.47154 15.122C4.04563 15.122 1.25977 12.3362 1.25977 8.91026C1.25977 7.8705 1.51729 6.88953 1.97096 6.02631C1.9685 7.14213 2.56443 8.06911 2.84398 8.34867C3.75624 9.25847 5.07807 8.97155 5.24725 9.73421C5.41891 10.4944 4.33988 10.4969 4.41102 11.0781C4.48456 11.6617 5.88976 11.8163 5.57588 12.3533C5.16142 13.0669 5.85543 13.1184 5.65436 13.9988C5.54647 14.4795 6.24045 14.5726 6.49797 14.2073C6.69415 13.9277 6.65491 13.5844 7.04974 13.165C7.53285 12.65 8.65358 12.5667 8.52848 11.7157C8.31515 10.3032 6.94184 10.0824 6.34346 9.75134C5.66417 9.3786 5.83094 8.48349 5.68377 8.0568C5.47779 7.45107 4.77886 8.22603 4.4061 7.87288C3.79303 7.29413 4.51645 6.47505 5.03143 6.49222C6.11781 6.52655 6.45133 7.58352 6.85104 7.54671C7.24098 7.51238 7.49358 6.96796 7.56223 6.6786C7.70694 6.04835 7.317 6.33037 7.16006 6.00174C6.94916 5.56279 7.90066 5.14344 8.26851 4.81973C8.32493 4.77068 8.3666 4.72409 8.38867 4.67993C8.49907 4.46414 8.35436 4.29983 8.10911 4.15023C7.61868 3.85348 6.72357 3.61808 6.68189 3.1546C6.65734 2.8701 7.20179 2.7328 7.82221 2.70827C7.92519 2.71319 8.02574 2.72299 8.12877 2.7328C8.18025 2.44095 8.26362 2.15402 8.37643 1.87938C8.0797 1.84014 7.77808 1.82051 7.47151 1.82051C3.56249 1.82051 0.381836 5.00116 0.381836 8.91019C0.38181 12.8193 3.56249 16 7.47151 16C11.3805 16 14.5612 12.8193 14.5612 8.91029C14.5612 8.38059 14.5024 7.86315 14.3896 7.36775ZM11.8709 0.0157482C9.86956 0.204925 8.49878 2.14419 8.84809 4.12393C9.20281 6.13494 11.057 6.75395 11.9771 9.01131C12.0601 9.21474 12.3465 9.21575 12.4293 9.0123C13.4494 6.50862 15.6182 6.02001 15.6182 3.41476C15.6182 1.41912 13.9063 -0.176644 11.8709 0.0157482ZM12.2034 5.21811C11.2075 5.21811 10.4001 4.41073 10.4001 3.41476C10.4001 2.41881 11.2075 1.61144 12.2034 1.61144C13.1994 1.61144 14.0068 2.41881 14.0068 3.41476C14.0068 4.41071 13.1994 5.21811 12.2034 5.21811Z" fill="black"/>
</g>
<defs>
<clipPath id="clip0_2_937">
<rect width="16" height="16" fill="white"/>
</clipPath>
</defs>
</svg>
