<svg width="22" height="24" viewBox="0 0 22 24" fill="none" xmlns="http://www.w3.org/2000/svg">
<mask id="path-1-outside-1_30024_3558" maskUnits="userSpaceOnUse" x="-0.500244" y="0" width="22" height="24" fill="black">
<rect fill="white" x="-0.500244" width="22" height="24"/>
<path fill-rule="evenodd" clip-rule="evenodd" d="M12.2168 15.2913C13.4208 15.2913 14.4008 16.2643 14.4008 17.4603V20.5363C14.4008 20.7933 14.6068 20.9993 14.8708 21.0053H16.7768C18.2788 21.0053 19.4998 19.7993 19.4998 18.3173V9.59325C19.4928 9.08325 19.2498 8.60325 18.8328 8.28425L12.2398 3.02625C11.3548 2.32525 10.1168 2.32525 9.22876 3.02825L2.68076 8.28225C2.24776 8.61125 2.00476 9.09125 1.99976 9.61025V18.3173C1.99976 19.7993 3.22076 21.0053 4.72276 21.0053H6.64676C6.91776 21.0053 7.13776 20.7903 7.13776 20.5263C7.13776 20.4683 7.14476 20.4103 7.15676 20.3553V17.4603C7.15676 16.2713 8.13076 15.2993 9.32576 15.2913H12.2168ZM16.7768 22.5053H14.8528C13.7508 22.4793 12.9008 21.6143 12.9008 20.5363V17.4603C12.9008 17.0913 12.5938 16.7913 12.2168 16.7913H9.33076C8.96176 16.7933 8.65676 17.0943 8.65676 17.4603V20.5263C8.65676 20.6013 8.64676 20.6733 8.62576 20.7413C8.51776 21.7313 7.67176 22.5053 6.64676 22.5053H4.72276C2.39376 22.5053 0.499756 20.6263 0.499756 18.3173V9.60325C0.509756 8.60925 0.967756 7.69925 1.75876 7.10025L8.29376 1.85525C9.73276 0.71525 11.7378 0.71525 13.1738 1.85325L19.7558 7.10325C20.5288 7.69225 20.9868 8.60025 20.9998 9.58225V18.3173C20.9998 20.6263 19.1058 22.5053 16.7768 22.5053Z"/>
</mask>
<path fill-rule="evenodd" clip-rule="evenodd" d="M12.2168 15.2913C13.4208 15.2913 14.4008 16.2643 14.4008 17.4603V20.5363C14.4008 20.7933 14.6068 20.9993 14.8708 21.0053H16.7768C18.2788 21.0053 19.4998 19.7993 19.4998 18.3173V9.59325C19.4928 9.08325 19.2498 8.60325 18.8328 8.28425L12.2398 3.02625C11.3548 2.32525 10.1168 2.32525 9.22876 3.02825L2.68076 8.28225C2.24776 8.61125 2.00476 9.09125 1.99976 9.61025V18.3173C1.99976 19.7993 3.22076 21.0053 4.72276 21.0053H6.64676C6.91776 21.0053 7.13776 20.7903 7.13776 20.5263C7.13776 20.4683 7.14476 20.4103 7.15676 20.3553V17.4603C7.15676 16.2713 8.13076 15.2993 9.32576 15.2913H12.2168ZM16.7768 22.5053H14.8528C13.7508 22.4793 12.9008 21.6143 12.9008 20.5363V17.4603C12.9008 17.0913 12.5938 16.7913 12.2168 16.7913H9.33076C8.96176 16.7933 8.65676 17.0943 8.65676 17.4603V20.5263C8.65676 20.6013 8.64676 20.6733 8.62576 20.7413C8.51776 21.7313 7.67176 22.5053 6.64676 22.5053H4.72276C2.39376 22.5053 0.499756 20.6263 0.499756 18.3173V9.60325C0.509756 8.60925 0.967756 7.69925 1.75876 7.10025L8.29376 1.85525C9.73276 0.71525 11.7378 0.71525 13.1738 1.85325L19.7558 7.10325C20.5288 7.69225 20.9868 8.60025 20.9998 9.58225V18.3173C20.9998 20.6263 19.1058 22.5053 16.7768 22.5053Z" fill="black"/>
<path fill-rule="evenodd" clip-rule="evenodd" d="M12.2168 15.2913C13.4208 15.2913 14.4008 16.2643 14.4008 17.4603V20.5363C14.4008 20.7933 14.6068 20.9993 14.8708 21.0053H16.7768C18.2788 21.0053 19.4998 19.7993 19.4998 18.3173V9.59325C19.4928 9.08325 19.2498 8.60325 18.8328 8.28425L12.2398 3.02625C11.3548 2.32525 10.1168 2.32525 9.22876 3.02825L2.68076 8.28225C2.24776 8.61125 2.00476 9.09125 1.99976 9.61025V18.3173C1.99976 19.7993 3.22076 21.0053 4.72276 21.0053H6.64676C6.91776 21.0053 7.13776 20.7903 7.13776 20.5263C7.13776 20.4683 7.14476 20.4103 7.15676 20.3553V17.4603C7.15676 16.2713 8.13076 15.2993 9.32576 15.2913H12.2168ZM16.7768 22.5053H14.8528C13.7508 22.4793 12.9008 21.6143 12.9008 20.5363V17.4603C12.9008 17.0913 12.5938 16.7913 12.2168 16.7913H9.33076C8.96176 16.7933 8.65676 17.0943 8.65676 17.4603V20.5263C8.65676 20.6013 8.64676 20.6733 8.62576 20.7413C8.51776 21.7313 7.67176 22.5053 6.64676 22.5053H4.72276C2.39376 22.5053 0.499756 20.6263 0.499756 18.3173V9.60325C0.509756 8.60925 0.967756 7.69925 1.75876 7.10025L8.29376 1.85525C9.73276 0.71525 11.7378 0.71525 13.1738 1.85325L19.7558 7.10325C20.5288 7.69225 20.9868 8.60025 20.9998 9.58225V18.3173C20.9998 20.6263 19.1058 22.5053 16.7768 22.5053Z" stroke="black" mask="url(#path-1-outside-1_30024_3558)"/>
</svg>
