<svg width="33" height="33" viewBox="0 0 33 33" fill="none" xmlns="http://www.w3.org/2000/svg">
<circle cx="16.93" cy="11.6082" r="5.32164" stroke="white" stroke-width="2" stroke-linecap="round"/>
<path fill-rule="evenodd" clip-rule="evenodd" d="M20.0724 21.4123C19.0522 21.1956 17.9952 21.0848 16.93 21.0848C14.4023 21.0848 11.9208 21.7089 9.86888 22.8898C7.81764 24.0703 6.26744 25.7693 5.55075 27.7754C5.33397 28.3821 5.65012 29.0498 6.25689 29.2665C6.86367 29.4833 7.53128 29.1672 7.74806 28.5604C8.24417 27.1718 9.3664 25.8711 11.0327 24.9122C12.5668 24.0293 14.4467 23.5054 16.4202 23.4281C16.9787 22.2371 18.1884 21.4123 19.5908 21.4123L20.0724 21.4123Z" fill="white"/>
<path d="M24.9121 19.5906L24.9121 30.2339" stroke="white" stroke-width="2" stroke-linecap="round"/>
<path d="M30.2334 24.9123L19.5901 24.9123" stroke="white" stroke-width="2" stroke-linecap="round"/>
</svg>
