<svg width="24" height="24" viewBox="0 0 24 24" fill="none" xmlns="http://www.w3.org/2000/svg">
<path fill-rule="evenodd" clip-rule="evenodd" d="M6.70594 16.5031C8.2438 15.618 10.1043 15.1499 12 15.1499C13.8957 15.1499 15.7562 15.618 17.2941 16.5031C18.8314 17.3878 19.9917 18.6603 20.5279 20.161C20.6858 20.6031 20.4555 21.0895 20.0134 21.2474C19.5713 21.4054 19.0849 21.175 18.927 20.733C18.5515 19.6821 17.7031 18.6999 16.4461 17.9765C15.1897 17.2534 13.6264 16.8499 12 16.8499C10.3736 16.8499 8.81033 17.2534 7.55389 17.9765C6.29695 18.6999 5.44849 19.6821 5.07304 20.733C4.91511 21.175 4.4287 21.4054 3.98662 21.2474C3.54455 21.0895 3.31421 20.6031 3.47215 20.161C4.0083 18.6603 5.16856 17.3878 6.70594 16.5031Z" fill="white" fill-opacity="0.9"/>
<path fill-rule="evenodd" clip-rule="evenodd" d="M12 4.8499C10.2603 4.8499 8.85002 6.26021 8.85002 7.9999C8.85002 9.7396 10.2603 11.1499 12 11.1499C13.7397 11.1499 15.15 9.7396 15.15 7.9999C15.15 6.26021 13.7397 4.8499 12 4.8499ZM7.15002 7.9999C7.15002 5.32132 9.32144 3.1499 12 3.1499C14.6786 3.1499 16.85 5.32132 16.85 7.9999C16.85 10.6785 14.6786 12.8499 12 12.8499C9.32144 12.8499 7.15002 10.6785 7.15002 7.9999Z" fill="white" fill-opacity="0.9"/>
</svg>
