<svg width="33" height="33" viewBox="0 0 33 33" fill="none" xmlns="http://www.w3.org/2000/svg">
<path d="M26.6758 8.65159L25.8444 9.20716L25.8444 9.20716L26.6758 8.65159ZM26.6758 22.5471L25.8444 21.9916L25.8444 21.9916L26.6758 22.5471ZM25.2076 24.0154L24.652 23.1839V23.1839L25.2076 24.0154ZM19.5904 24.9104L19.586 23.9104C19.0355 23.9128 18.5904 24.3598 18.5904 24.9104H19.5904ZM19.5904 24.9124L20.4848 25.3596C20.5543 25.2208 20.5904 25.0677 20.5904 24.9124H19.5904ZM15.8861 28.1471L16.7805 27.6998L15.8861 28.1471ZM14.2688 24.9124H13.2688C13.2688 25.0677 13.3049 25.2208 13.3743 25.3596L14.2688 24.9124ZM14.2688 24.9104H15.2688C15.2688 24.3598 14.8237 23.9128 14.2731 23.9104L14.2688 24.9104ZM8.65123 24.0154L8.09566 24.8468L8.09566 24.8468L8.65123 24.0154ZM7.18299 22.5471L6.35152 23.1027H6.35152L7.18299 22.5471ZM7.18299 8.65159L8.01446 9.20716H8.01446L7.18299 8.65159ZM8.65123 7.18336L9.2068 8.01483L9.2068 8.01483L8.65123 7.18336ZM25.2076 7.18336L24.652 8.01483L24.652 8.01483L25.2076 7.18336ZM28.5727 15.5994C28.5727 13.7517 28.5739 12.2906 28.4554 11.1262C28.3353 9.94513 28.0838 8.95884 27.5073 8.09602L25.8444 9.20716C26.1647 9.68659 26.3616 10.3057 26.4657 11.3286C26.5715 12.3683 26.5727 13.71 26.5727 15.5994H28.5727ZM27.5073 23.1027C28.0838 22.2399 28.3353 21.2536 28.4554 20.0725C28.5739 18.9081 28.5727 17.4471 28.5727 15.5994H26.5727C26.5727 17.4887 26.5715 18.8304 26.4657 19.8701C26.3616 20.8931 26.1647 21.5121 25.8444 21.9916L27.5073 23.1027ZM25.7632 24.8468C26.4534 24.3856 27.0461 23.793 27.5073 23.1027L25.8444 21.9916C25.5291 22.4634 25.1239 22.8686 24.652 23.1839L25.7632 24.8468ZM19.5948 25.9104C21.0253 25.9042 22.1991 25.8772 23.1727 25.7426C24.1624 25.6058 25.0096 25.3504 25.7632 24.8468L24.652 23.1839C24.2331 23.4638 23.707 23.6497 22.8988 23.7614C22.0746 23.8754 21.0261 23.9041 19.586 23.9104L19.5948 25.9104ZM20.5904 24.9124V24.9104H18.5904V24.9124H20.5904ZM18.8675 28.5943L20.4848 25.3596L18.696 24.4652L17.0787 27.6998L18.8675 28.5943ZM14.9917 28.5943C15.7901 30.1912 18.069 30.1912 18.8675 28.5943L17.0787 27.6998C17.0172 27.8227 16.8419 27.8227 16.7805 27.6998L14.9917 28.5943ZM13.3743 25.3596L14.9917 28.5943L16.7805 27.6998L15.1632 24.4652L13.3743 25.3596ZM13.2688 24.9104V24.9124H15.2688V24.9104H13.2688ZM8.09566 24.8468C8.84927 25.3504 9.69654 25.6058 10.6863 25.7426C11.6599 25.8772 12.8338 25.9042 14.2644 25.9104L14.2731 23.9104C12.833 23.9042 11.7844 23.8754 10.9601 23.7614C10.1519 23.6497 9.62577 23.4639 9.2068 23.1839L8.09566 24.8468ZM6.35152 23.1027C6.81274 23.793 7.4054 24.3856 8.09566 24.8468L9.2068 23.1839C8.73492 22.8686 8.32976 22.4634 8.01446 21.9916L6.35152 23.1027ZM5.28613 15.5994C5.28613 17.4471 5.28492 18.9081 5.40337 20.0725C5.52353 21.2536 5.775 22.2399 6.35152 23.1027L8.01446 21.9916C7.69412 21.5121 7.49717 20.8931 7.39311 19.8701C7.28734 18.8304 7.28613 17.4887 7.28613 15.5994H5.28613ZM6.35152 8.09602C5.775 8.95884 5.52353 9.94513 5.40337 11.1262C5.28492 12.2906 5.28613 13.7517 5.28613 15.5994H7.28613C7.28613 13.71 7.28734 12.3683 7.39311 11.3286C7.49717 10.3057 7.69412 9.68659 8.01446 9.20716L6.35152 8.09602ZM8.09566 6.35189C7.4054 6.8131 6.81274 7.40576 6.35152 8.09602L8.01446 9.20716C8.32976 8.73528 8.73492 8.33013 9.2068 8.01483L8.09566 6.35189ZM15.599 5.2865C13.7513 5.2865 12.2903 5.28529 11.1259 5.40374C9.94476 5.52389 8.95847 5.77537 8.09566 6.35189L9.2068 8.01483C9.68622 7.69449 10.3053 7.49754 11.3283 7.39347C12.368 7.28771 13.7097 7.2865 15.599 7.2865V5.2865ZM18.2598 5.2865H15.599V7.2865H18.2598V5.2865ZM25.7632 6.35189C24.9003 5.77537 23.9141 5.52389 22.7329 5.40374C21.5686 5.28529 20.1075 5.2865 18.2598 5.2865V7.2865C20.1491 7.2865 21.4909 7.28771 22.5305 7.39347C23.5535 7.49754 24.1726 7.69449 24.652 8.01483L25.7632 6.35189ZM27.5073 8.09602C27.0461 7.40576 26.4534 6.8131 25.7632 6.35189L24.652 8.01483C25.1239 8.33013 25.5291 8.73528 25.8444 9.20716L27.5073 8.09602Z" fill="white"/>
<circle cx="22.2513" cy="15.5994" r="1.33041" fill="white" stroke="white" stroke-linecap="round"/>
<circle cx="16.93" cy="15.5994" r="1.33041" fill="white" stroke="white" stroke-linecap="round"/>
<circle cx="11.6078" cy="15.5994" r="1.33041" fill="white" stroke="white" stroke-linecap="round"/>
</svg>
