<svg width="28" height="28" viewBox="0 0 28 28" fill="none" xmlns="http://www.w3.org/2000/svg">
<path d="M22.5472 6.74066L21.7157 7.29623L21.7157 7.29623L22.5472 6.74066ZM22.5472 18.926L21.7157 18.3704L21.7157 18.3704L22.5472 18.926ZM21.2597 20.2135L21.8152 21.045L21.8152 21.045L21.2597 20.2135ZM16.3338 20.9984L16.3295 19.9984C15.7789 20.0008 15.3338 20.4478 15.3338 20.9984H16.3338ZM16.3338 21.0002L17.2282 21.4474C17.2977 21.3085 17.3338 21.1554 17.3338 21.0002H16.3338ZM12.957 23.5798L12.0626 24.027L12.0626 24.027L12.957 23.5798ZM11.6672 21.0002H10.6672C10.6672 21.1554 10.7033 21.3085 10.7727 21.4474L11.6672 21.0002ZM11.6672 20.9984H12.6672C12.6672 20.4478 12.2221 20.0008 11.6715 19.9984L11.6672 20.9984ZM6.741 20.2135L7.29657 19.382L7.29657 19.382L6.741 20.2135ZM5.45347 18.926L4.622 19.4816L5.45347 18.926ZM5.45347 6.74066L4.622 6.18509L4.622 6.18509L5.45347 6.74066ZM6.741 5.45313L6.18543 4.62166L6.18543 4.62166L6.741 5.45313ZM21.2597 5.45313L21.8152 4.62166L21.8152 4.62166L21.2597 5.45313ZM24.3337 12.8333C24.3337 11.2156 24.3349 9.92703 24.2302 8.89827C24.1239 7.85281 23.9 6.96531 23.3787 6.18509L21.7157 7.29623C21.9809 7.69306 22.1502 8.21335 22.2405 9.10068C22.3324 10.0047 22.3337 11.174 22.3337 12.8333H24.3337ZM23.3787 19.4816C23.9 18.7013 24.1239 17.8138 24.2302 16.7684C24.3349 15.7396 24.3337 14.4511 24.3337 12.8333H22.3337C22.3337 14.4927 22.3324 15.6619 22.2405 16.566C22.1502 17.4533 21.9809 17.9736 21.7157 18.3704L23.3787 19.4816ZM21.8152 21.045C22.434 20.6316 22.9652 20.1003 23.3787 19.4816L21.7157 18.3704C21.4482 18.7708 21.1044 19.1145 20.7041 19.382L21.8152 21.045ZM16.3382 21.9984C17.592 21.9929 18.6291 21.9694 19.492 21.8501C20.3711 21.7285 21.1338 21.5003 21.8152 21.045L20.7041 19.382C20.3573 19.6138 19.9157 19.7725 19.2182 19.8689C18.5046 19.9675 17.5928 19.9929 16.3295 19.9984L16.3382 21.9984ZM17.3338 21.0002V20.9984H15.3338V21.0002H17.3338ZM15.9384 24.027L17.2282 21.4474L15.4394 20.5529L14.1496 23.1326L15.9384 24.027ZM12.0626 24.027C12.861 25.624 15.1399 25.624 15.9384 24.027L14.1496 23.1326C14.0881 23.2554 13.9128 23.2555 13.8514 23.1326L12.0626 24.027ZM10.7727 21.4474L12.0626 24.027L13.8514 23.1326L12.5616 20.5529L10.7727 21.4474ZM10.6672 20.9984V21.0002H12.6672V20.9984H10.6672ZM6.18543 21.045C6.86688 21.5003 7.62963 21.7286 8.50872 21.8501C9.37174 21.9694 10.4088 21.9929 11.6628 21.9984L11.6715 19.9984C10.408 19.9929 9.4962 19.9676 8.78257 19.8689C8.085 19.7725 7.64338 19.6138 7.29657 19.382L6.18543 21.045ZM4.622 19.4816C5.03543 20.1003 5.56668 20.6316 6.18543 21.045L7.29657 19.382C6.8962 19.1145 6.55245 18.7708 6.28494 18.3704L4.622 19.4816ZM3.66699 12.8333C3.66699 14.4511 3.66578 15.7396 3.77044 16.7684C3.87679 17.8138 4.10067 18.7013 4.622 19.4816L6.28494 18.3704C6.01979 17.9736 5.85043 17.4533 5.76017 16.566C5.6682 15.6619 5.66699 14.4927 5.66699 12.8333H3.66699ZM4.622 6.18509C4.10067 6.96531 3.87679 7.85281 3.77044 8.89827C3.66578 9.92703 3.66699 11.2156 3.66699 12.8333H5.66699C5.66699 11.174 5.6682 10.0047 5.76017 9.10068C5.85043 8.21335 6.01979 7.69306 6.28494 7.29623L4.622 6.18509ZM6.18543 4.62166C5.56668 5.03509 5.03543 5.56635 4.622 6.18509L6.28494 7.29623C6.55245 6.89587 6.8962 6.55212 7.29657 6.2846L6.18543 4.62166ZM12.8337 3.66666C11.2159 3.66666 9.92737 3.66545 8.89861 3.7701C7.85314 3.87645 6.96565 4.10034 6.18543 4.62166L7.29657 6.2846C7.69339 6.01945 8.21369 5.8501 9.10102 5.75983C10.0051 5.66787 11.1743 5.66666 12.8337 5.66666V3.66666ZM15.167 3.66666H12.8337V5.66666H15.167V3.66666ZM21.8152 4.62166C21.035 4.10034 20.1475 3.87645 19.102 3.7701C18.0733 3.66545 16.7847 3.66666 15.167 3.66666V5.66666C16.8263 5.66666 17.9956 5.66787 18.8996 5.75983C19.787 5.8501 20.3073 6.01945 20.7041 6.2846L21.8152 4.62166ZM23.3787 6.18509C22.9652 5.56635 22.434 5.03509 21.8152 4.62166L20.7041 6.2846C21.1044 6.55212 21.4482 6.89587 21.7157 7.29623L23.3787 6.18509Z" fill="white"/>
<circle cx="18.6667" cy="12.8333" r="1.16667" fill="white" stroke="white" stroke-linecap="round"/>
<circle cx="13.9997" cy="12.8333" r="1.16667" fill="white" stroke="white" stroke-linecap="round"/>
<circle cx="9.33366" cy="12.8333" r="1.16667" fill="white" stroke="white" stroke-linecap="round"/>
</svg>
