<svg width="33" height="33" viewBox="0 0 33 33" fill="none" xmlns="http://www.w3.org/2000/svg">
<path d="M16.93 16.9299C19.8691 16.9299 22.2517 14.5473 22.2517 11.6083C22.2517 8.6692 19.8691 6.28662 16.93 6.28662C13.991 6.28662 11.6084 8.6692 11.6084 11.6083C11.6084 14.5473 13.991 16.9299 16.93 16.9299Z" stroke="white" stroke-width="2" stroke-linecap="round"/>
<path fill-rule="evenodd" clip-rule="evenodd" d="M20.0724 21.4125C19.0522 21.1958 17.9952 21.085 16.93 21.085C14.4023 21.085 11.9208 21.7091 9.86888 22.89C7.81764 24.0705 6.26744 25.7695 5.55075 27.7756C5.33397 28.3823 5.65012 29.05 6.25689 29.2667C6.86367 29.4835 7.53128 29.1674 7.74806 28.5606C8.24417 27.172 9.3664 25.8713 11.0327 24.9124C12.5668 24.0295 14.4467 23.5056 16.4202 23.4283C16.9787 22.2373 18.1884 21.4125 19.5908 21.4125H20.0724Z" fill="white"/>
<path d="M26 22L22 27" stroke="white" stroke-width="2" stroke-linecap="round"/>
<path d="M22 27L19.5901 24.9121" stroke="white" stroke-width="2" stroke-linecap="round"/>
</svg>
