<svg width="22" height="24" viewBox="0 0 22 24" fill="none" xmlns="http://www.w3.org/2000/svg">
<mask id="path-1-outside-1_30023_3558" maskUnits="userSpaceOnUse" x="0.0126953" y="0.288147" width="21" height="23" fill="black">
<rect fill="white" x="0.0126953" y="0.288147" width="21" height="23"/>
<path fill-rule="evenodd" clip-rule="evenodd" d="M14.8062 1.28815C15.2202 1.28815 15.5562 1.62415 15.5562 2.03815L15.5567 2.88596C17.0168 2.98606 18.2294 3.48619 19.0877 4.34625C20.0247 5.28725 20.5177 6.64025 20.5127 8.26325V17.3862C20.5127 20.7182 18.3967 22.7882 14.9917 22.7882H6.5337C3.1287 22.7882 1.0127 20.6892 1.0127 17.3102V8.26125C1.0127 5.11844 2.89975 3.10109 5.97738 2.8863L5.978 2.03815C5.978 1.62415 6.314 1.28815 6.728 1.28815C7.142 1.28815 7.478 1.62415 7.478 2.03815L7.4777 2.86715H14.0557L14.0562 2.03815C14.0562 1.62415 14.3922 1.28815 14.8062 1.28815ZM19.0127 10.1921H2.5127V17.3102C2.5127 19.8762 3.9407 21.2882 6.5337 21.2882H14.9917C17.5847 21.2882 19.0127 19.9022 19.0127 17.3862L19.0127 10.1921ZM15.2139 16.4844C15.6279 16.4844 15.9639 16.8204 15.9639 17.2344C15.9639 17.6484 15.6279 17.9844 15.2139 17.9844C14.7999 17.9844 14.4599 17.6484 14.4599 17.2344C14.4599 16.8204 14.7909 16.4844 15.2049 16.4844H15.2139ZM10.7764 16.4844C11.1904 16.4844 11.5264 16.8204 11.5264 17.2344C11.5264 17.6484 11.1904 17.9844 10.7764 17.9844C10.3624 17.9844 10.0224 17.6484 10.0224 17.2344C10.0224 16.8204 10.3534 16.4844 10.7674 16.4844H10.7764ZM6.3296 16.4844C6.7436 16.4844 7.0796 16.8204 7.0796 17.2344C7.0796 17.6484 6.7436 17.9844 6.3296 17.9844C5.9156 17.9844 5.5746 17.6484 5.5746 17.2344C5.5746 16.8204 5.9066 16.4844 6.3206 16.4844H6.3296ZM15.2139 12.5977C15.6279 12.5977 15.9639 12.9337 15.9639 13.3477C15.9639 13.7617 15.6279 14.0977 15.2139 14.0977C14.7999 14.0977 14.4599 13.7617 14.4599 13.3477C14.4599 12.9337 14.7909 12.5977 15.2049 12.5977H15.2139ZM10.7764 12.5977C11.1904 12.5977 11.5264 12.9337 11.5264 13.3477C11.5264 13.7617 11.1904 14.0977 10.7764 14.0977C10.3624 14.0977 10.0224 13.7617 10.0224 13.3477C10.0224 12.9337 10.3534 12.5977 10.7674 12.5977H10.7764ZM6.3296 12.5977C6.7436 12.5977 7.0796 12.9337 7.0796 13.3477C7.0796 13.7617 6.7436 14.0977 6.3296 14.0977C5.9156 14.0977 5.5746 13.7617 5.5746 13.3477C5.5746 12.9337 5.9066 12.5977 6.3206 12.5977H6.3296ZM14.0557 4.36715H7.4777L7.478 5.32915C7.478 5.74315 7.142 6.07915 6.728 6.07915C6.314 6.07915 5.978 5.74315 5.978 5.32915L5.97746 4.38985C3.73723 4.57804 2.5127 5.936 2.5127 8.26125V8.69215H19.0127L19.0127 8.26125C19.0167 7.02625 18.6847 6.06625 18.0257 5.40625C17.4472 4.82606 16.6016 4.47955 15.557 4.39033L15.5562 5.32915C15.5562 5.74315 15.2202 6.07915 14.8062 6.07915C14.3922 6.07915 14.0562 5.74315 14.0562 5.32915L14.0557 4.36715Z"/>
</mask>
<path fill-rule="evenodd" clip-rule="evenodd" d="M14.8062 1.28815C15.2202 1.28815 15.5562 1.62415 15.5562 2.03815L15.5567 2.88596C17.0168 2.98606 18.2294 3.48619 19.0877 4.34625C20.0247 5.28725 20.5177 6.64025 20.5127 8.26325V17.3862C20.5127 20.7182 18.3967 22.7882 14.9917 22.7882H6.5337C3.1287 22.7882 1.0127 20.6892 1.0127 17.3102V8.26125C1.0127 5.11844 2.89975 3.10109 5.97738 2.8863L5.978 2.03815C5.978 1.62415 6.314 1.28815 6.728 1.28815C7.142 1.28815 7.478 1.62415 7.478 2.03815L7.4777 2.86715H14.0557L14.0562 2.03815C14.0562 1.62415 14.3922 1.28815 14.8062 1.28815ZM19.0127 10.1921H2.5127V17.3102C2.5127 19.8762 3.9407 21.2882 6.5337 21.2882H14.9917C17.5847 21.2882 19.0127 19.9022 19.0127 17.3862L19.0127 10.1921ZM15.2139 16.4844C15.6279 16.4844 15.9639 16.8204 15.9639 17.2344C15.9639 17.6484 15.6279 17.9844 15.2139 17.9844C14.7999 17.9844 14.4599 17.6484 14.4599 17.2344C14.4599 16.8204 14.7909 16.4844 15.2049 16.4844H15.2139ZM10.7764 16.4844C11.1904 16.4844 11.5264 16.8204 11.5264 17.2344C11.5264 17.6484 11.1904 17.9844 10.7764 17.9844C10.3624 17.9844 10.0224 17.6484 10.0224 17.2344C10.0224 16.8204 10.3534 16.4844 10.7674 16.4844H10.7764ZM6.3296 16.4844C6.7436 16.4844 7.0796 16.8204 7.0796 17.2344C7.0796 17.6484 6.7436 17.9844 6.3296 17.9844C5.9156 17.9844 5.5746 17.6484 5.5746 17.2344C5.5746 16.8204 5.9066 16.4844 6.3206 16.4844H6.3296ZM15.2139 12.5977C15.6279 12.5977 15.9639 12.9337 15.9639 13.3477C15.9639 13.7617 15.6279 14.0977 15.2139 14.0977C14.7999 14.0977 14.4599 13.7617 14.4599 13.3477C14.4599 12.9337 14.7909 12.5977 15.2049 12.5977H15.2139ZM10.7764 12.5977C11.1904 12.5977 11.5264 12.9337 11.5264 13.3477C11.5264 13.7617 11.1904 14.0977 10.7764 14.0977C10.3624 14.0977 10.0224 13.7617 10.0224 13.3477C10.0224 12.9337 10.3534 12.5977 10.7674 12.5977H10.7764ZM6.3296 12.5977C6.7436 12.5977 7.0796 12.9337 7.0796 13.3477C7.0796 13.7617 6.7436 14.0977 6.3296 14.0977C5.9156 14.0977 5.5746 13.7617 5.5746 13.3477C5.5746 12.9337 5.9066 12.5977 6.3206 12.5977H6.3296ZM14.0557 4.36715H7.4777L7.478 5.32915C7.478 5.74315 7.142 6.07915 6.728 6.07915C6.314 6.07915 5.978 5.74315 5.978 5.32915L5.97746 4.38985C3.73723 4.57804 2.5127 5.936 2.5127 8.26125V8.69215H19.0127L19.0127 8.26125C19.0167 7.02625 18.6847 6.06625 18.0257 5.40625C17.4472 4.82606 16.6016 4.47955 15.557 4.39033L15.5562 5.32915C15.5562 5.74315 15.2202 6.07915 14.8062 6.07915C14.3922 6.07915 14.0562 5.74315 14.0562 5.32915L14.0557 4.36715Z" fill="black"/>
<path fill-rule="evenodd" clip-rule="evenodd" d="M14.8062 1.28815C15.2202 1.28815 15.5562 1.62415 15.5562 2.03815L15.5567 2.88596C17.0168 2.98606 18.2294 3.48619 19.0877 4.34625C20.0247 5.28725 20.5177 6.64025 20.5127 8.26325V17.3862C20.5127 20.7182 18.3967 22.7882 14.9917 22.7882H6.5337C3.1287 22.7882 1.0127 20.6892 1.0127 17.3102V8.26125C1.0127 5.11844 2.89975 3.10109 5.97738 2.8863L5.978 2.03815C5.978 1.62415 6.314 1.28815 6.728 1.28815C7.142 1.28815 7.478 1.62415 7.478 2.03815L7.4777 2.86715H14.0557L14.0562 2.03815C14.0562 1.62415 14.3922 1.28815 14.8062 1.28815ZM19.0127 10.1921H2.5127V17.3102C2.5127 19.8762 3.9407 21.2882 6.5337 21.2882H14.9917C17.5847 21.2882 19.0127 19.9022 19.0127 17.3862L19.0127 10.1921ZM15.2139 16.4844C15.6279 16.4844 15.9639 16.8204 15.9639 17.2344C15.9639 17.6484 15.6279 17.9844 15.2139 17.9844C14.7999 17.9844 14.4599 17.6484 14.4599 17.2344C14.4599 16.8204 14.7909 16.4844 15.2049 16.4844H15.2139ZM10.7764 16.4844C11.1904 16.4844 11.5264 16.8204 11.5264 17.2344C11.5264 17.6484 11.1904 17.9844 10.7764 17.9844C10.3624 17.9844 10.0224 17.6484 10.0224 17.2344C10.0224 16.8204 10.3534 16.4844 10.7674 16.4844H10.7764ZM6.3296 16.4844C6.7436 16.4844 7.0796 16.8204 7.0796 17.2344C7.0796 17.6484 6.7436 17.9844 6.3296 17.9844C5.9156 17.9844 5.5746 17.6484 5.5746 17.2344C5.5746 16.8204 5.9066 16.4844 6.3206 16.4844H6.3296ZM15.2139 12.5977C15.6279 12.5977 15.9639 12.9337 15.9639 13.3477C15.9639 13.7617 15.6279 14.0977 15.2139 14.0977C14.7999 14.0977 14.4599 13.7617 14.4599 13.3477C14.4599 12.9337 14.7909 12.5977 15.2049 12.5977H15.2139ZM10.7764 12.5977C11.1904 12.5977 11.5264 12.9337 11.5264 13.3477C11.5264 13.7617 11.1904 14.0977 10.7764 14.0977C10.3624 14.0977 10.0224 13.7617 10.0224 13.3477C10.0224 12.9337 10.3534 12.5977 10.7674 12.5977H10.7764ZM6.3296 12.5977C6.7436 12.5977 7.0796 12.9337 7.0796 13.3477C7.0796 13.7617 6.7436 14.0977 6.3296 14.0977C5.9156 14.0977 5.5746 13.7617 5.5746 13.3477C5.5746 12.9337 5.9066 12.5977 6.3206 12.5977H6.3296ZM14.0557 4.36715H7.4777L7.478 5.32915C7.478 5.74315 7.142 6.07915 6.728 6.07915C6.314 6.07915 5.978 5.74315 5.978 5.32915L5.97746 4.38985C3.73723 4.57804 2.5127 5.936 2.5127 8.26125V8.69215H19.0127L19.0127 8.26125C19.0167 7.02625 18.6847 6.06625 18.0257 5.40625C17.4472 4.82606 16.6016 4.47955 15.557 4.39033L15.5562 5.32915C15.5562 5.74315 15.2202 6.07915 14.8062 6.07915C14.3922 6.07915 14.0562 5.74315 14.0562 5.32915L14.0557 4.36715Z" stroke="#030303" mask="url(#path-1-outside-1_30023_3558)"/>
</svg>
