<svg width="23" height="23" viewBox="0 0 23 23" fill="none" xmlns="http://www.w3.org/2000/svg">
<mask id="path-1-outside-1_30024_3557" maskUnits="userSpaceOnUse" x="-0.5" y="0.000305176" width="23" height="23" fill="black">
<rect fill="white" x="-0.5" y="0.000305176" width="23" height="23"/>
<path fill-rule="evenodd" clip-rule="evenodd" d="M11.2484 1.00031C14.1214 1.00031 16.8214 2.11731 18.8494 4.14631C23.0414 8.33831 23.0414 15.1583 18.8494 19.3503C16.7944 21.4063 14.0274 22.4943 11.2244 22.4943C9.69644 22.4943 8.15844 22.1713 6.71944 21.5053C6.29544 21.3353 5.89844 21.1753 5.61344 21.1753C5.28544 21.1773 4.84444 21.3293 4.41844 21.4763C3.54444 21.7763 2.45644 22.1503 1.65144 21.3483C0.849437 20.5453 1.21944 19.4603 1.51744 18.5873C1.66444 18.1573 1.81544 17.7133 1.81544 17.3773C1.81544 17.1013 1.68244 16.7493 1.47844 16.2423C-0.394563 12.1973 0.471437 7.32231 3.64844 4.14731C5.67644 2.11831 8.37544 1.00031 11.2484 1.00031ZM11.2494 2.50031C8.77644 2.50031 6.45344 3.46231 4.70844 5.20831C1.97444 7.94031 1.23044 12.1353 2.85544 15.6483C3.08944 16.2273 3.31544 16.7913 3.31544 17.3773C3.31544 17.9623 3.11444 18.5513 2.93744 19.0713C2.79144 19.4993 2.57044 20.1453 2.71244 20.2873C2.85144 20.4313 3.50144 20.2043 3.93044 20.0573C4.44544 19.8813 5.02944 19.6793 5.60844 19.6753C6.18844 19.6753 6.73544 19.8953 7.31444 20.1283C10.8614 21.7683 15.0564 21.0223 17.7894 18.2903C21.3954 14.6823 21.3954 8.81331 17.7894 5.20731C16.0434 3.46131 13.7214 2.50031 11.2494 2.50031ZM15.1963 11.163C15.7483 11.163 16.1963 11.61 16.1963 12.163C16.1963 12.716 15.7483 13.163 15.1963 13.163C14.6443 13.163 14.1923 12.716 14.1923 12.163C14.1923 11.61 14.6353 11.163 15.1873 11.163H15.1963ZM11.1875 11.163C11.7395 11.163 12.1875 11.61 12.1875 12.163C12.1875 12.716 11.7395 13.163 11.1875 13.163C10.6355 13.163 10.1835 12.716 10.1835 12.163C10.1835 11.61 10.6255 11.163 11.1785 11.163H11.1875ZM7.17834 11.163C7.73034 11.163 8.17834 11.61 8.17834 12.163C8.17834 12.716 7.73034 13.163 7.17834 13.163C6.62634 13.163 6.17434 12.716 6.17434 12.163C6.17434 11.61 6.61734 11.163 7.16934 11.163H7.17834Z"/>
</mask>
<path fill-rule="evenodd" clip-rule="evenodd" d="M11.2484 1.00031C14.1214 1.00031 16.8214 2.11731 18.8494 4.14631C23.0414 8.33831 23.0414 15.1583 18.8494 19.3503C16.7944 21.4063 14.0274 22.4943 11.2244 22.4943C9.69644 22.4943 8.15844 22.1713 6.71944 21.5053C6.29544 21.3353 5.89844 21.1753 5.61344 21.1753C5.28544 21.1773 4.84444 21.3293 4.41844 21.4763C3.54444 21.7763 2.45644 22.1503 1.65144 21.3483C0.849437 20.5453 1.21944 19.4603 1.51744 18.5873C1.66444 18.1573 1.81544 17.7133 1.81544 17.3773C1.81544 17.1013 1.68244 16.7493 1.47844 16.2423C-0.394563 12.1973 0.471437 7.32231 3.64844 4.14731C5.67644 2.11831 8.37544 1.00031 11.2484 1.00031ZM11.2494 2.50031C8.77644 2.50031 6.45344 3.46231 4.70844 5.20831C1.97444 7.94031 1.23044 12.1353 2.85544 15.6483C3.08944 16.2273 3.31544 16.7913 3.31544 17.3773C3.31544 17.9623 3.11444 18.5513 2.93744 19.0713C2.79144 19.4993 2.57044 20.1453 2.71244 20.2873C2.85144 20.4313 3.50144 20.2043 3.93044 20.0573C4.44544 19.8813 5.02944 19.6793 5.60844 19.6753C6.18844 19.6753 6.73544 19.8953 7.31444 20.1283C10.8614 21.7683 15.0564 21.0223 17.7894 18.2903C21.3954 14.6823 21.3954 8.81331 17.7894 5.20731C16.0434 3.46131 13.7214 2.50031 11.2494 2.50031ZM15.1963 11.163C15.7483 11.163 16.1963 11.61 16.1963 12.163C16.1963 12.716 15.7483 13.163 15.1963 13.163C14.6443 13.163 14.1923 12.716 14.1923 12.163C14.1923 11.61 14.6353 11.163 15.1873 11.163H15.1963ZM11.1875 11.163C11.7395 11.163 12.1875 11.61 12.1875 12.163C12.1875 12.716 11.7395 13.163 11.1875 13.163C10.6355 13.163 10.1835 12.716 10.1835 12.163C10.1835 11.61 10.6255 11.163 11.1785 11.163H11.1875ZM7.17834 11.163C7.73034 11.163 8.17834 11.61 8.17834 12.163C8.17834 12.716 7.73034 13.163 7.17834 13.163C6.62634 13.163 6.17434 12.716 6.17434 12.163C6.17434 11.61 6.61734 11.163 7.16934 11.163H7.17834Z" fill="black"/>
<path fill-rule="evenodd" clip-rule="evenodd" d="M11.2484 1.00031C14.1214 1.00031 16.8214 2.11731 18.8494 4.14631C23.0414 8.33831 23.0414 15.1583 18.8494 19.3503C16.7944 21.4063 14.0274 22.4943 11.2244 22.4943C9.69644 22.4943 8.15844 22.1713 6.71944 21.5053C6.29544 21.3353 5.89844 21.1753 5.61344 21.1753C5.28544 21.1773 4.84444 21.3293 4.41844 21.4763C3.54444 21.7763 2.45644 22.1503 1.65144 21.3483C0.849437 20.5453 1.21944 19.4603 1.51744 18.5873C1.66444 18.1573 1.81544 17.7133 1.81544 17.3773C1.81544 17.1013 1.68244 16.7493 1.47844 16.2423C-0.394563 12.1973 0.471437 7.32231 3.64844 4.14731C5.67644 2.11831 8.37544 1.00031 11.2484 1.00031ZM11.2494 2.50031C8.77644 2.50031 6.45344 3.46231 4.70844 5.20831C1.97444 7.94031 1.23044 12.1353 2.85544 15.6483C3.08944 16.2273 3.31544 16.7913 3.31544 17.3773C3.31544 17.9623 3.11444 18.5513 2.93744 19.0713C2.79144 19.4993 2.57044 20.1453 2.71244 20.2873C2.85144 20.4313 3.50144 20.2043 3.93044 20.0573C4.44544 19.8813 5.02944 19.6793 5.60844 19.6753C6.18844 19.6753 6.73544 19.8953 7.31444 20.1283C10.8614 21.7683 15.0564 21.0223 17.7894 18.2903C21.3954 14.6823 21.3954 8.81331 17.7894 5.20731C16.0434 3.46131 13.7214 2.50031 11.2494 2.50031ZM15.1963 11.163C15.7483 11.163 16.1963 11.61 16.1963 12.163C16.1963 12.716 15.7483 13.163 15.1963 13.163C14.6443 13.163 14.1923 12.716 14.1923 12.163C14.1923 11.61 14.6353 11.163 15.1873 11.163H15.1963ZM11.1875 11.163C11.7395 11.163 12.1875 11.61 12.1875 12.163C12.1875 12.716 11.7395 13.163 11.1875 13.163C10.6355 13.163 10.1835 12.716 10.1835 12.163C10.1835 11.61 10.6255 11.163 11.1785 11.163H11.1875ZM7.17834 11.163C7.73034 11.163 8.17834 11.61 8.17834 12.163C8.17834 12.716 7.73034 13.163 7.17834 13.163C6.62634 13.163 6.17434 12.716 6.17434 12.163C6.17434 11.61 6.61734 11.163 7.16934 11.163H7.17834Z" stroke="black" mask="url(#path-1-outside-1_30024_3557)"/>
</svg>
