<svg width="24" height="24" viewBox="0 0 24 24" fill="none" xmlns="http://www.w3.org/2000/svg">
<path d="M12 14.8999C10.0647 14.8999 8.1605 15.3775 6.58124 16.2864C5.00268 17.1948 3.79652 18.51 3.23672 20.0769C3.03233 20.649 3.33041 21.2785 3.90251 21.4829C4.47461 21.6873 5.10408 21.3892 5.30847 20.8171C5.66031 19.8323 6.46297 18.8928 7.67858 18.1932C8.89365 17.4939 10.4132 17.0999 12 17.0999C13.5868 17.0999 15.1064 17.4939 16.3214 18.1932C17.537 18.8928 18.3397 19.8323 18.6915 20.8171C18.8959 21.3892 19.5254 21.6873 20.0975 21.4829C20.6696 21.2785 20.9677 20.649 20.7633 20.0769C20.2035 18.51 18.9973 17.1948 17.4188 16.2864C15.8395 15.3775 13.9353 14.8999 12 14.8999Z" fill="#CBF147" stroke="#CBF147" stroke-width="0.5" stroke-linecap="round"/>
<path d="M9.10002 7.9999C9.10002 6.39828 10.3984 5.0999 12 5.0999C13.6017 5.0999 14.9 6.39828 14.9 7.9999C14.9 9.60153 13.6017 10.8999 12 10.8999C10.3984 10.8999 9.10002 9.60153 9.10002 7.9999ZM12 2.8999C9.18337 2.8999 6.90002 5.18325 6.90002 7.9999C6.90002 10.8166 9.18337 13.0999 12 13.0999C14.8167 13.0999 17.1 10.8166 17.1 7.9999C17.1 5.18325 14.8167 2.8999 12 2.8999Z" fill="#CBF147" stroke="#CBF147" stroke-width="0.5" stroke-linecap="round"/>
</svg>
