<svg width="22" height="22" viewBox="0 0 22 22" fill="none" xmlns="http://www.w3.org/2000/svg">
<path d="M17 0H5C2.243 0 0 2.243 0 5V13C0 15.414 1.721 17.434 4 17.899V21C4 21.369 4.203 21.708 4.528 21.882C4.676 21.961 4.838 22 5 22C5.194 22 5.387 21.943 5.555 21.832L11.303 18H17C19.757 18 22 15.757 22 13V5C22 2.243 19.757 0 17 0ZM10.445 16.168L6 19.131V17C6 16.448 5.552 16 5 16C3.346 16 2 14.654 2 13V5C2 3.346 3.346 2 5 2H17C18.654 2 20 3.346 20 5V13C20 14.654 18.654 16 17 16H11C10.93 15.999 10.83 16.006 10.716 16.04C10.596 16.075 10.505 16.127 10.445 16.168Z" fill="#1D2B2C"/>
<path d="M17 6H5C4.448 6 4 6.448 4 7C4 7.552 4.448 8 5 8H17C17.552 8 18 7.552 18 7C18 6.448 17.552 6 17 6Z" fill="#1D2B2C"/>
<path d="M15 10H7C6.448 10 6 10.448 6 11C6 11.552 6.448 12 7 12H15C15.552 12 16 11.552 16 11C16 10.448 15.552 10 15 10Z" fill="#1D2B2C"/>
</svg>
