<svg width="72" height="72" viewBox="0 0 72 72" fill="none" xmlns="http://www.w3.org/2000/svg">
<g filter="url(#filter0_d_192_2928)">
<circle r="16" transform="matrix(-1 0 0 1 36 35)" fill="white" fill-opacity="0.31" shape-rendering="crispEdges"/>
</g>
<path d="M29.2019 34.5514L33.6463 30.1069C33.7661 29.9913 33.9265 29.9273 34.093 29.9287C34.2594 29.9302 34.4187 29.997 34.5364 30.1147C34.6541 30.2324 34.7209 30.3916 34.7223 30.5581C34.7238 30.7246 34.6598 30.885 34.5441 31.0047L31.1835 34.3654H42.3492C42.5176 34.3654 42.6791 34.4322 42.7982 34.5513C42.9172 34.6704 42.9841 34.8319 42.9841 35.0003C42.9841 35.1687 42.9172 35.3302 42.7982 35.4492C42.6791 35.5683 42.5176 35.6352 42.3492 35.6352H31.1835L34.5441 38.9958C34.6048 39.0544 34.6531 39.1245 34.6864 39.2019C34.7197 39.2794 34.7372 39.3627 34.7379 39.447C34.7387 39.5313 34.7226 39.6149 34.6907 39.6929C34.6588 39.771 34.6116 39.8419 34.552 39.9015C34.4924 39.9611 34.4215 40.0082 34.3435 40.0402C34.2654 40.0721 34.1818 40.0881 34.0975 40.0874C34.0132 40.0867 33.9299 40.0692 33.8524 40.0359C33.775 40.0026 33.7049 39.9542 33.6463 39.8936L29.2019 35.4492C29.0829 35.3301 29.016 35.1686 29.016 35.0003C29.016 34.8319 29.0829 34.6704 29.2019 34.5514Z" fill="white"/>
<defs>
<filter id="filter0_d_192_2928" x="0" y="0" width="72" height="72" filterUnits="userSpaceOnUse" color-interpolation-filters="sRGB">
<feFlood flood-opacity="0" result="BackgroundImageFix"/>
<feColorMatrix in="SourceAlpha" type="matrix" values="0 0 0 0 0 0 0 0 0 0 0 0 0 0 0 0 0 0 127 0" result="hardAlpha"/>
<feOffset dy="1"/>
<feGaussianBlur stdDeviation="10"/>
<feComposite in2="hardAlpha" operator="out"/>
<feColorMatrix type="matrix" values="0 0 0 0 0.0368333 0 0 0 0 0.0236111 0 0 0 0 0.118056 0 0 0 0.05 0"/>
<feBlend mode="normal" in2="BackgroundImageFix" result="effect1_dropShadow_192_2928"/>
<feBlend mode="normal" in="SourceGraphic" in2="effect1_dropShadow_192_2928" result="shape"/>
</filter>
</defs>
</svg>
