<svg width="24" height="24" viewBox="0 0 24 24" fill="none" xmlns="http://www.w3.org/2000/svg">
<path d="M12.918 16.5903L9.24585 20.2625C9.24585 20.2625 9.24585 20.2625 9.24576 20.2625C9.24576 20.2625 9.24576 20.2626 9.24568 20.2626C7.72715 21.7812 5.25617 21.7813 3.73746 20.2626C3.00174 19.5269 2.59666 18.5487 2.59666 17.5084C2.59666 16.4682 3.00174 15.4902 3.7372 14.7545C3.73729 14.7544 3.73738 14.7543 3.73746 14.7542L7.40958 11.082C7.91653 10.575 7.91653 9.75289 7.40949 9.24594C6.90254 8.73898 6.08043 8.73898 5.57339 9.24594L1.90128 12.9181C1.90102 12.9184 1.90076 12.9187 1.9005 12.919C0.674959 14.145 0 15.7749 0 17.5084C0 19.2424 0.675219 20.8726 1.90136 22.0987C3.16698 23.3643 4.82927 23.9971 6.49166 23.9971C8.15404 23.9971 9.81642 23.3643 11.0819 22.0987V22.0986C11.082 22.0986 11.082 22.0986 11.082 22.0986L14.7541 18.4264C15.261 17.9194 15.261 17.0973 14.754 16.5903C14.2471 16.0833 13.4251 16.0833 12.918 16.5903Z" fill="white"/>
<path d="M23.9998 6.49173C23.9998 4.75776 23.3245 3.12758 22.0984 1.90143C19.5672 -0.629622 15.4489 -0.629535 12.9179 1.90143C12.9178 1.9016 12.9176 1.90169 12.9175 1.90186L9.24552 5.57381C8.73847 6.08076 8.73847 6.90295 9.24552 7.40991C9.49912 7.66351 9.83132 7.79023 10.1636 7.79023C10.4958 7.79023 10.8282 7.66343 11.0816 7.40991L14.7536 3.73797C14.7537 3.73779 14.7539 3.73771 14.7541 3.73753C16.2726 2.219 18.7436 2.21892 20.2623 3.73753C20.9979 4.47325 21.4032 5.45142 21.4032 6.49173C21.4032 7.53195 20.9981 8.50994 20.2625 9.24566C20.2625 9.24575 20.2624 9.24583 20.2623 9.24592L16.5902 12.9181C16.0832 13.4251 16.0832 14.2472 16.5903 14.7542C16.8438 15.0077 17.1761 15.1345 17.5083 15.1345C17.8406 15.1345 18.1728 15.0077 18.4264 14.7542L22.0985 11.082C22.0987 11.0818 22.099 11.0814 22.0993 11.0812C23.3248 9.85518 23.9998 8.22526 23.9998 6.49173Z" fill="white"/>
<path d="M7.40958 16.5903C7.6631 16.8438 7.99538 16.9706 8.32758 16.9706C8.65987 16.9706 8.99216 16.8438 9.24568 16.5903L16.5901 9.24586C17.0971 8.7389 17.0971 7.9168 16.5901 7.40976C16.0831 6.9028 15.261 6.9028 14.754 7.40976L7.40958 14.7541C6.90254 15.2612 6.90254 16.0833 7.40958 16.5903Z" fill="white"/>
</svg>
