<svg width="18" height="16" viewBox="0 0 18 16" fill="none" xmlns="http://www.w3.org/2000/svg">
<path d="M0.52656 12.6567H14.3084C14.432 12.6567 14.5515 12.6135 14.6463 12.5347C14.7786 12.4238 17.7982 9.82618 17.9823 4.21887H3.1809C2.99749 9.3088 0.216574 11.7012 0.187674 11.7251C0.0182484 11.8682 -0.0440864 12.1021 0.0321357 12.3101C0.10783 12.5177 0.305101 12.6567 0.52656 12.6567Z" fill="#ACD9B3"/>
<path d="M17.4726 1.05473H14.8357V0.527367C14.8357 0.232041 14.6037 0 14.3083 0C14.013 0 13.781 0.232041 13.781 0.527367V1.05473H11.109V0.527367C11.109 0.232041 10.8769 0 10.5816 0C10.2863 0 10.0543 0.232041 10.0543 0.527367V1.05473H7.41742V0.527367C7.41742 0.232041 7.18538 0 6.89005 0C6.59473 0 6.36269 0.232041 6.36269 0.527367V1.05473H3.72585C3.43053 1.05473 3.19849 1.28678 3.19849 1.5821V3.1642H17.9999V1.5821C17.9999 1.28678 17.7679 1.05473 17.4726 1.05473Z" fill="#ACD9B3"/>
<path d="M15.3235 13.3434C15.0371 13.5818 14.6777 13.7116 14.3084 13.7116H3.19855V15.2937C3.19855 15.5852 3.43442 15.8211 3.72591 15.8211H17.4726C17.7641 15.8211 18 15.5852 18 15.2937V9.38208C16.9832 11.8766 15.5644 13.1417 15.3235 13.3434Z" fill="#ACD9B3"/>
</svg>
