<svg width="14" height="14" viewBox="0 0 14 14" fill="none" xmlns="http://www.w3.org/2000/svg">
<path d="M0.683711 14C0.548492 14 0.416304 13.9599 0.303866 13.8848C0.191428 13.8097 0.103791 13.703 0.0520421 13.578C0.000292824 13.4531 -0.0132446 13.3156 0.0131421 13.183C0.0395289 13.0504 0.104654 12.9286 0.200281 12.833L12.8329 0.200245C12.9611 0.0720303 13.135 0 13.3163 0C13.4976 0 13.6715 0.0720303 13.7998 0.200245C13.928 0.32846 14 0.502356 14 0.68368C14 0.865003 13.928 1.0389 13.7998 1.16711L1.16714 13.7998C1.10371 13.8634 1.02836 13.9138 0.945394 13.9482C0.862433 13.9825 0.773502 14.0001 0.683711 14Z" fill="#1D212C"/>
<path d="M13.3163 14C13.2265 14.0001 13.1376 13.9825 13.0546 13.9482C12.9716 13.9138 12.8963 13.8634 12.8329 13.7998L0.200243 1.16711C0.0720297 1.0389 0 0.865003 0 0.68368C0 0.502356 0.0720297 0.32846 0.200243 0.200245C0.328457 0.0720303 0.502352 0 0.683673 0C0.864995 0 1.03889 0.0720303 1.1671 0.200245L13.7997 12.833C13.8953 12.9286 13.9605 13.0504 13.9869 13.183C14.0132 13.3156 13.9997 13.4531 13.948 13.578C13.8962 13.703 13.8086 13.8097 13.6961 13.8848C13.5837 13.9599 13.4515 14 13.3163 14Z" fill="#1D212C"/>
</svg>
