<svg width="16" height="16" viewBox="0 0 16 16" fill="none" xmlns="http://www.w3.org/2000/svg">
<g clip-path="url(#clip0_129_1649)">
<circle cx="7.66675" cy="8.3335" r="5" fill="white"/>
<path d="M2.34313 2.34315C-0.776181 5.46246 -0.776181 10.5375 2.34313 13.6569C5.46245 16.7762 10.5375 16.7762 13.6568 13.6569C16.7762 10.5375 16.7762 5.46246 13.6568 2.34315C10.5375 -0.776169 5.46245 -0.776169 2.34313 2.34315ZM10.9462 5.9965L8.94274 8L10.9462 10.0035C11.2065 10.2637 11.2065 10.686 10.9462 10.9462C10.686 11.2065 10.2637 11.2065 10.0035 10.9462L7.99999 8.94275L5.99649 10.9462C5.73624 11.2065 5.31398 11.2065 5.05374 10.9462C4.79349 10.686 4.79349 10.2637 5.05374 10.0035L7.05724 8L5.05374 5.9965C4.79349 5.73626 4.79349 5.314 5.05374 5.05375C5.31398 4.79351 5.73624 4.79351 5.99649 5.05375L7.99999 7.05725L10.0035 5.05375C10.2637 4.79351 10.686 4.79351 10.9462 5.05375C11.2065 5.314 11.2065 5.73626 10.9462 5.9965Z" fill="#F55F5F"/>
<path d="M2.34313 2.34315C-0.776181 5.46246 -0.776181 10.5375 2.34313 13.6569C5.46245 16.7762 10.5375 16.7762 13.6568 13.6569C16.7762 10.5375 16.7762 5.46246 13.6568 2.34315C10.5375 -0.776169 5.46245 -0.776169 2.34313 2.34315ZM10.9462 5.9965L8.94274 8L10.9462 10.0035C11.2065 10.2637 11.2065 10.686 10.9462 10.9462C10.686 11.2065 10.2637 11.2065 10.0035 10.9462L7.99999 8.94275L5.99649 10.9462C5.73624 11.2065 5.31398 11.2065 5.05374 10.9462C4.79349 10.686 4.79349 10.2637 5.05374 10.0035L7.05724 8L5.05374 5.9965C4.79349 5.73626 4.79349 5.314 5.05374 5.05375C5.31398 4.79351 5.73624 4.79351 5.99649 5.05375L7.99999 7.05725L10.0035 5.05375C10.2637 4.79351 10.686 4.79351 10.9462 5.05375C11.2065 5.314 11.2065 5.73626 10.9462 5.9965Z" fill="black" fill-opacity="0.2"/>
</g>
<defs>
<clipPath id="clip0_129_1649">
<rect width="16" height="16" fill="white"/>
</clipPath>
</defs>
</svg>
