<svg width="12" height="12" viewBox="0 0 12 12" fill="none" xmlns="http://www.w3.org/2000/svg">
<path d="M10.2445 1.75549C7.90345 -0.585164 4.09616 -0.585164 1.75507 1.75549C-0.585022 4.09615 -0.585022 7.90449 1.75507 10.2451C2.92562 11.4152 4.46283 12 6.00006 12C7.5373 12 9.074 11.4152 10.2445 10.2451C12.5852 7.90452 12.5852 4.09615 10.2445 1.75549ZM8.47571 7.76894C8.67129 7.96452 8.67129 8.28069 8.47571 8.47627C8.37816 8.57382 8.25011 8.62285 8.12204 8.62285C7.99398 8.62285 7.86591 8.57382 7.76836 8.47627L6.00004 6.7074L4.23221 8.47576C4.13417 8.57331 4.0061 8.62234 3.87854 8.62234C3.75049 8.62234 3.62241 8.57331 3.52487 8.47576C3.32928 8.28017 3.32928 7.96352 3.52487 7.76842L5.29269 6.00006L3.52437 4.2317C3.32879 4.03612 3.32879 3.71946 3.52437 3.52436C3.71946 3.32878 4.03611 3.32878 4.2317 3.52436L6.00002 5.29272L7.76834 3.52436C7.96392 3.32878 8.28008 3.32878 8.47566 3.52436C8.67125 3.71946 8.67125 4.03612 8.47566 4.2317L6.70734 6.00006L8.47571 7.76894Z" fill="#CBF147"/>
</svg>
