<svg width="24" height="25" viewBox="0 0 24 25" fill="none" xmlns="http://www.w3.org/2000/svg">
<path d="M19 7.6665C18.7348 7.6665 18.4804 7.77186 18.2929 7.9594C18.1053 8.14693 18 8.40129 18 8.6665V19.8575C17.9713 20.3632 17.744 20.8371 17.3675 21.1759C16.991 21.5147 16.4959 21.6911 15.99 21.6665H8.01C7.50409 21.6911 7.00898 21.5147 6.6325 21.1759C6.25603 20.8371 6.02868 20.3632 6 19.8575V8.6665C6 8.40129 5.89464 8.14693 5.7071 7.9594C5.51957 7.77186 5.26522 7.6665 5 7.6665C4.73478 7.6665 4.48043 7.77186 4.29289 7.9594C4.10536 8.14693 4 8.40129 4 8.6665V19.8575C4.02854 20.8937 4.46658 21.8764 5.21818 22.5904C5.96978 23.3043 6.97367 23.6913 8.01 23.6665H15.99C17.0263 23.6913 18.0302 23.3043 18.7818 22.5904C19.5334 21.8764 19.9714 20.8937 20 19.8575V8.6665C20 8.40129 19.8946 8.14693 19.7071 7.9594C19.5196 7.77186 19.2652 7.6665 19 7.6665Z" fill="#F55F5F"/>
<path d="M19 7.6665C18.7348 7.6665 18.4804 7.77186 18.2929 7.9594C18.1053 8.14693 18 8.40129 18 8.6665V19.8575C17.9713 20.3632 17.744 20.8371 17.3675 21.1759C16.991 21.5147 16.4959 21.6911 15.99 21.6665H8.01C7.50409 21.6911 7.00898 21.5147 6.6325 21.1759C6.25603 20.8371 6.02868 20.3632 6 19.8575V8.6665C6 8.40129 5.89464 8.14693 5.7071 7.9594C5.51957 7.77186 5.26522 7.6665 5 7.6665C4.73478 7.6665 4.48043 7.77186 4.29289 7.9594C4.10536 8.14693 4 8.40129 4 8.6665V19.8575C4.02854 20.8937 4.46658 21.8764 5.21818 22.5904C5.96978 23.3043 6.97367 23.6913 8.01 23.6665H15.99C17.0263 23.6913 18.0302 23.3043 18.7818 22.5904C19.5334 21.8764 19.9714 20.8937 20 19.8575V8.6665C20 8.40129 19.8946 8.14693 19.7071 7.9594C19.5196 7.77186 19.2652 7.6665 19 7.6665Z" fill="black" fill-opacity="0.2"/>
<path d="M20 4.6665H16V2.6665C16 2.40129 15.8946 2.14693 15.7071 1.9594C15.5196 1.77186 15.2652 1.6665 15 1.6665H9C8.73478 1.6665 8.48043 1.77186 8.29289 1.9594C8.10535 2.14693 8 2.40129 8 2.6665V4.6665H4C3.73478 4.6665 3.48043 4.77186 3.29289 4.9594C3.10536 5.14693 3 5.40129 3 5.6665C3 5.93172 3.10536 6.18607 3.29289 6.37361C3.48043 6.56115 3.73478 6.6665 4 6.6665H20C20.2652 6.6665 20.5196 6.56115 20.7071 6.37361C20.8946 6.18607 21 5.93172 21 5.6665C21 5.40129 20.8946 5.14693 20.7071 4.9594C20.5196 4.77186 20.2652 4.6665 20 4.6665ZM10 4.6665V3.6665H14V4.6665H10Z" fill="#F55F5F"/>
<path d="M20 4.6665H16V2.6665C16 2.40129 15.8946 2.14693 15.7071 1.9594C15.5196 1.77186 15.2652 1.6665 15 1.6665H9C8.73478 1.6665 8.48043 1.77186 8.29289 1.9594C8.10535 2.14693 8 2.40129 8 2.6665V4.6665H4C3.73478 4.6665 3.48043 4.77186 3.29289 4.9594C3.10536 5.14693 3 5.40129 3 5.6665C3 5.93172 3.10536 6.18607 3.29289 6.37361C3.48043 6.56115 3.73478 6.6665 4 6.6665H20C20.2652 6.6665 20.5196 6.56115 20.7071 6.37361C20.8946 6.18607 21 5.93172 21 5.6665C21 5.40129 20.8946 5.14693 20.7071 4.9594C20.5196 4.77186 20.2652 4.6665 20 4.6665ZM10 4.6665V3.6665H14V4.6665H10Z" fill="black" fill-opacity="0.2"/>
<path d="M11 17.6665V10.6665C11 10.4013 10.8946 10.1469 10.7071 9.9594C10.5196 9.77186 10.2652 9.6665 10 9.6665C9.73478 9.6665 9.48043 9.77186 9.29289 9.9594C9.10536 10.1469 9 10.4013 9 10.6665V17.6665C9 17.9317 9.10536 18.1861 9.29289 18.3736C9.48043 18.5611 9.73478 18.6665 10 18.6665C10.2652 18.6665 10.5196 18.5611 10.7071 18.3736C10.8946 18.1861 11 17.9317 11 17.6665Z" fill="#F55F5F"/>
<path d="M11 17.6665V10.6665C11 10.4013 10.8946 10.1469 10.7071 9.9594C10.5196 9.77186 10.2652 9.6665 10 9.6665C9.73478 9.6665 9.48043 9.77186 9.29289 9.9594C9.10536 10.1469 9 10.4013 9 10.6665V17.6665C9 17.9317 9.10536 18.1861 9.29289 18.3736C9.48043 18.5611 9.73478 18.6665 10 18.6665C10.2652 18.6665 10.5196 18.5611 10.7071 18.3736C10.8946 18.1861 11 17.9317 11 17.6665Z" fill="black" fill-opacity="0.2"/>
<path d="M15 17.6665V10.6665C15 10.4013 14.8947 10.1469 14.7071 9.9594C14.5196 9.77186 14.2652 9.6665 14 9.6665C13.7348 9.6665 13.4804 9.77186 13.2929 9.9594C13.1054 10.1469 13 10.4013 13 10.6665V17.6665C13 17.9317 13.1054 18.1861 13.2929 18.3736C13.4804 18.5611 13.7348 18.6665 14 18.6665C14.2652 18.6665 14.5196 18.5611 14.7071 18.3736C14.8947 18.1861 15 17.9317 15 17.6665Z" fill="#F55F5F"/>
<path d="M15 17.6665V10.6665C15 10.4013 14.8947 10.1469 14.7071 9.9594C14.5196 9.77186 14.2652 9.6665 14 9.6665C13.7348 9.6665 13.4804 9.77186 13.2929 9.9594C13.1054 10.1469 13 10.4013 13 10.6665V17.6665C13 17.9317 13.1054 18.1861 13.2929 18.3736C13.4804 18.5611 13.7348 18.6665 14 18.6665C14.2652 18.6665 14.5196 18.5611 14.7071 18.3736C14.8947 18.1861 15 17.9317 15 17.6665Z" fill="black" fill-opacity="0.2"/>
</svg>
