<svg width="24" height="24" viewBox="0 0 24 24" fill="none" xmlns="http://www.w3.org/2000/svg">
<path d="M20.4891 3.51113C15.8069 -1.17008 8.19233 -1.17008 3.51013 3.51113C-1.17004 8.19234 -1.17004 15.8089 3.51013 20.4901C5.85123 22.8302 8.92566 23.9997 12.0001 23.9997C15.0746 23.9997 18.148 22.8301 20.4891 20.4901C25.1703 15.8089 25.1703 8.19234 20.4891 3.51113ZM16.9514 15.5378C17.3426 15.9289 17.3426 16.5612 16.9514 16.9524C16.7563 17.1475 16.5002 17.2456 16.2441 17.2456C15.988 17.2456 15.7318 17.1475 15.5367 16.9524L12.0001 13.4147L8.46443 16.9514C8.26835 17.1465 8.0122 17.2445 7.75708 17.2445C7.50097 17.2445 7.24482 17.1465 7.04973 16.9514C6.65857 16.5602 6.65857 15.9269 7.04973 15.5367L10.5854 12.0001L7.04875 8.46345C6.65758 8.07228 6.65758 7.43899 7.04875 7.0488C7.43893 6.65763 8.07223 6.65763 8.4634 7.0488L12 10.5854L15.5367 7.0488C15.9279 6.65763 16.5602 6.65763 16.9513 7.0488C17.3425 7.43899 17.3425 8.07228 16.9513 8.46345L13.4147 12.0001L16.9514 15.5378Z" fill="#F55F5F"/>
<path d="M20.4891 3.51113C15.8069 -1.17008 8.19233 -1.17008 3.51013 3.51113C-1.17004 8.19234 -1.17004 15.8089 3.51013 20.4901C5.85123 22.8302 8.92566 23.9997 12.0001 23.9997C15.0746 23.9997 18.148 22.8301 20.4891 20.4901C25.1703 15.8089 25.1703 8.19234 20.4891 3.51113ZM16.9514 15.5378C17.3426 15.9289 17.3426 16.5612 16.9514 16.9524C16.7563 17.1475 16.5002 17.2456 16.2441 17.2456C15.988 17.2456 15.7318 17.1475 15.5367 16.9524L12.0001 13.4147L8.46443 16.9514C8.26835 17.1465 8.0122 17.2445 7.75708 17.2445C7.50097 17.2445 7.24482 17.1465 7.04973 16.9514C6.65857 16.5602 6.65857 15.9269 7.04973 15.5367L10.5854 12.0001L7.04875 8.46345C6.65758 8.07228 6.65758 7.43899 7.04875 7.0488C7.43893 6.65763 8.07223 6.65763 8.4634 7.0488L12 10.5854L15.5367 7.0488C15.9279 6.65763 16.5602 6.65763 16.9513 7.0488C17.3425 7.43899 17.3425 8.07228 16.9513 8.46345L13.4147 12.0001L16.9514 15.5378Z" fill="black" fill-opacity="0.2"/>
</svg>
