<svg width="25" height="25" viewBox="0 0 25 25" fill="none" xmlns="http://www.w3.org/2000/svg">
<path d="M12.4416 0.406916C10.0614 0.406916 7.73462 1.11273 5.75554 2.43512C3.77645 3.7575 2.23394 5.63705 1.32307 7.8361C0.412197 10.0351 0.173871 12.4549 0.63823 14.7894C1.10259 17.1239 2.24878 19.2682 3.93185 20.9513C5.61493 22.6344 7.75929 23.7806 10.0938 24.2449C12.4283 24.7093 14.848 24.471 17.0471 23.5601C19.2461 22.6492 21.1257 21.1067 22.4481 19.1276C23.7704 17.1486 24.4763 14.8218 24.4763 12.4416C24.4763 10.8611 24.165 9.2962 23.5602 7.8361C22.9554 6.37599 22.0689 5.0493 20.9514 3.93178C19.8339 2.81426 18.5072 1.92779 17.0471 1.323C15.587 0.718201 14.022 0.406916 12.4416 0.406916V0.406916ZM17.6165 9.56527L12.1167 16.7861C12.0046 16.9317 11.8606 17.0497 11.6958 17.1311C11.531 17.2124 11.3497 17.255 11.166 17.2554C10.9832 17.2564 10.8025 17.2157 10.6378 17.1365C10.4731 17.0572 10.3285 16.9415 10.2152 16.7981L7.27876 13.0553C7.18157 12.9305 7.10992 12.7877 7.0679 12.6351C7.02588 12.4826 7.01432 12.3233 7.03388 12.1663C7.05343 12.0093 7.10373 11.8576 7.18188 11.7201C7.26003 11.5825 7.36452 11.4616 7.48937 11.3645C7.74152 11.1682 8.06132 11.0801 8.37842 11.1196C8.53543 11.1391 8.68706 11.1894 8.82463 11.2676C8.96221 11.3457 9.08304 11.4502 9.18024 11.5751L11.1419 14.0783L15.691 8.06094C15.7874 7.93451 15.9077 7.8283 16.0452 7.74839C16.1826 7.66847 16.3345 7.61641 16.4921 7.59518C16.6496 7.57395 16.8098 7.58396 16.9635 7.62464C17.1172 7.66532 17.2614 7.73588 17.3879 7.83229C17.5143 7.92869 17.6205 8.04906 17.7004 8.18651C17.7803 8.32396 17.8324 8.4758 17.8536 8.63337C17.8749 8.79094 17.8648 8.95115 17.8242 9.10485C17.7835 9.25855 17.7129 9.40274 17.6165 9.52917V9.56527Z" fill="#CBF147"/>
</svg>
