<svg width="37" height="30" viewBox="0 0 37 30" fill="none" xmlns="http://www.w3.org/2000/svg">
<path d="M23.2333 23.8755C17.4625 25.8466 11.6094 23.495 8.89332 19.081C6.1292 14.5871 6.47014 8.63579 9.36468 4.25794C9.96876 3.3466 11.4996 4.14569 11.0099 5.05702C8.87272 9.03914 8.45856 13.7518 10.5522 17.8043C11.4492 19.5682 12.991 21.0526 14.9593 22.0471C17.5335 23.3618 20.2221 23.162 23.0754 22.9585C23.7619 22.909 23.7596 23.6929 23.2333 23.8755Z" fill="#CBF147"/>
<path d="M29.5397 23.1007C27.2126 24.4154 24.7345 26.0155 21.8926 26.4265C21.7922 26.4452 21.687 26.4312 21.5988 26.3872C21.5106 26.3432 21.4461 26.2726 21.4187 26.1902C21.3914 26.1077 21.4032 26.0197 21.4518 25.9443C21.5004 25.8689 21.5821 25.812 21.6798 25.7853C24.0687 25.0052 26.1006 23.8523 28.1325 22.5946C26.8419 21.7404 25.3523 21.0383 24.2426 20.0338C24.1427 19.9443 24.0843 19.8282 24.0777 19.7063C24.0711 19.5843 24.1168 19.4643 24.2066 19.3678C24.2964 19.2712 24.4245 19.2042 24.5681 19.1788C24.7117 19.1534 24.8615 19.1712 24.9908 19.229C26.7099 20.042 28.2841 21.0506 29.6679 22.2255C29.7378 22.2866 29.7906 22.3597 29.8225 22.4397C29.8544 22.5197 29.8646 22.6046 29.8523 22.6883C29.8401 22.772 29.8057 22.8524 29.7517 22.9237C29.6976 22.995 29.6252 23.0554 29.5397 23.1007Z" fill="#CBF147"/>
</svg>
