<svg width="30" height="30" viewBox="0 0 30 30" fill="none" xmlns="http://www.w3.org/2000/svg">
<path d="M18.9847 6.70057C14.3536 4.79817 9.65633 7.06783 7.47665 11.328C5.25841 15.6654 5.53201 21.4093 7.85492 25.6346C8.33971 26.5142 9.56819 25.7429 9.17522 24.8634C7.46012 21.02 7.12775 16.4715 8.80796 12.5602C9.52774 10.8578 10.7651 9.4251 12.3447 8.46525C14.4105 7.19637 16.5681 7.38918 18.858 7.58567C19.4089 7.63341 19.407 6.87686 18.9847 6.70057Z" fill="#CBF147"/>
<path d="M24.0454 7.44815C22.1779 6.17927 20.1892 4.63494 17.9085 4.2383C17.8279 4.22019 17.7435 4.23376 17.6727 4.27622C17.6019 4.31867 17.5501 4.38675 17.5282 4.46633C17.5062 4.54592 17.5157 4.6309 17.5547 4.70366C17.5937 4.77642 17.6593 4.83138 17.7377 4.85713C19.6548 5.61002 21.2854 6.72281 22.9161 7.9366C21.8804 8.7611 20.685 9.43869 19.7944 10.4082C19.7142 10.4946 19.6673 10.6066 19.662 10.7244C19.6568 10.8421 19.6934 10.9578 19.7655 11.0511C19.8375 11.1443 19.9403 11.2089 20.0556 11.2334C20.1708 11.258 20.291 11.2408 20.3948 11.185C21.7744 10.4003 23.0378 9.42686 24.1482 8.29284C24.2043 8.23395 24.2467 8.16335 24.2723 8.08613C24.2979 8.0089 24.3061 7.92697 24.2963 7.84621C24.2864 7.76545 24.2588 7.68787 24.2155 7.61904C24.1721 7.55022 24.114 7.49185 24.0454 7.44815Z" fill="#CBF147"/>
</svg>
