<svg width="24" height="24" viewBox="0 0 24 24" fill="none" xmlns="http://www.w3.org/2000/svg">
<path fill-rule="evenodd" clip-rule="evenodd" d="M12.3569 1.38574C6.17095 1.38574 1.16406 6.3918 1.16406 12.5786C1.16406 18.7646 6.17012 23.7715 12.3569 23.7715C18.5429 23.7715 23.5498 18.7654 23.5498 12.5786C23.5498 6.39263 18.5437 1.38574 12.3569 1.38574ZM12.3569 22.0226C7.13751 22.0226 2.91295 17.7987 2.91295 12.5786C2.91295 7.35919 7.13681 3.13463 12.3569 3.13463C17.5764 3.13463 21.8009 7.35849 21.8009 12.5786C21.8009 17.798 17.5771 22.0226 12.3569 22.0226ZM12.3569 19.0276C12.9606 19.0276 13.45 18.5383 13.45 17.9346C13.45 17.3309 12.9606 16.8415 12.3569 16.8415C11.7533 16.8415 11.2639 17.3309 11.2639 17.9346C11.2639 18.5383 11.7533 19.0276 12.3569 19.0276ZM8.85916 10.5018C8.85916 8.57314 10.4283 7.00404 12.3569 7.00404C14.2856 7.00404 15.8547 8.57314 15.8547 10.5018C15.8547 12.1287 14.7383 13.4997 13.2314 13.8889V15.3112C13.2314 15.7942 12.8399 16.1857 12.3569 16.1857C11.874 16.1857 11.4825 15.7942 11.4825 15.3112V13.1251C11.4825 12.6422 11.874 12.2507 12.3569 12.2507C13.3213 12.2507 14.1058 11.4661 14.1058 10.5018C14.1058 9.53748 13.3213 8.75292 12.3569 8.75292C11.3926 8.75292 10.608 9.53748 10.608 10.5018C10.608 10.9848 10.2166 11.3763 9.7336 11.3763C9.25065 11.3763 8.85916 10.9848 8.85916 10.5018Z" fill="#1D212C"/>
</svg>
