<svg width="24" height="24" viewBox="0 0 24 24" fill="none" xmlns="http://www.w3.org/2000/svg">
<g clip-path="url(#clip0_317_3517)">
<path d="M12.0042 5.83789C8.60119 5.83789 5.84619 8.59589 5.84619 11.9959C5.84619 15.3989 8.60419 18.1539 12.0042 18.1539C15.4072 18.1539 18.1622 15.3959 18.1622 11.9959C18.1622 8.59289 15.4042 5.83789 12.0042 5.83789ZM12.0042 15.9929C9.79519 15.9929 8.00719 14.2039 8.00719 11.9959C8.00719 9.78789 9.79619 7.99889 12.0042 7.99889C14.2122 7.99889 16.0012 9.78789 16.0012 11.9959C16.0022 14.2039 14.2132 15.9929 12.0042 15.9929Z" fill="white"/>
<path d="M16.9482 0.0761191C14.7402 -0.0268809 9.27123 -0.0218809 7.06123 0.0761191C5.11923 0.167119 3.40623 0.636119 2.02523 2.01712C-0.282773 4.32512 0.0122273 7.43512 0.0122273 11.9961C0.0122273 16.6641 -0.247773 19.7021 2.02523 21.9751C4.34223 24.2911 7.49723 23.9881 12.0042 23.9881C16.6282 23.9881 18.2242 23.9911 19.8592 23.3581C22.0822 22.4951 23.7602 20.5081 23.9242 16.9391C24.0282 14.7301 24.0222 9.26213 23.9242 7.05212C23.7262 2.83912 21.4652 0.284119 16.9482 0.0761191ZM20.4432 20.4481C18.9302 21.9611 16.8312 21.8261 11.9752 21.8261C6.97523 21.8261 4.97023 21.9001 3.50723 20.4331C1.82223 18.7561 2.12723 16.0631 2.12723 11.9801C2.12723 6.45512 1.56023 2.47612 7.10523 2.19212C8.37923 2.14712 8.75423 2.13212 11.9612 2.13212L12.0062 2.16212C17.3352 2.16212 21.5162 1.60412 21.7672 7.14812C21.8242 8.41313 21.8372 8.79313 21.8372 11.9951C21.8362 16.9371 21.9302 18.9541 20.4432 20.4481Z" fill="white"/>
<path d="M18.4058 7.03401C19.2005 7.03401 19.8448 6.38975 19.8448 5.59501C19.8448 4.80027 19.2005 4.15601 18.4058 4.15601C17.6111 4.15601 16.9668 4.80027 16.9668 5.59501C16.9668 6.38975 17.6111 7.03401 18.4058 7.03401Z" fill="white"/>
</g>
<defs>
<clipPath id="clip0_317_3517">
<rect width="24" height="24" fill="white"/>
</clipPath>
</defs>
</svg>
