<svg width="35" height="48" viewBox="0 0 35 48" fill="none" xmlns="http://www.w3.org/2000/svg">
<path d="M17.4126 48C16.3432 47.996 15.3188 47.5693 14.5632 46.8129C13.8076 46.0565 13.3821 45.0319 13.3797 43.963V35.5825L5.94344 39.4617C5.32866 39.7824 4.64154 39.9393 3.9484 39.9172C3.25527 39.8952 2.57953 39.6949 1.98643 39.3356C1.39332 38.9764 0.902885 38.4705 0.562456 37.8666C0.222027 37.2627 0.043107 36.5813 0.0429663 35.8881V6.69164L0 0L15.0165 0.104869V32.8839L27.1851 26.5368L34.9742 38.8574L19.3691 47.4906C18.7708 47.8237 18.0975 47.999 17.4126 48V48ZM15.0145 34.7296V43.963C15.0146 44.38 15.1234 44.7897 15.3304 45.1517C15.5373 45.5137 15.8351 45.8155 16.1944 46.0273C16.5537 46.2391 16.9621 46.3535 17.3792 46.3593C17.7963 46.3651 18.2077 46.2621 18.5727 46.0604L32.6619 38.2702L26.6036 28.6881L15.0145 34.7296ZM1.64674 1.64994L1.67971 6.68564V35.8881C1.67995 36.3 1.78636 36.7048 1.98867 37.0636C2.19099 37.4224 2.48238 37.7231 2.83476 37.9366C3.18713 38.1501 3.58859 38.2692 4.00043 38.2825C4.41227 38.2958 4.82059 38.2028 5.18602 38.0125L13.3797 33.7378V1.73183L1.64674 1.64994Z" fill="#CBF147"/>
<path d="M10.5508 44.6778C9.4811 44.6743 8.45625 44.2476 7.70048 43.4909C6.9447 42.7342 6.51952 41.7091 6.51794 40.6398V1.41199H8.15469V40.6398C8.15544 41.0558 8.26446 41.4643 8.47103 41.8254C8.6776 42.1864 8.97461 42.4876 9.33287 42.6992C9.69113 42.9107 10.0983 43.0255 10.5144 43.0322C10.9304 43.0389 11.3411 42.9372 11.706 42.7372L30.1278 32.6279L30.9152 34.0621L12.4934 44.1744C11.8987 44.5032 11.2305 44.6763 10.5508 44.6778V44.6778Z" fill="#CBF147"/>
</svg>
