<svg width="16" height="16" viewBox="0 0 16 16" fill="none" xmlns="http://www.w3.org/2000/svg">
<path d="M15.2016 13.8101H4.50247C4.0615 13.8101 3.7041 13.4527 3.7041 13.0117C3.7041 12.5708 4.0615 12.2134 4.50247 12.2134H15.2013C15.6423 12.2134 15.9997 12.5708 15.9997 13.0117C15.9997 13.4527 15.6426 13.8101 15.2016 13.8101Z" fill="black"/>
<path d="M15.2016 8.79887H4.50247C4.0615 8.79887 3.7041 8.44147 3.7041 8.00051C3.7041 7.55955 4.0615 7.20215 4.50247 7.20215H15.2013C15.6423 7.20215 15.9997 7.55955 15.9997 8.00051C16 8.44147 15.6426 8.79887 15.2016 8.79887Z" fill="black"/>
<path d="M15.2016 3.78716H4.50247C4.0615 3.78716 3.7041 3.42976 3.7041 2.98879C3.7041 2.54783 4.0615 2.19043 4.50247 2.19043H15.2013C15.6423 2.19043 15.9997 2.54783 15.9997 2.98879C15.9997 3.42976 15.6426 3.78716 15.2016 3.78716Z" fill="black"/>
<path d="M1.0722 4.12292C1.66436 4.12292 2.1444 3.64288 2.1444 3.05072C2.1444 2.45856 1.66436 1.97852 1.0722 1.97852C0.480041 1.97852 0 2.45856 0 3.05072C0 3.64288 0.480041 4.12292 1.0722 4.12292Z" fill="black"/>
<path d="M1.0722 9.07263C1.66436 9.07263 2.1444 8.59259 2.1444 8.00042C2.1444 7.40826 1.66436 6.92822 1.0722 6.92822C0.480041 6.92822 0 7.40826 0 8.00042C0 8.59259 0.480041 9.07263 1.0722 9.07263Z" fill="black"/>
<path d="M1.0722 14.0223C1.66436 14.0223 2.1444 13.5423 2.1444 12.9501C2.1444 12.358 1.66436 11.8779 1.0722 11.8779C0.480041 11.8779 0 12.358 0 12.9501C0 13.5423 0.480041 14.0223 1.0722 14.0223Z" fill="black"/>
</svg>
