<svg width="200" height="203" viewBox="0 0 200 203" fill="none" xmlns="http://www.w3.org/2000/svg">
<path d="M183.074 159.031C170.95 179.222 154.339 190.248 133.813 197.361C117.536 202.993 95.6268 204.282 72.2375 196.883C63.5023 194.115 54.5761 190.487 47.5593 186.764L44.4089 190.869C43.3111 192.301 41.6404 193.303 39.8265 193.351C36.6761 193.447 36.3897 193.208 35.6737 190.964C33.8121 184.95 32.0937 180.463 30.5663 173.589C30.5663 170.869 32.8575 168.768 35.5305 168.959C40.6857 169.389 48.0367 170.582 51.7599 171.871C52.7145 172.205 53.7169 172.587 54.2897 173.399C55.7695 175.356 54.2897 178.029 52.81 179.986L52.2372 180.702C57.1537 183.232 62.0225 184.616 67.3209 187.05C86.2233 195.69 105.317 196.12 119.493 193.876C132.238 191.824 146.081 186.621 158.014 177.122C174.53 163.947 187.323 141.942 188.182 113.35C189.948 52.9196 137.68 26.3322 103.789 27.0482C78.3951 27.5732 54.5761 39.077 39.6833 56.7383C29.8025 68.433 26.3657 76.834 21.2105 91.6314C20.2241 94.3999 19.3012 97.8049 18.442 101.846C14.7825 104.36 12.9686 103.708 13.0004 99.8892C13.0481 95.7364 13.9073 93.302 14.9575 89.197C23.3108 57.4543 48.3708 31.9647 79.3975 24.0887C114.863 15.0194 155.103 26.0458 176.726 55.545C198.349 85.0919 201.929 127.67 183.074 159.031Z" fill="#E7EEEA"/>
<path d="M103.026 186.525C95.5315 186.525 88.5147 185.571 82.6912 183.709C51.4259 173.78 35.4352 157.742 29.2776 130.152C27.7979 123.517 27.3206 116.119 27.7024 106.858C28.3707 90.7244 33.5736 77.2636 44.0272 64.4233C58.7768 46.2369 80.1136 36.2129 104.028 36.2129C105.428 36.2129 106.828 36.2447 108.229 36.3084C131.236 37.454 153.289 49.435 167.227 68.3374C191.046 100.748 181.404 142.42 160.21 165.141C148.134 178.124 125.651 186.525 103.026 186.525Z" fill="#ACD9B3"/>
<path d="M156.63 75.3545C176.583 102.467 170.521 136.835 152.191 156.549C136.725 173.16 114.052 178.22 89.2307 173.876C66.3664 169.866 45.6024 150.678 40.5427 128.052C39.1107 121.513 38.9197 114.782 39.2061 108.1C39.7789 94.1614 44.2659 82.8008 53.0965 71.9654C66.9869 54.8769 86.9395 47.0009 107.847 48.0033C127.322 48.9579 144.745 59.1729 156.63 75.3545Z" fill="#E7EEEA"/>
<g style="mix-blend-mode:multiply">
<g style="mix-blend-mode:multiply">
<path d="M89.9467 174.019C89.708 173.972 89.4693 173.924 89.2307 173.876C66.3664 169.867 45.6024 150.678 40.5427 128.052C39.1107 121.513 38.9197 114.782 39.2061 108.1C39.7789 94.1614 44.2659 82.8009 53.0965 71.9654C66.9869 54.8769 86.9395 47.0009 107.847 48.0033C121.451 48.6715 134.005 53.8745 144.458 62.4665C141.976 61.0822 139.398 59.8412 136.821 58.7433C119.685 51.5355 99.5888 53.063 82.6435 60.1275C66.3664 66.9534 53.0488 79.8891 49.9939 97.7414C46.9389 115.785 49.3733 135.069 60.4952 149.675C66.3664 157.408 75.1971 164.425 83.2163 169.962C85.3165 171.394 87.6077 172.778 89.9467 174.019Z" fill="#DCECFF"/>
</g>
</g>
<path d="M100.209 79.5547C101.068 79.5547 101.737 88.1467 101.737 98.6958C101.737 109.197 101.068 117.789 100.209 117.789C99.3978 117.789 98.7295 109.197 98.7295 98.6958C98.7295 88.1467 99.3978 79.5547 100.209 79.5547Z" fill="#141318"/>
<path d="M131.331 116.548C131.331 117.407 125.126 118.028 117.536 117.98C109.947 117.98 103.789 117.264 103.789 116.452C103.789 115.641 109.947 114.973 117.536 115.02C125.174 115.068 131.331 115.736 131.331 116.548Z" fill="#141318"/>
<path d="M61.1632 115.116C61.1632 116.214 58.156 117.073 54.4805 117.073C50.805 117.073 47.7979 116.214 47.7979 115.116C47.7979 114.018 50.805 113.111 54.4805 113.111C58.156 113.111 61.1632 114.018 61.1632 115.116Z" fill="#73C27F"/>
<path d="M100.305 66.285C99.207 66.3328 98.1091 63.6597 97.8227 60.2229C97.5363 56.7861 98.2045 53.9221 99.3024 53.8267C100.4 53.7312 101.498 56.452 101.785 59.8888C102.071 63.3256 101.403 66.1896 100.305 66.285Z" fill="#73C27F"/>
<path d="M104.648 155.069C105.794 155.069 106.653 158.076 106.653 161.751C106.653 165.427 105.794 168.386 104.648 168.386C103.551 168.386 102.691 165.427 102.691 161.751C102.691 158.076 103.551 155.069 104.648 155.069Z" fill="#73C27F"/>
<path d="M162.406 111.536C162.406 112.634 159.637 113.541 156.2 113.541C152.764 113.541 149.995 112.634 149.995 111.536C149.995 110.438 152.764 109.579 156.2 109.579C159.637 109.579 162.406 110.438 162.406 111.536Z" fill="#73C27F"/>
<path d="M66.4617 136.405C66.7481 137.455 66.2708 138.649 64.8865 139.89C63.5023 141.035 62.0703 141.465 61.1633 140.892C60.2087 140.272 60.686 138.219 62.2612 136.882C63.0727 136.166 63.9796 135.785 64.7911 135.689C65.6025 135.594 66.3185 135.88 66.4617 136.405Z" fill="#73C27F"/>
<path d="M78.8725 149.723C79.4931 150.63 79.1589 151.966 78.3952 152.921C77.6315 153.923 76.4381 154.592 75.388 154.21C74.3856 153.876 74.0515 152.062 75.2448 150.486C76.4381 148.959 78.2997 148.816 78.8725 149.723Z" fill="#73C27F"/>
<path d="M129.47 156.883C128.42 157.122 127.322 156.31 126.797 155.212C126.224 154.067 126.749 153.494 126.892 152.348C126.988 152.11 127.179 151.871 127.465 151.728C127.752 151.632 128.133 151.632 128.515 151.775C129.327 152.014 129.995 152.682 130.377 153.494C131.141 155.069 130.568 156.644 129.47 156.883Z" fill="#73C27F"/>
<path d="M150.807 143.613C150.043 144.377 148.42 144.043 147.179 142.849C145.938 141.608 145.508 140.033 146.32 139.222C147.083 138.458 148.706 138.792 149.947 139.985C151.188 141.179 151.57 142.802 150.807 143.613Z" fill="#73C27F"/>
<path d="M142.787 76.8342C143.694 77.4547 143.408 79.3641 142.215 81.1302C141.021 82.8486 139.303 83.7556 138.396 83.0873C137.489 82.4668 137.728 80.5574 138.969 78.839C140.162 77.1206 141.88 76.2137 142.787 76.8342Z" fill="#73C27F"/>
<path d="M126.797 64.3756C127.56 65.187 128.133 65.903 128.038 67.7647C127.942 68.6716 127.608 69.674 127.035 70.3423C126.462 71.0106 125.699 71.1538 125.269 70.8196C124.505 70.0081 123.933 69.2921 124.028 67.4305C124.123 66.5236 124.458 65.5212 125.03 64.8529C125.603 64.1846 126.367 64.0414 126.797 64.3756Z" fill="#73C27F"/>
<path d="M72.0467 78.4567C71.2352 79.2204 69.5168 78.6954 68.228 77.2634C66.9392 75.8791 66.5096 74.1607 67.3211 73.397C68.1326 72.6332 69.851 73.1583 71.1398 74.5903C72.4286 75.9746 72.8582 77.693 72.0467 78.4567Z" fill="#73C27F"/>
<path d="M61.1636 93.7314C60.8772 94.2087 60.3521 94.4951 59.7316 94.5906C59.0633 94.6383 58.2996 94.6383 57.3449 94.161C56.3425 93.7314 55.4833 92.7767 55.2924 91.9653C55.0537 91.1538 55.2924 90.5333 55.7697 90.2469C56.247 89.9605 56.8198 90.0082 57.3926 90.1037C57.9654 90.1992 58.395 90.2469 59.0633 90.581C59.7316 90.8674 60.4953 91.4402 60.9249 92.013C61.3545 92.6335 61.45 93.2541 61.1636 93.7314Z" fill="#73C27F"/>
<path d="M99.684 112.395C99.8749 110.963 102.023 110.82 103.216 111.584C105.746 113.255 106.08 117.36 103.884 119.364C101.689 121.417 97.5837 120.749 96.1517 118.123C94.7197 115.498 96.3904 111.679 99.3021 110.963L99.684 112.395Z" fill="#ACD9B3"/>
<path d="M89.5171 49.4827C89.5171 49.4349 90.2808 49.244 91.7128 49.0053C93.1448 48.7189 95.2451 48.3848 98.0136 48.1939C98.7137 48.1302 99.4456 48.0666 100.209 48.003C100.973 47.9711 101.769 47.9393 102.596 47.9075C103.455 47.8757 104.346 47.8438 105.269 47.812C106.192 47.8438 107.147 47.8757 108.133 47.9075C112.047 48.0507 116.582 48.5757 121.403 49.7213C126.272 50.8669 131.475 52.7286 136.63 55.6403C141.737 58.5043 146.797 62.4661 151.332 67.2395C155.819 72.0605 160.115 77.6453 163.313 84.0893C166.606 90.5333 168.85 97.741 169.757 105.378C171.571 120.605 167.657 135.45 160.831 146.763C157.394 152.396 153.289 157.312 148.85 161.179C144.458 165.045 139.685 167.909 135.15 170.009C126.033 174.162 117.871 175.212 112.381 175.546C110.997 175.642 109.756 175.642 108.706 175.642C107.608 175.69 106.749 175.642 105.985 175.594C104.553 175.499 103.789 175.403 103.789 175.355C103.789 175.117 106.844 175.164 112.286 174.592C117.68 173.971 125.651 172.682 134.434 168.434C138.778 166.334 143.313 163.47 147.513 159.651C151.761 155.88 155.628 151.107 158.874 145.618C165.365 134.639 169.089 120.319 167.322 105.665C166.511 98.3139 164.315 91.3925 161.213 85.1872C158.158 78.9341 154.053 73.4925 149.709 68.7669C145.317 64.0891 140.544 60.2227 135.627 57.3587C130.711 54.4947 125.699 52.5853 120.973 51.392C116.295 50.1509 111.904 49.5304 108.038 49.2917C107.083 49.2281 106.144 49.1645 105.221 49.1008C104.33 49.069 103.471 49.0531 102.644 49.0531C101.816 49.0531 101.021 49.0531 100.257 49.0531C99.4934 49.0849 98.7614 49.1008 98.0614 49.1008C95.3406 49.1963 93.1926 49.3872 91.7606 49.4827C90.2808 49.5781 89.5171 49.5781 89.5171 49.4827Z" fill="#5F7BAA"/>
<path d="M136.821 168.052C136.868 168.1 136.296 168.768 134.911 169.532C133.575 170.344 131.331 171.155 128.467 171.919C125.603 172.635 122.166 173.733 118.061 174.735C116.009 175.212 113.765 175.69 111.331 175.928C110.138 176.072 108.897 176.072 107.608 176.167C106.367 176.167 105.03 176.31 103.694 176.263C98.3476 176.215 92.5241 175.499 86.3665 174.019C80.2566 172.539 73.9081 170.057 67.7982 166.477C61.6883 162.897 55.7694 158.124 50.9006 152.062C45.9841 146.047 42.1654 138.792 40.0651 130.82C38.8241 126.906 38.3467 122.849 38.0603 118.839C37.8217 114.877 37.8217 110.963 38.0603 107.145C38.4899 99.4119 40.2561 92.0132 43.2633 85.5215C49.3254 72.5857 58.7766 63.3255 67.7982 57.5975C76.8675 51.8217 85.4596 49.626 91.283 48.6713C92.7628 48.4326 94.0515 48.2417 95.1971 48.1463C96.3427 48.0508 97.2974 47.9553 98.1089 47.9553C99.6841 47.9076 100.496 47.9553 100.496 48.0031C100.496 48.2417 97.202 48.3849 91.4739 49.5783C85.7459 50.8193 77.4403 53.2537 68.7529 59.0295C64.4091 61.8935 59.97 65.6167 55.9126 70.1991C51.903 74.7815 48.0843 80.2231 45.3158 86.4761C42.4518 92.6815 40.8289 99.7937 40.447 107.24C40.2083 111.011 40.2083 114.83 40.447 118.696C40.7334 122.563 41.2108 126.429 42.4041 130.2C44.4566 137.837 48.0843 144.806 52.7622 150.582C57.3923 156.405 63.0249 161.036 68.9438 164.568C74.815 168.052 80.9249 170.582 86.8915 172.11C92.8105 173.589 98.5385 174.353 103.741 174.544C114.29 175.165 122.405 172.062 128.229 170.964C131.14 170.391 133.288 169.771 134.72 169.103C136.105 168.482 136.773 168.005 136.821 168.052Z" fill="#5F7BAA"/>
<path d="M100.448 76.4041C102.071 77.7884 103.408 79.5068 104.314 81.4639C104.505 81.798 104.649 82.1799 104.601 82.5617C104.505 83.4687 103.36 83.8028 102.453 83.946C101.053 84.1051 99.6525 84.2802 98.2523 84.4711C96.9158 84.662 95.1974 84.5188 94.8633 83.2778C94.7201 82.6572 95.0065 82.0367 95.2929 81.4639C96.3907 79.3636 97.7273 77.3588 99.3025 75.5449L100.448 76.4041Z" fill="#141318"/>
<path d="M133.432 117.169C132.048 118.792 130.281 120.128 128.372 121.083C128.038 121.226 127.656 121.369 127.274 121.321C126.367 121.226 126.033 120.08 125.89 119.173C125.731 117.773 125.556 116.373 125.365 114.973C125.174 113.684 125.317 111.918 126.558 111.632C127.179 111.441 127.799 111.727 128.324 112.014C130.472 113.111 132.477 114.496 134.291 116.023L133.432 117.169Z" fill="#141318"/>
<path d="M73.6694 180.177C73.7172 180.081 74.6241 180.368 76.247 180.94C77.1062 181.227 78.1086 181.656 79.302 182.038C80.543 182.388 81.9591 182.786 83.5502 183.232C85.1732 183.709 86.987 183.995 88.9441 184.425C90.9489 184.855 93.1446 185.046 95.4358 185.38C100.114 185.762 105.508 186.096 111.379 185.523C117.298 185.046 123.694 183.995 130.329 181.895C136.964 179.795 143.79 176.74 150.138 172.301C150.95 171.823 151.713 171.203 152.477 170.582C153.241 169.946 154.005 169.325 154.768 168.721C156.296 167.432 157.68 165.952 159.16 164.568C160.496 163.088 161.785 161.465 163.122 159.938C164.363 158.219 165.604 156.549 166.797 154.783C171.38 147.718 175.055 139.603 177.299 130.916C179.542 122.276 180.353 113.446 179.637 104.997C178.969 96.5957 176.869 88.6242 173.671 81.5119C172.812 79.7935 171.905 78.0751 171.045 76.4045L170.377 75.1634L169.613 73.97C169.104 73.1745 168.611 72.3949 168.134 71.6311C167.625 70.8674 167.115 70.1036 166.606 69.3399C166.129 68.5762 165.508 67.9079 164.983 67.1919C163.933 65.7599 162.74 64.4234 161.642 63.0868C157.06 57.8839 152.048 53.7311 147.179 50.3898C137.441 43.6594 128.229 40.4135 121.832 38.7428C115.436 37.1199 111.713 36.7858 111.761 36.5471C111.761 36.4994 112.668 36.4994 114.434 36.6426C115.325 36.7062 116.407 36.8335 117.68 37.0244C118.316 37.1517 119 37.2631 119.732 37.3586C120.464 37.5177 121.244 37.6768 122.071 37.8359C125.365 38.5519 129.327 39.6498 133.766 41.4159C138.205 43.182 143.121 45.6164 148.181 48.9578C153.193 52.2991 158.348 56.4996 163.122 61.7503C164.315 63.0868 165.508 64.4234 166.606 65.9031C167.179 66.6191 167.8 67.3351 168.325 68.0988C168.834 68.8944 169.359 69.6741 169.9 70.4378C170.409 71.2333 170.934 72.0289 171.475 72.8245L172.287 74.0655L172.955 75.3543C173.862 77.0727 174.816 78.7911 175.723 80.605C179.065 87.8605 181.308 96.1183 182.024 104.806C182.74 113.493 181.976 122.61 179.637 131.536C177.299 140.51 173.575 148.816 168.754 156.119C167.561 157.885 166.224 159.604 164.983 161.37C163.599 162.993 162.215 164.616 160.831 166.191C159.303 167.623 157.871 169.15 156.248 170.439C155.453 171.076 154.657 171.712 153.861 172.348C153.05 172.969 152.286 173.637 151.427 174.162C144.792 178.697 137.728 181.752 130.949 183.852C124.124 185.857 117.536 186.812 111.522 187.241C105.508 187.719 100.018 187.241 95.2926 186.764C92.9537 186.334 90.7102 186.048 88.7054 185.571C86.7484 185.046 84.8868 184.711 83.3116 184.139C81.7205 183.598 80.3044 183.12 79.0633 182.707C77.87 182.277 76.8676 181.752 76.1038 181.418C74.4809 180.654 73.6694 180.225 73.6694 180.177Z" fill="#ACD9B3"/>
<path d="M139.446 44.8052C139.398 44.8529 138.491 44.5188 136.821 43.8505C135.993 43.4687 134.975 43.0232 133.766 42.514C132.525 41.9889 131.045 41.5593 129.422 40.9865C122.978 38.8385 113.097 36.5473 100.878 37.1679C94.7677 37.5497 88.1327 38.5999 81.2591 40.7479C74.4333 42.8004 67.4165 46.1417 60.7815 50.6764C59.0631 51.7265 57.5357 53.063 55.9127 54.3041C54.2421 55.5452 52.7146 56.9772 51.1871 58.4569C50.4711 59.1729 49.6597 59.8412 48.9437 60.6527C48.2436 61.4482 47.5276 62.2438 46.7957 63.0393C46.1274 63.8508 45.3637 64.6145 44.6954 65.4737C44.0271 66.3329 43.3111 67.1921 42.6906 68.0513C37.4399 75.0681 33.2394 83.2305 30.9959 92.2521C29.8503 96.6913 29.2298 101.274 28.9911 105.761C28.7047 110.295 28.7047 114.782 28.9434 119.174C29.2298 123.517 29.8026 127.766 30.9005 131.871C31.1551 132.889 31.4096 133.907 31.6642 134.926C31.9824 135.912 32.3007 136.899 32.6189 137.885C33.1439 139.89 34.0031 141.752 34.6714 143.613C37.7263 151.06 42.0701 157.456 47.0343 162.563C51.9986 167.719 57.5834 171.537 62.8818 174.544C68.2279 177.552 73.3831 179.604 77.9178 181.37C79.0634 181.784 80.1772 182.182 81.2591 182.564C82.3093 182.945 83.3594 183.327 84.3141 183.566C86.3189 184.091 88.2282 184.425 89.8989 184.712C93.2879 185.284 95.961 185.618 97.7749 185.857C99.5887 186.096 100.496 186.287 100.496 186.335C100.496 186.43 99.541 186.43 97.7271 186.335C95.9133 186.239 93.2402 186.048 89.7557 185.618C88.0373 185.428 86.1279 185.141 84.0754 184.712C82.9775 184.473 81.9274 184.091 80.8773 183.757C79.7635 183.407 78.6338 183.041 77.4882 182.659C72.8103 180.988 67.5597 178.984 62.0703 176.024C56.581 173.065 50.8053 169.246 45.6023 163.995C40.3994 158.745 35.8647 152.11 32.6189 144.472C31.9029 142.563 30.9959 140.606 30.4231 138.601C30.1049 137.583 29.7867 136.565 29.4685 135.546C29.2139 134.496 28.9434 133.446 28.657 132.396C27.5114 128.243 26.8909 123.804 26.6045 119.317C26.3181 114.83 26.3181 110.248 26.5567 105.617C26.8431 100.987 27.4637 96.2617 28.657 91.6316C29.8503 87.0014 31.4733 82.5145 33.5735 78.3617C35.6261 74.1612 38.1082 70.2471 40.7813 66.6671C41.4495 65.7601 42.1655 64.8532 42.8338 63.994C43.5498 63.1348 44.3135 62.3233 45.0295 61.5119C45.7933 60.6845 46.5411 59.8571 47.273 59.0297C47.989 58.2183 48.8482 57.5022 49.6119 56.7862C51.1871 55.3065 52.7623 53.7791 54.4807 52.538C56.1514 51.2492 57.7266 49.8649 59.5405 48.8148C66.4141 44.2324 73.6218 40.8433 80.6863 38.7908C87.7509 36.7382 94.5767 35.7358 100.782 35.4494C113.336 35.0676 123.312 37.6452 129.756 40.1273C131.379 40.7479 132.859 41.2729 134.052 41.8457C135.23 42.4503 136.232 42.9595 137.059 43.3732C138.682 44.2324 139.494 44.7097 139.446 44.8052Z" fill="#ACD9B3"/>
<path d="M103.217 111.584C103.264 111.489 103.694 111.584 104.314 112.014C104.887 112.443 105.603 113.35 105.937 114.687C106.224 115.976 106.224 117.789 105.078 119.365C103.98 120.988 101.689 121.799 99.5888 121.465C97.4408 121.131 95.5792 119.603 95.0541 117.694C94.4813 115.832 95.0064 114.114 95.7224 113.016C96.4861 111.87 97.4408 111.25 98.1091 111.011C98.8251 110.773 99.2547 110.82 99.3024 110.964C99.3979 111.25 97.8227 111.68 96.9157 113.684C96.4861 114.639 96.2475 115.928 96.7248 117.169C97.1067 118.314 98.3955 119.269 99.8752 119.556C101.403 119.794 102.882 119.269 103.646 118.315C104.458 117.312 104.696 115.976 104.601 114.925C104.362 112.73 103.026 111.823 103.217 111.584Z" fill="#141318"/>
<path d="M105.364 115.068C105.078 115.164 104.696 114.352 103.837 113.589C103.025 112.777 101.498 112.013 99.7317 112.109C98.9202 112.157 98.1565 112.443 97.6314 112.825C97.0586 113.207 96.8677 113.78 96.6767 114.305C96.6131 114.591 96.5654 114.846 96.5336 115.068C96.4858 115.307 96.5335 115.546 96.4858 115.737C96.4381 116.071 96.3903 116.309 96.2471 116.357C96.1199 116.421 95.9607 116.262 95.7698 115.88C95.6743 115.689 95.5311 115.45 95.4357 115.164C95.372 114.877 95.3243 114.543 95.2925 114.161C95.3402 113.35 95.5789 112.252 96.4381 111.488C97.2495 110.725 98.4429 110.247 99.6362 110.2C102.071 110.056 104.075 111.393 104.935 112.682C105.316 113.35 105.507 113.97 105.507 114.4C105.539 114.814 105.492 115.037 105.364 115.068Z" fill="#141318"/>
<path d="M191.333 34.6667C193.174 34.6667 194.667 33.1743 194.667 31.3333C194.667 29.4924 193.174 28 191.333 28C189.492 28 188 29.4924 188 31.3333C188 33.1743 189.492 34.6667 191.333 34.6667Z" fill="#ACD9B3"/>
<path d="M3.33333 153.667C5.17428 153.667 6.66667 152.174 6.66667 150.333C6.66667 148.492 5.17428 147 3.33333 147C1.49238 147 0 148.492 0 150.333C0 152.174 1.49238 153.667 3.33333 153.667Z" fill="#ACD9B3"/>
<path d="M197.222 180.444C198.45 180.444 199.444 179.45 199.444 178.222C199.444 176.995 198.45 176 197.222 176C195.995 176 195 176.995 195 178.222C195 179.45 195.995 180.444 197.222 180.444Z" fill="#ACD9B3"/>
<path d="M30.2222 4.44444C31.4495 4.44444 32.4444 3.44952 32.4444 2.22222C32.4444 0.994923 31.4495 0 30.2222 0C28.9949 0 28 0.994923 28 2.22222C28 3.44952 28.9949 4.44444 30.2222 4.44444Z" fill="#ACD9B3"/>
</svg>
