<svg width="71" height="71" viewBox="0 0 71 71" fill="none" xmlns="http://www.w3.org/2000/svg">
<g clip-path="url(#clip0_2_1144)">
<path opacity="0.3" d="M16.5 38.9999C22.8513 38.9999 28 33.6274 28 26.9999C28 20.3725 22.8513 14.9999 16.5 14.9999C10.1487 14.9999 5 20.3725 5 26.9999C5 33.6274 10.1487 38.9999 16.5 38.9999Z" fill="#CBF147"/>
<path opacity="0.3" d="M16.5 61.9999C22.8513 61.9999 28 56.8512 28 50.4999C28 44.1487 22.8513 38.9999 16.5 38.9999C10.1487 38.9999 5 44.1487 5 50.4999C5 56.8512 10.1487 61.9999 16.5 61.9999Z" fill="#CBF147"/>
<path opacity="0.3" d="M48 48.9999C60.1503 48.9999 70 39.1502 70 26.9999C70 14.8497 60.1503 4.99994 48 4.99994C35.8497 4.99994 26 14.8497 26 26.9999C26 39.1502 35.8497 48.9999 48 48.9999Z" fill="#CBF147"/>
<path d="M13.3257 61.0059H57.7441V65.4477H13.3257V61.0059Z" fill="#CBF147"/>
<path d="M11.1045 9.92471H59.9647V61.0059H11.1045V9.92471Z" fill="white"/>
<path d="M59.9649 25.6124C58.4934 25.2339 56.8657 25.6198 55.7136 26.772C53.9789 28.5067 53.9789 31.3191 55.7136 33.0538C56.8659 34.206 58.4934 34.5919 59.9649 34.2134V25.6124Z" fill="#CBF147"/>
<path d="M11.1045 21.0293H59.9647V23.2502H11.1045V21.0293Z" fill="#CBF147"/>
<path d="M56.6333 9.92471H59.9647V61.0059H56.6333V9.92471Z" fill="#CBF147"/>
<path d="M17.7671 27.6921H53.3018V54.3431H17.7671V27.6921Z" fill="#CBF147"/>
<path d="M17.7676 27.6921H53.3023V29.913H17.7676V27.6921Z" fill="#8AD8F6"/>
<path d="M51.0811 27.6921H53.3019V54.3431H51.0811V27.6921Z" fill="#8AD8F6"/>
<path d="M11.1045 9.92471H59.9647V21.0293H11.1045V9.92471Z" fill="#CBF147"/>
<path d="M56.6333 9.92471H59.9647V21.0293H56.6333V9.92471Z" fill="#FFBA33"/>
<path d="M29.9824 14.436H32.2033V16.5181H29.9824V14.436Z" fill="#1D2B2C"/>
<path d="M34.4243 14.436H36.6452V16.5181H34.4243V14.436Z" fill="#1D2B2C"/>
<path d="M38.8662 14.436H41.0871V16.5181H38.8662V14.436Z" fill="#1D2B2C"/>
<path d="M58.8542 32.1339C60.0808 32.1339 61.0751 31.1396 61.0751 29.913C61.0751 28.6864 60.0808 27.6921 58.8542 27.6921C57.6276 27.6921 56.6333 28.6864 56.6333 29.913C56.6333 31.1396 57.6276 32.1339 58.8542 32.1339Z" fill="white"/>
<path d="M60.4245 28.3425C60.175 28.0931 59.8803 27.9178 59.5673 27.8117C59.8296 28.5868 59.6543 29.4774 59.0365 30.0952C58.4186 30.7131 57.528 30.8884 56.7529 30.626C56.8588 30.9391 57.0342 31.2339 57.2837 31.4833C58.151 32.3506 59.5573 32.3506 60.4245 31.4833C61.2918 30.616 61.2918 29.2099 60.4245 28.3425Z" fill="white"/>
<path d="M65.136 38.4157C66.3625 38.4157 67.3569 37.4213 67.3569 36.1947C67.3569 34.9682 66.3625 33.9738 65.136 33.9738C63.9094 33.9738 62.915 34.9682 62.915 36.1947C62.915 37.4213 63.9094 38.4157 65.136 38.4157Z" fill="white"/>
<path d="M66.7063 34.6242C66.4567 34.3748 66.162 34.1995 65.849 34.0934C66.1113 34.8685 65.936 35.7591 65.3182 36.377C64.7004 36.9948 63.8098 37.1701 63.0347 36.9078C63.1406 37.2208 63.3159 37.5156 63.5655 37.765C64.4327 38.6323 65.839 38.6323 66.7063 37.765C67.5735 36.8978 67.5735 35.4916 66.7063 34.6242Z" fill="white"/>
<path d="M58.8541 36.1947C57.9868 35.3275 57.9868 33.9212 58.8541 33.0539L61.9948 29.9131C62.8621 29.0459 64.2684 29.0459 65.1356 29.9131C66.0029 30.7804 66.0029 32.1867 65.1356 33.0539L61.9948 36.1947C61.1276 37.062 59.7213 37.062 58.8541 36.1947Z" fill="#CBF147"/>
<path d="M65.7862 31.4843C65.7862 32.052 65.5696 32.6198 65.1352 33.0542L61.9953 36.1941C61.1278 37.0616 59.723 37.0616 58.8555 36.1941L65.1352 29.9144C65.5696 30.3475 65.7862 30.9152 65.7862 31.4843Z" fill="#CBF147"/>
<path d="M17.7676 5.48288H22.2094V15.477H17.7676V5.48288Z" fill="#CBF147"/>
<path d="M19.9883 5.48288H22.2092V15.477H19.9883V5.48288Z" fill="#CBF147"/>
<path d="M17.7676 13.2561H22.2094V15.477H17.7676V13.2561Z" fill="#CBF147"/>
<path d="M48.8604 5.48288H53.3022V15.477H48.8604V5.48288Z" fill="#CBF147"/>
<path d="M48.8604 13.2561H53.3022V15.477H48.8604V13.2561Z" fill="#CBF147"/>
<path d="M51.0811 5.48288H53.3019V15.477H51.0811V5.48288Z" fill="#CBF147"/>
<path d="M66.6277 9.92472C67.8542 9.92472 68.8486 8.93038 68.8486 7.7038C68.8486 6.47722 67.8542 5.48288 66.6277 5.48288C65.4011 5.48288 64.4067 6.47722 64.4067 7.7038C64.4067 8.93038 65.4011 9.92472 66.6277 9.92472Z" fill="#FEE95D"/>
<path d="M4.44162 43.2385C5.6682 43.2385 6.66254 42.2442 6.66254 41.0176C6.66254 39.791 5.6682 38.7967 4.44162 38.7967C3.21504 38.7967 2.2207 39.791 2.2207 41.0176C2.2207 42.2442 3.21504 43.2385 4.44162 43.2385Z" fill="#FEE95D"/>
<path d="M54.3429 55.3842V26.651H16.7261V55.3842H54.3429ZM18.8082 46.5005H25.6097V53.3021H18.8082V46.5005ZM43.3771 44.4184H36.5755V37.6168H43.3771V44.4184ZM45.4592 37.6168H52.2608V44.4184H45.4592V37.6168ZM36.5755 46.5005H43.3771V53.3021H36.5755V46.5005ZM34.4934 53.3021H27.6919V46.5005H34.4934V53.3021ZM36.5755 35.5347V28.7331H43.3771V35.5347H36.5755ZM34.4934 35.5347H27.6919V28.7331H34.4934V35.5347ZM34.4934 37.6168V44.4184H27.6919V37.6168H34.4934ZM25.6097 44.4184H18.8082V37.6168H25.6097V44.4184ZM45.4592 53.3021V46.5005H52.2608V53.3021H45.4592ZM52.2608 35.5347H45.4592V28.7331H52.2608V35.5347ZM25.6097 28.7331V35.5347H18.8082V28.7331H25.6097Z" fill="#1D2B2C"/>
<path d="M58.8543 26.651C57.983 26.651 57.1637 26.9904 56.5478 27.6064C55.9317 28.2225 55.5923 29.0417 55.5923 29.913C55.5923 30.7843 55.9315 31.6035 56.5477 32.2196C56.8636 32.5355 57.2331 32.778 57.6353 32.94C56.8785 34.194 57.037 35.8498 58.118 36.931C58.7341 37.547 59.5533 37.8864 60.4246 37.8864C61.0284 37.8864 61.6071 37.7231 62.1105 37.4179C62.2725 37.8185 62.5145 38.1865 62.8293 38.5013C63.4453 39.1173 64.2646 39.4567 65.1359 39.4567C66.007 39.4567 66.8262 39.1175 67.4423 38.5013H67.4424C68.0584 37.8853 68.3978 37.066 68.3978 36.1947C68.3978 35.3234 68.0586 34.5042 67.4424 33.8882C67.1218 33.5675 66.7503 33.3282 66.3539 33.1693C67.1116 31.9152 66.9534 30.2584 65.8719 29.1769C65.2559 28.5609 64.4367 28.2215 63.5654 28.2215C62.9616 28.2215 62.3829 28.3847 61.8793 28.6898C61.7173 28.2892 61.4754 27.9213 61.1607 27.6066C60.5448 26.9904 59.7256 26.651 58.8543 26.651ZM58.02 29.0788C58.2428 28.856 58.539 28.7331 58.8543 28.7331C59.1695 28.7331 59.4656 28.8558 59.6886 29.0788C59.9114 29.3016 60.0341 29.5979 60.0341 29.913C60.0341 30.228 59.9116 30.5242 59.6889 30.7468L59.6885 30.7472C59.4657 30.97 59.1695 31.0929 58.8543 31.0929C58.539 31.0929 58.243 30.9702 58.0199 30.7472C57.7971 30.5245 57.6744 30.2281 57.6744 29.913C57.6744 29.5979 57.7971 29.3016 58.02 29.0788ZM65.9704 37.029C65.7474 37.2519 65.4512 37.3746 65.136 37.3746C64.8208 37.3746 64.5247 37.2519 64.3016 37.029C64.0788 36.8062 63.9561 36.5098 63.9561 36.1947C63.9561 35.8795 64.0788 35.5833 64.3018 35.3604C64.5316 35.1304 64.8338 35.0154 65.136 35.0154C65.4382 35.0154 65.7404 35.1305 65.9704 35.3605C66.1931 35.5833 66.3159 35.8796 66.3159 36.1947C66.3159 36.5098 66.1931 36.8062 65.9704 37.029ZM63.5655 30.3035C63.8808 30.3035 64.1768 30.4262 64.3998 30.6491C64.8598 31.1091 64.8598 31.8577 64.3998 32.3177L61.2588 35.4585C61.036 35.6813 60.7398 35.8041 60.4246 35.8041C60.1094 35.8041 59.8133 35.6814 59.5904 35.4585C59.1303 34.9985 59.1303 34.2499 59.5904 33.7899L61.1607 32.2194L62.7309 30.6491C62.9541 30.4263 63.2504 30.3035 63.5655 30.3035Z" fill="#1D2B2C"/>
<path d="M68.8485 42.1974H61.0753C61.0371 42.1974 61.0059 42.1664 61.0059 42.128V39.9071H58.9238V42.128C58.9238 43.3144 59.8889 44.2796 61.0753 44.2796H68.8485C68.8867 44.2796 68.9179 44.3106 68.9179 44.349V48.7908C68.9179 48.8291 68.8867 48.8602 68.8485 48.8602H65.5171C64.3307 48.8602 63.3656 49.8253 63.3656 51.0117V55.4536C63.3656 55.4919 63.3344 55.523 63.2962 55.523H61.0059V46.5699H58.9238V59.9648H12.1456V22.0704H58.9238V25.4712H61.0059V8.88367H54.3431V4.44183H47.8192V8.88367H25.5406V10.9658H47.8192V16.5181H54.3431V10.9658H58.9238V19.9883H12.1456V10.9658H16.7263V16.5181H23.2502V4.44183H16.7263V8.88367H10.0635V55.523H5.5523C5.51413 55.523 5.48289 55.4919 5.48289 55.4536V51.0117C5.48289 49.8253 4.51777 48.8602 3.33138 48.8602H0V50.9423H3.33138C3.36955 50.9423 3.40078 50.9734 3.40078 51.0117V55.4536C3.40078 56.6399 4.36591 57.6051 5.5523 57.6051H10.0635V62.0469H12.2845V66.4887H58.7849V62.0469H61.0059V57.6051H63.2962C64.4826 57.6051 65.4477 56.6399 65.4477 55.4536V51.0117C65.4477 50.9734 65.4789 50.9423 65.5171 50.9423H68.8485C70.0349 50.9423 71 49.9772 71 48.7908V44.349C71 43.1626 70.0349 42.1974 68.8485 42.1974ZM52.261 14.436H49.9013V6.52394H52.261V14.436ZM18.8084 6.52394H21.1681V14.436H18.8084V6.52394ZM56.7028 64.4066H14.3666V62.0469H56.7028V64.4066Z" fill="#1D2B2C"/>
<path d="M66.6277 10.9658C68.4263 10.9658 69.8896 9.50247 69.8896 7.70381C69.8896 5.90514 68.4263 4.44183 66.6277 4.44183C64.829 4.44183 63.3657 5.90514 63.3657 7.70381C63.3657 9.50247 64.829 10.9658 66.6277 10.9658ZM66.6277 6.52394C67.2783 6.52394 67.8075 7.05322 67.8075 7.70381C67.8075 8.3544 67.2783 8.88367 66.6277 8.88367C65.9771 8.88367 65.4478 8.3544 65.4478 7.70381C65.4478 7.05322 65.9771 6.52394 66.6277 6.52394Z" fill="#1D2B2C"/>
<path d="M4.44166 44.2796C6.24033 44.2796 7.70364 42.8163 7.70364 41.0176C7.70364 39.2189 6.24033 37.7556 4.44166 37.7556C2.643 37.7556 1.17969 39.2189 1.17969 41.0176C1.17969 42.8163 2.643 44.2796 4.44166 44.2796ZM4.44166 39.8377C5.09225 39.8377 5.62153 40.367 5.62153 41.0176C5.62153 41.6682 5.09225 42.1975 4.44166 42.1975C3.79107 42.1975 3.2618 41.6682 3.2618 41.0176C3.2618 40.367 3.79107 39.8377 4.44166 39.8377Z" fill="#1D2B2C"/>
<path d="M4.51103 28.8025H6.59314V26.5122H8.88346V24.4301H6.59314V22.1398H4.51103V24.4301H2.2207V26.5122H4.51103V28.8025Z" fill="#1D2B2C"/>
<path d="M66.558 59.8954H64.4759V62.1857H62.1855V64.2678H64.4759V66.5582H66.558V64.2678H68.8483V62.1857H66.558V59.8954Z" fill="#1D2B2C"/>
</g>
<defs>
<clipPath id="clip0_2_1144">
<rect width="71" height="71" fill="white"/>
</clipPath>
</defs>
</svg>
