<svg width="24" height="24" viewBox="0 0 24 24" fill="none" xmlns="http://www.w3.org/2000/svg">
<g clip-path="url(#clip0_317_3153)">
<path d="M22.1947 6.51181L22.194 6.49313C22.1835 6.2626 22.1766 6.01871 22.1724 5.74735C22.1528 4.42405 21.1008 3.32944 19.7773 3.25547C17.018 3.10148 14.8833 2.2017 13.0594 0.423934L13.0438 0.409102C12.4489 -0.136367 11.5515 -0.136367 10.9564 0.409102L10.9409 0.423934C9.11698 2.2017 6.98234 3.10148 4.22295 3.25565C2.89965 3.32944 1.84753 4.42405 1.82793 5.74753C1.8239 6.01706 1.81676 6.26096 1.80633 6.49313L1.80523 6.53653C1.75158 9.3503 1.68493 12.8522 2.85643 16.0307C3.5006 17.7786 4.47618 19.298 5.7559 20.547C7.21342 21.9694 9.12247 23.0986 11.43 23.9031C11.505 23.9293 11.583 23.9505 11.6625 23.9665C11.7746 23.9888 11.8874 24 12.0001 24C12.1129 24 12.2259 23.9888 12.3378 23.9665C12.4173 23.9505 12.4958 23.9291 12.5713 23.9028C14.876 23.0967 16.783 21.967 18.2393 20.5448C19.5184 19.2955 20.494 17.7757 21.1387 16.0274C22.3146 12.8394 22.2482 9.33089 22.1947 6.51181ZM19.8174 15.5402C18.5819 18.8903 16.0596 21.191 12.1065 22.5734C12.0924 22.5782 12.0774 22.5824 12.0619 22.5855C12.021 22.5936 11.9795 22.5936 11.9381 22.5853C11.9227 22.5822 11.9077 22.5782 11.8938 22.5734C7.9365 21.1935 5.41258 18.8941 4.1779 15.5438C3.09813 12.614 3.15929 9.39937 3.21331 6.56344L3.21367 6.5477C3.22466 6.30398 3.23198 6.04874 3.23601 5.76822C3.2448 5.18064 3.71282 4.69449 4.3015 4.66172C5.86302 4.57456 7.23484 4.2728 8.49533 3.73923C9.75418 3.2064 10.8722 2.4553 11.913 1.4431C11.9659 1.39842 12.0346 1.39824 12.0873 1.4431C13.1283 2.4553 14.2463 3.2064 15.505 3.73923C16.7655 4.2728 18.1373 4.57456 19.699 4.66172C20.2877 4.69449 20.7557 5.18064 20.7643 5.7684C20.7685 6.05038 20.7758 6.30563 20.7868 6.5477C20.8406 9.38692 20.9003 12.6041 19.8174 15.5402Z" fill="#1D212C"/>
<path d="M11.9997 6.01904C8.7016 6.01904 6.01855 8.70227 6.01855 12.0002C6.01855 15.2983 8.7016 17.9815 11.9997 17.9815C15.2976 17.9815 17.9808 15.2983 17.9808 12.0002C17.9808 8.70227 15.2976 6.01904 11.9997 6.01904ZM11.9997 16.5731C9.47815 16.5731 7.42682 14.5217 7.42682 12.0002C7.42682 9.47864 9.47815 7.42731 11.9997 7.42731C14.5211 7.42731 16.5724 9.47864 16.5724 12.0002C16.5724 14.5217 14.5211 16.5731 11.9997 16.5731Z" fill="#1D212C"/>
<path d="M13.719 10.1434L10.9409 12.9215L10.1869 12.1675C9.91188 11.8924 9.46602 11.8924 9.19099 12.1675C8.91615 12.4425 8.91615 12.8883 9.19099 13.1632L10.4431 14.4153C10.5806 14.5528 10.7608 14.6214 10.9409 14.6214C11.1211 14.6214 11.3013 14.5528 11.4388 14.4153L14.7149 11.1391C14.9898 10.8641 14.9898 10.4183 14.7149 10.1434C14.4399 9.86821 13.994 9.86821 13.719 10.1434Z" fill="#1D212C"/>
</g>
<defs>
<clipPath id="clip0_317_3153">
<rect width="24" height="24" fill="white"/>
</clipPath>
</defs>
</svg>
