<svg width="22" height="22" viewBox="0 0 22 22" fill="none" xmlns="http://www.w3.org/2000/svg">
<path d="M20.9659 9.77731L3.32182 0.48062C3.00606 0.297327 2.63956 0.220889 2.27685 0.262682C1.91415 0.304474 1.57464 0.462263 1.30884 0.712566C1.04304 0.962869 0.865168 1.29231 0.801691 1.65185C0.738215 2.01139 0.792528 2.38182 0.956548 2.70801L5.01888 10.8645C5.03268 10.8952 5.04026 10.9284 5.04117 10.9621C5.04208 10.9957 5.03631 11.0293 5.02418 11.0607L1.43916 19.1429C1.29579 19.4683 1.25553 19.8297 1.3238 20.1787C1.39207 20.5276 1.56558 20.8472 1.82099 21.0945L1.85281 21.1264C2.10921 21.3812 2.43945 21.5486 2.79653 21.6048C3.15361 21.6609 3.5193 21.603 3.84155 21.4393L20.9924 12.8585C21.2656 12.7197 21.4958 12.5091 21.6584 12.2494C21.8209 11.9897 21.9097 11.6906 21.9152 11.3842C21.9232 11.0544 21.8385 10.7289 21.6707 10.4448C21.5029 10.1607 21.2587 9.92945 20.9659 9.77731Z" fill="#CBF147"/>
</svg>
