<svg width="24" height="24" viewBox="0 0 24 24" fill="none" xmlns="http://www.w3.org/2000/svg">
<path d="M9.14432 11.7444C8.20344 11.7444 7.26295 11.3863 6.51332 10.6696C5.11645 9.33426 3.82345 6.96126 4.08333 4.66889C4.1512 4.06927 4.30608 3.27802 4.90457 2.47477C5.92007 1.11202 7.45532 0.327517 9.11619 0.322267C10.8108 0.321142 12.3464 1.09964 13.3822 2.47027C13.9848 3.27877 14.1397 4.07002 14.2072 4.66927L14.2091 4.68614C14.4284 7.00776 13.1452 9.36464 11.7764 10.6704C11.0257 11.3863 10.0852 11.7444 9.14432 11.7444ZM9.13344 2.19727C9.12969 2.19727 9.12594 2.19727 9.12257 2.19727C8.05757 2.20064 7.06795 2.71027 6.40832 3.59564C6.14357 3.95077 6.0097 4.32277 5.9467 4.88001C5.76857 6.45164 6.7492 8.30076 7.8097 9.31439C8.58332 10.0535 9.70794 10.0535 10.4827 9.31364C11.7119 8.14101 12.4762 6.31551 12.3438 4.87139C12.2804 4.31939 12.1466 3.94964 11.8829 3.59602C11.2121 2.70839 10.2097 2.19727 9.13344 2.19727Z" fill="white"/>
<path d="M23.0994 11.1003C22.8981 10.402 22.4349 9.82116 21.7982 9.46941C21.1614 9.11766 20.4227 9.03553 19.7229 9.24028C19.0217 9.43978 18.4404 9.90291 18.0921 10.5415L17.6916 11.2672L13.4034 19.0349C13.3146 19.1958 13.2737 19.3788 13.2879 19.5622L13.5523 22.792C13.5782 23.1018 13.7582 23.3812 14.0338 23.5334C14.3046 23.6827 14.6443 23.6935 14.9181 23.5462L17.7921 22.0488C17.9552 21.9633 18.0913 21.8328 18.1817 21.6685L22.4679 13.9042L22.8684 13.1785C23.2202 12.5422 23.3023 11.8034 23.0994 11.1003ZM16.6764 20.5162L15.3062 21.229L15.1794 19.6897L18.4236 13.813L19.9206 14.6395L16.6764 20.5162ZM21.2271 12.2725L20.8266 12.9982L19.3296 12.1717L19.7301 11.446C19.9513 11.0455 20.4943 10.8914 20.8918 11.1108C21.2998 11.3362 21.4524 11.8645 21.2271 12.2725Z" fill="white"/>
<path d="M12.0575 22.9183L11.966 21.8027H4.26201C3.38226 21.8027 2.66639 21.0868 2.66639 20.2071V19.4769C2.66639 18.0362 3.33839 16.7001 4.41989 15.9898C5.09789 15.5443 5.88576 15.3096 6.69876 15.3096H11.5858C12.2536 15.3096 12.9035 15.4708 13.4908 15.7742L14.3968 14.1328C13.5328 13.6764 12.5724 13.4346 11.5858 13.4346H6.69839C5.51864 13.4346 4.37489 13.7762 3.39051 14.4227C1.76302 15.4914 0.791016 17.3811 0.791016 19.4773V20.2074C0.791016 22.1214 2.34801 23.6781 4.26164 23.6781H12.2514C12.149 23.4396 12.0796 23.1849 12.0575 22.9183Z" fill="white"/>
</svg>
