<svg width="16" height="12" viewBox="0 0 16 12" fill="none" xmlns="http://www.w3.org/2000/svg">
<path d="M0.862032 5.52865L5.5287 0.861992C5.65444 0.740553 5.82284 0.673357 5.99764 0.674876C6.17243 0.676395 6.33964 0.746507 6.46325 0.870113C6.58685 0.993718 6.65697 1.16093 6.65848 1.33572C6.66 1.51052 6.59281 1.67892 6.47137 1.80466L2.9427 5.33332H14.6667C14.8435 5.33332 15.0131 5.40356 15.1381 5.52858C15.2631 5.65361 15.3334 5.82318 15.3334 5.99999C15.3334 6.1768 15.2631 6.34637 15.1381 6.47139C15.0131 6.59641 14.8435 6.66665 14.6667 6.66665H2.9427L6.47137 10.1953C6.53504 10.2568 6.58583 10.3304 6.62077 10.4117C6.65571 10.493 6.6741 10.5805 6.67487 10.669C6.67564 10.7576 6.65877 10.8454 6.62525 10.9273C6.59173 11.0092 6.54223 11.0836 6.47963 11.1462C6.41704 11.2088 6.3426 11.2583 6.26067 11.2919C6.17874 11.3254 6.09095 11.3423 6.00243 11.3415C5.91392 11.3407 5.82644 11.3223 5.7451 11.2874C5.66376 11.2524 5.5902 11.2017 5.5287 11.138L0.862032 6.47132C0.737051 6.3463 0.666841 6.17676 0.666841 5.99999C0.666841 5.82321 0.737051 5.65367 0.862032 5.52865V5.52865Z" fill="#141318"/>
</svg>
