<svg width="20" height="14" viewBox="0 0 20 14" fill="none" xmlns="http://www.w3.org/2000/svg">
<path d="M18.9225 6.41082L13.0892 0.577494C12.932 0.425695 12.7215 0.3417 12.503 0.343598C12.2845 0.345497 12.0755 0.433138 11.921 0.587645C11.7665 0.742151 11.6788 0.951161 11.6769 1.16966C11.675 1.38816 11.759 1.59866 11.9108 1.75583L16.3217 6.16666H1.66665C1.44563 6.16666 1.23367 6.25445 1.07739 6.41073C0.92111 6.56701 0.833313 6.77898 0.833313 6.99999C0.833313 7.221 0.92111 7.43296 1.07739 7.58924C1.23367 7.74552 1.44563 7.83332 1.66665 7.83332H16.3217L11.9108 12.2442C11.8312 12.321 11.7677 12.413 11.7241 12.5146C11.6804 12.6163 11.6574 12.7257 11.6564 12.8363C11.6555 12.947 11.6766 13.0567 11.7185 13.1591C11.7604 13.2615 11.8222 13.3546 11.9005 13.4328C11.9787 13.5111 12.0718 13.5729 12.1742 13.6148C12.2766 13.6567 12.3863 13.6778 12.497 13.6769C12.6076 13.6759 12.717 13.6529 12.8187 13.6092C12.9203 13.5656 13.0123 13.5021 13.0892 13.4225L18.9225 7.58915C19.0787 7.43288 19.1665 7.22096 19.1665 6.99999C19.1665 6.77902 19.0787 6.5671 18.9225 6.41082Z" fill="#141318"/>
</svg>
