<svg width="24" height="24" viewBox="0 0 24 24" fill="none" xmlns="http://www.w3.org/2000/svg">
<path d="M17.6092 22.2686C17.3245 22.2688 17.0441 22.1993 16.7925 22.0661L12.1177 19.6091C12.0815 19.5897 12.041 19.5796 12 19.5796C11.9589 19.5796 11.9184 19.5897 11.8822 19.6091L7.20821 22.0661C6.91857 22.2185 6.59205 22.2868 6.26559 22.2633C5.93914 22.2398 5.62579 22.1254 5.36099 21.933C5.09619 21.7406 4.89052 21.478 4.76725 21.1748C4.64398 20.8716 4.60803 20.5399 4.66346 20.2174L5.55596 15.0131C5.56282 14.9723 5.55957 14.9305 5.54649 14.8913C5.53342 14.852 5.51091 14.8166 5.48096 14.7881L1.70246 11.1004C1.46786 10.8718 1.30197 10.5821 1.22358 10.2641C1.14518 9.94609 1.15742 9.61248 1.25891 9.30107C1.3604 8.98966 1.54707 8.71289 1.79779 8.50214C2.04851 8.29138 2.35324 8.15506 2.67746 8.10862L7.89971 7.35037C7.94035 7.34446 7.97893 7.32873 8.01212 7.30456C8.04532 7.28038 8.07212 7.24848 8.09021 7.21162L10.425 2.47537C10.5696 2.18176 10.7935 1.93451 11.0714 1.76161C11.3493 1.58871 11.67 1.49707 11.9973 1.49707C12.3246 1.49707 12.6454 1.58871 12.9233 1.76161C13.2012 1.93451 13.4251 2.18176 13.5697 2.47537L15.906 7.21012C15.9242 7.24687 15.9511 7.27867 15.9842 7.30282C16.0174 7.32698 16.0559 7.34277 16.0965 7.34887L21.3232 8.10787C21.6473 8.15458 21.9518 8.29104 22.2023 8.50183C22.4529 8.71262 22.6394 8.98931 22.7409 9.30061C22.8423 9.61191 22.8546 9.94538 22.7764 10.2633C22.6982 10.5812 22.5325 10.8709 22.2982 11.0996L18.516 14.7851C18.4861 14.8137 18.4637 14.8491 18.4506 14.8883C18.4375 14.9275 18.4342 14.9693 18.441 15.0101L19.3335 20.2144C19.3764 20.4658 19.364 20.7236 19.2972 20.9698C19.2304 21.216 19.1107 21.4447 18.9465 21.6399C18.7823 21.8351 18.5776 21.9923 18.3465 22.1003C18.1154 22.2084 17.8636 22.2648 17.6085 22.2656L17.6092 22.2686ZM12 18.0791C12.2844 18.079 12.5645 18.1486 12.816 18.2816L17.49 20.7379C17.5313 20.7615 17.5788 20.7723 17.6263 20.769C17.6738 20.7657 17.7193 20.7483 17.757 20.7191C17.7963 20.6922 17.8268 20.6543 17.8448 20.6102C17.8628 20.566 17.8674 20.5176 17.8582 20.4709L16.965 15.2659C16.9172 14.9857 16.9382 14.6982 17.026 14.428C17.1137 14.1577 17.2657 13.9127 17.469 13.7141L21.2512 10.0279C21.285 9.9948 21.3088 9.95296 21.3201 9.90705C21.3313 9.86115 21.3295 9.81302 21.3148 9.76809C21.3002 9.72316 21.2732 9.68323 21.2371 9.6528C21.2009 9.62236 21.157 9.60265 21.1102 9.59587L15.8842 8.83612C15.6029 8.79538 15.3356 8.68675 15.1057 8.51963C14.8757 8.3525 14.6898 8.13189 14.5642 7.87687L12.225 3.14137C12.204 3.09899 12.1716 3.06332 12.1315 3.03837C12.0913 3.01343 12.045 3.00021 11.9977 3.00021C11.9504 3.00021 11.9041 3.01343 11.8639 3.03837C11.8238 3.06332 11.7914 3.09899 11.7705 3.14137L9.43571 7.87537C9.31 8.13049 9.12405 8.35115 8.89393 8.51829C8.66382 8.68542 8.39645 8.79399 8.11496 8.83462L2.88971 9.59587C2.84284 9.6025 2.79878 9.62216 2.76254 9.6526C2.72629 9.68305 2.69933 9.72306 2.68471 9.76808C2.6701 9.8131 2.66842 9.86132 2.67986 9.90725C2.69131 9.95318 2.71543 9.99497 2.74946 10.0279L6.53096 13.7141C6.73418 13.9127 6.88619 14.1577 6.97397 14.428C7.06175 14.6982 7.08268 14.9857 7.03496 15.2659L6.14171 20.4709C6.13361 20.5176 6.13879 20.5657 6.15668 20.6097C6.17457 20.6536 6.20443 20.6917 6.24288 20.7195C6.28133 20.7473 6.32682 20.7638 6.37417 20.7671C6.42152 20.7703 6.46883 20.7602 6.51071 20.7379L11.184 18.2809C11.4355 18.1484 11.7156 18.0791 12 18.0791Z" fill="#CBF147"/>
</svg>
