<svg width="17" height="16" viewBox="0 0 17 16" fill="none" xmlns="http://www.w3.org/2000/svg">
<path d="M14.7595 7.99977C14.76 8.25222 14.6889 8.49963 14.5544 8.71324C14.4198 8.92685 14.2274 9.09788 13.9995 9.20643L4.23282 13.8331C4.05407 13.9306 3.85604 13.9875 3.65282 13.9998C3.43043 13.9993 3.21169 13.9432 3.01651 13.8366C2.82133 13.73 2.65591 13.5763 2.53532 13.3895C2.41473 13.2026 2.34279 12.9885 2.32605 12.7668C2.30931 12.545 2.34831 12.3226 2.43949 12.1198L3.95949 8.66643H7.65282C7.82963 8.66643 7.9992 8.5962 8.12422 8.47117C8.24925 8.34615 8.31949 8.17658 8.31949 7.99977C8.31949 7.82296 8.24925 7.65339 8.12422 7.52836C7.9992 7.40334 7.82963 7.3331 7.65282 7.3331H3.95949L2.43949 3.9131C2.32935 3.66457 2.29781 3.38832 2.34909 3.12136C2.40037 2.8544 2.53202 2.60949 2.7264 2.41946C2.92079 2.22943 3.16861 2.10336 3.43666 2.05813C3.70471 2.01291 3.98018 2.0507 4.22615 2.16643L13.9928 6.7931C14.222 6.9007 14.4158 7.07131 14.5515 7.285C14.6873 7.49868 14.7594 7.7466 14.7595 7.99977Z" fill="white"/>
</svg>
