<svg width="16" height="16" viewBox="0 0 16 16" fill="none" xmlns="http://www.w3.org/2000/svg">
<path d="M8.00016 2.66675C9.37902 2.66675 10.6863 3.14513 11.8246 4.03079C12.9628 4.90998 13.9319 6.19644 14.6278 7.80614C14.6798 7.92897 14.6798 8.07119 14.6278 8.18756C13.2359 11.4069 10.7579 13.3334 8.00016 13.3334H7.99366C5.24244 13.3334 2.76439 11.4069 1.37252 8.18756C1.32049 8.07119 1.32049 7.92897 1.37252 7.80614C2.76439 4.58675 5.24244 2.66675 7.99366 2.66675H8.00016ZM8.00016 5.41422C6.56276 5.41422 5.39854 6.57139 5.39854 8.00008C5.39854 9.4223 6.56276 10.5795 8.00016 10.5795C9.43106 10.5795 10.5953 9.4223 10.5953 8.00008C10.5953 6.57139 9.43106 5.41422 8.00016 5.41422ZM8.00094 6.3825C8.892 6.3825 9.62046 7.10654 9.62046 7.99866C9.62046 8.88432 8.892 9.60836 8.00094 9.60836C7.10338 9.60836 6.37493 8.88432 6.37493 7.99866C6.37493 7.88876 6.38794 7.78533 6.40745 7.68189H6.43997C7.16192 7.68189 7.74728 7.113 7.7733 6.40189C7.84485 6.38896 7.92289 6.3825 8.00094 6.3825Z" fill="white"/>
</svg>
