<svg width="16" height="16" viewBox="0 0 16 16" fill="none" xmlns="http://www.w3.org/2000/svg">
<g clip-path="url(#clip0_2_1419)">
<path d="M14.035 0.839981L1.335 4.77498C1.09975 4.83742 0.890941 4.97416 0.739662 5.16484C0.588383 5.35552 0.502717 5.58996 0.495413 5.83325C0.488108 6.07654 0.559556 6.31569 0.699123 6.5151C0.83869 6.71451 1.03892 6.86353 1.27 6.93998L7.03 8.86998C7.051 8.87796 7.0702 8.89002 7.08651 8.90547C7.10281 8.92092 7.1159 8.93944 7.125 8.95998L9.245 14.46C9.33079 14.6809 9.48221 14.8703 9.67887 15.0026C9.87554 15.1349 10.108 15.2038 10.345 15.2H10.375C10.616 15.1992 10.8506 15.1225 11.0454 14.9806C11.2402 14.8388 11.3853 14.6391 11.46 14.41L15.5 2.27998C15.5633 2.08577 15.5726 1.87798 15.5268 1.6789C15.481 1.47983 15.3819 1.29698 15.24 1.14998C15.0883 0.990698 14.8949 0.877197 14.6819 0.822393C14.4689 0.767589 14.2447 0.773683 14.035 0.839981Z" fill="#CBF147"/>
</g>
<defs>
<clipPath id="clip0_2_1419">
<rect width="16" height="16" fill="white"/>
</clipPath>
</defs>
</svg>
