<svg width="24" height="24" viewBox="0 0 24 24" fill="none" xmlns="http://www.w3.org/2000/svg">
<g clip-path="url(#clip0_317_3389)">
<path d="M23.1812 8.0634L17.7485 2.63064C17.3002 2.18237 16.8455 1.95508 16.3971 1.95508C15.7815 1.95508 15.0625 2.42336 15.0625 3.74312V5.59272C11.1154 5.76475 7.42941 7.38348 4.61803 10.1947C1.64034 13.1722 0.000328134 17.131 8.51259e-09 21.342C-4.68665e-05 21.6445 0.1935 21.9132 0.480469 22.0089C0.553688 22.0334 0.628734 22.0452 0.703031 22.0452C0.919922 22.0452 1.12987 21.9445 1.2653 21.7643C4.58484 17.3457 9.5827 14.7344 15.0625 14.5282V16.3492C15.0625 17.6689 15.7814 18.1373 16.3971 18.1373H16.3971C16.8455 18.1373 17.3003 17.91 17.7485 17.4617L23.1812 12.0289C23.7092 11.501 24 10.7969 24 10.0462C24 9.29551 23.7092 8.59136 23.1812 8.0634ZM22.1869 11.0346L16.7541 16.4674C16.6499 16.5716 16.5636 16.6374 16.5 16.6774C16.4832 16.6042 16.4687 16.4966 16.4687 16.3493V13.8119C16.4687 13.4236 16.1539 13.1087 15.7656 13.1087C12.6415 13.1087 9.6563 13.8245 6.89297 15.2361C4.90922 16.2495 3.09581 17.6137 1.56014 19.2383C2.58173 12.315 8.56308 6.98368 15.7656 6.98368C16.1539 6.98368 16.4687 6.66887 16.4687 6.28056V3.74312C16.4687 3.5958 16.4832 3.48822 16.4999 3.415C16.5636 3.45498 16.6499 3.5208 16.7541 3.625L22.1869 9.05781C22.4493 9.32017 22.5938 9.67117 22.5938 10.0462C22.5938 10.4212 22.4493 10.7722 22.1869 11.0346Z" fill="#141318"/>
</g>
<defs>
<clipPath id="clip0_317_3389">
<rect width="24" height="24" fill="white"/>
</clipPath>
</defs>
</svg>
