<?xml version="1.0" encoding="utf-8"?>
<svg width="24" height="24" viewBox="0 0 24 24" fill="none" xmlns="http://www.w3.org/2000/svg">
  <path d="M 17.609 22.269 C 17.325 22.269 17.044 22.199 16.793 22.066 L 12.118 19.609 C 12.082 19.59 12.041 19.58 12 19.58 C 11.959 19.58 11.918 19.59 11.882 19.609 L 7.208 22.066 C 6.919 22.219 6.592 22.287 6.266 22.263 C 5.939 22.24 5.626 22.125 5.361 21.933 C 5.096 21.741 4.891 21.478 4.767 21.175 C 4.644 20.872 4.608 20.54 4.663 20.217 L 5.556 15.013 C 5.563 14.972 5.56 14.931 5.546 14.891 C 5.533 14.852 5.511 14.817 5.481 14.788 L 1.702 11.1 C 1.468 10.872 1.302 10.582 1.224 10.264 C 1.145 9.946 1.157 9.612 1.259 9.301 C 1.36 8.99 1.547 8.713 1.798 8.502 C 2.049 8.291 2.353 8.155 2.677 8.109 L 7.9 7.35 C 7.94 7.344 7.979 7.329 8.012 7.305 C 8.045 7.28 8.072 7.248 8.09 7.212 L 10.425 2.475 C 10.57 2.182 10.794 1.935 11.071 1.762 C 11.349 1.589 11.67 1.497 11.997 1.497 C 12.325 1.497 12.645 1.589 12.923 1.762 C 13.201 1.935 13.425 2.182 13.57 2.475 L 15.906 7.21 C 15.924 7.247 15.951 7.279 15.984 7.303 C 16.017 7.327 16.056 7.343 16.096 7.349 L 21.323 8.108 C 21.647 8.155 21.952 8.291 22.202 8.502 C 22.453 8.713 22.639 8.989 22.741 9.301 C 22.842 9.612 22.855 9.945 22.776 10.263 C 22.698 10.581 22.533 10.871 22.298 11.1 L 18.516 14.785 C 18.486 14.814 18.464 14.849 18.451 14.888 C 18.438 14.928 18.434 14.969 18.441 15.01 L 19.334 20.214 C 19.376 20.466 19.364 20.724 19.297 20.97 C 19.23 21.216 19.111 21.445 18.947 21.64 C 18.782 21.835 18.578 21.992 18.347 22.1 C 18.115 22.208 17.864 22.265 17.609 22.266 L 17.609 22.269 Z" fill="#CBF147"/>
</svg>