<svg width="22" height="23" viewBox="0 0 22 23" fill="none" xmlns="http://www.w3.org/2000/svg">
<path fill-rule="evenodd" clip-rule="evenodd" d="M10.7388 1C16.1088 1 20.4768 5.368 20.4768 10.738C20.4768 13.2715 19.5045 15.5823 17.9135 17.3165L21.0442 20.4407C21.3372 20.7337 21.3382 21.2077 21.0452 21.5007C20.8992 21.6487 20.7062 21.7217 20.5142 21.7217C20.3232 21.7217 20.1312 21.6487 19.9842 21.5027L16.8157 18.343C15.1489 19.6778 13.0355 20.477 10.7388 20.477C5.36882 20.477 0.99982 16.108 0.99982 10.738C0.99982 5.368 5.36882 1 10.7388 1ZM10.7388 2.5C6.19582 2.5 2.49982 6.195 2.49982 10.738C2.49982 15.281 6.19582 18.977 10.7388 18.977C15.2808 18.977 18.9768 15.281 18.9768 10.738C18.9768 6.195 15.2808 2.5 10.7388 2.5Z" fill="black" stroke="black"/>
</svg>
