<svg width="20" height="20" viewBox="0 0 20 20" fill="none" xmlns="http://www.w3.org/2000/svg">
<path d="M14.1666 13.3333C14.1666 13.7931 13.7927 14.1667 13.3333 14.1667H6.66663C6.20724 14.1667 5.83329 13.7931 5.83329 13.3333C5.83329 12.8727 5.46017 12.5 4.99996 12.5C4.53975 12.5 4.16663 12.8727 4.16663 13.3333C4.16663 14.7119 5.28805 15.8333 6.66663 15.8333H13.3333C14.7119 15.8333 15.8333 14.7119 15.8333 13.3333C15.8333 12.8727 15.4602 12.5 15 12.5C14.5398 12.5 14.1666 12.8727 14.1666 13.3333Z" fill="#CBF147"/>
<path d="M13.3333 4.16669H6.66663C5.28805 4.16669 4.16663 5.28811 4.16663 6.66669C4.16663 7.1273 4.53975 7.50002 4.99996 7.50002C5.46017 7.50002 5.83329 7.1273 5.83329 6.66669C5.83329 6.20689 6.20724 5.83335 6.66663 5.83335H13.3333C13.7927 5.83335 14.1666 6.20689 14.1666 6.66669C14.1666 7.1273 14.5398 7.50002 15 7.50002C15.4602 7.50002 15.8333 7.1273 15.8333 6.66669C15.8333 5.28811 14.7119 4.16669 13.3333 4.16669Z" fill="#CBF147"/>
<path d="M1.66671 4.99998C2.12691 4.99998 2.50004 4.62726 2.50004 4.16665V3.33331C2.50004 2.87351 2.87398 2.49998 3.33337 2.49998H4.16671C4.62691 2.49998 5.00004 2.12726 5.00004 1.66665C5.00004 1.20603 4.62691 0.833313 4.16671 0.833313H3.33337C1.95479 0.833313 0.833374 1.95473 0.833374 3.33331V4.16665C0.833374 4.62726 1.2065 4.99998 1.66671 4.99998Z" fill="#CBF147"/>
<path d="M16.6667 0.833313H15.8333C15.3731 0.833313 15 1.20603 15 1.66665C15 2.12726 15.3731 2.49998 15.8333 2.49998H16.6667C17.1261 2.49998 17.5 2.87351 17.5 3.33331V4.16665C17.5 4.62726 17.8731 4.99998 18.3333 4.99998C18.7935 4.99998 19.1667 4.62726 19.1667 4.16665V3.33331C19.1667 1.95473 18.0452 0.833313 16.6667 0.833313Z" fill="#CBF147"/>
<path d="M3.33337 19.1667H4.16671C4.62691 19.1667 5.00004 18.7939 5.00004 18.3333C5.00004 17.8727 4.62691 17.5 4.16671 17.5H3.33337C2.87398 17.5 2.50004 17.1265 2.50004 16.6667V15.8333C2.50004 15.3727 2.12691 15 1.66671 15C1.2065 15 0.833374 15.3727 0.833374 15.8333V16.6667C0.833374 18.0452 1.95479 19.1667 3.33337 19.1667Z" fill="#CBF147"/>
<path d="M18.3333 15C17.8731 15 17.5 15.3727 17.5 15.8333V16.6667C17.5 17.1265 17.1261 17.5 16.6667 17.5H15.8333C15.3731 17.5 15 17.8727 15 18.3333C15 18.7939 15.3731 19.1667 15.8333 19.1667H16.6667C18.0452 19.1667 19.1667 18.0452 19.1667 16.6667V15.8333C19.1667 15.3727 18.7935 15 18.3333 15Z" fill="#CBF147"/>
<path d="M17.5 10C17.5 9.53941 17.1269 9.16669 16.6667 9.16669H3.33333C2.87313 9.16669 2.5 9.53941 2.5 10C2.5 10.4606 2.87313 10.8334 3.33333 10.8334H16.6667C17.1269 10.8334 17.5 10.4606 17.5 10Z" fill="#CBF147"/>
</svg>
