<svg width="24" height="24" viewBox="0 0 24 24" fill="none" xmlns="http://www.w3.org/2000/svg">
<g clip-path="url(#clip0_2_1443)">
<path d="M12.0001 23.9883C1.34831 23.9776 -4.00949 11.0417 3.51487 3.503C7.98153 -1.15172 16.0187 -1.15247 20.4853 3.50319C28.0096 11.0425 22.6512 23.9782 12.0001 23.9883ZM12.0001 1.86332C6.41713 1.86332 1.87509 6.40536 1.87509 11.9883C2.43126 25.4204 21.5709 25.4165 22.1251 11.9882C22.1251 6.4054 17.583 1.86332 12.0001 1.86332ZM16.3661 15.0285L13.4042 12.0666C13.4302 11.6291 13.2437 11.2111 12.9371 10.9398C12.9374 10.93 12.9376 10.9201 12.9376 10.9102V5.42586C12.8881 4.18199 11.1117 4.18293 11.0626 5.42586V10.9102C11.0626 10.9201 11.0628 10.93 11.063 10.9398C10.0827 11.8173 10.7477 13.461 12.0783 13.3924L15.0402 16.3544C15.4063 16.7205 16 16.7205 16.3661 16.3544C16.7322 15.9882 16.7322 15.3947 16.3661 15.0285Z" fill="#1D2B2C"/>
</g>
<defs>
<clipPath id="clip0_2_1443">
<rect width="24" height="24" fill="white"/>
</clipPath>
</defs>
</svg>
