<svg width="40" height="40" viewBox="0 0 40 40" fill="none" xmlns="http://www.w3.org/2000/svg">
<path d="M2.60033 15.882L9.43667 8.36932C10.7894 7.0166 12.993 7.01481 14.3585 8.38023C14.7912 8.81293 15.0857 9.33112 15.2384 9.8839C16.5984 8.84208 18.5602 8.94572 19.813 10.1985C20.2439 10.6312 20.5385 11.1494 20.6949 11.7003C22.0548 10.6621 24.0167 10.7639 25.2676 12.0166C25.6912 12.4403 25.9821 12.9457 26.1403 13.4839L29.3621 10.2621C30.7149 8.90932 32.9185 8.90753 34.2839 10.273C35.6384 11.6257 35.6384 13.8293 34.2839 15.1838L21.9058 27.562L29.2476 28.7147C31.2312 28.9983 32.7276 30.722 32.7276 32.7275C32.7276 34.2311 31.504 35.4547 30.0003 35.4547H12.8567C10.1857 35.4547 7.67485 34.4147 5.78579 32.5256L2.92582 29.6657C1.03854 27.7802 0.000389099 25.2711 0.000389099 22.6038C0.000389099 20.1129 0.923996 17.7257 2.60033 15.882ZM4.2113 28.3802L7.07127 31.2402C8.6167 32.7856 10.6713 33.6365 12.8568 33.6365H30.0004C30.5022 33.6365 30.9095 33.2292 30.9095 32.7274C30.9095 31.6219 30.0841 30.671 28.9768 30.5128L19.8586 29.0801C19.5204 29.0273 19.2422 28.7892 19.1349 28.4637C19.0295 28.1401 19.1149 27.7819 19.3568 27.5401L32.9985 13.8984C33.6439 13.2529 33.6439 12.202 32.9894 11.5457C32.6658 11.2238 32.2421 11.062 31.8185 11.062C31.3948 11.062 30.9712 11.2238 30.6475 11.5475L21.5511 20.6438C21.1966 20.9984 20.6202 20.9984 20.2656 20.6438C20.0893 20.4656 20.0002 20.233 20.0002 20.0002C20.0002 19.7675 20.0892 19.5348 20.2674 19.3566L23.982 15.642C24.6274 14.9966 24.6274 13.9475 23.9711 13.2911C23.3274 12.6475 22.2747 12.6475 21.6311 13.2911L17.9147 17.0075C17.5602 17.362 16.9838 17.362 16.6293 17.0075C16.4529 16.8292 16.3638 16.5966 16.3638 16.3638C16.3638 16.1311 16.4528 15.8984 16.631 15.7202L18.5274 13.8238C19.1729 13.1784 19.1729 12.1292 18.5165 11.4729C17.8729 10.8292 16.8202 10.8292 16.1765 11.4729L14.2711 13.3783C14.2674 13.3801 14.2693 13.3801 14.2693 13.3801L14.2675 13.3819C14.2657 13.3837 14.2657 13.3837 14.2657 13.3837C14.2639 13.3855 14.2639 13.3855 14.2639 13.3855H14.2622C14.2604 13.3855 14.2604 13.3873 14.2604 13.3873C13.904 13.7254 13.3403 13.7182 12.9931 13.3691C12.6386 13.0146 12.6386 12.4382 12.9931 12.0836L13.0713 12.0055C13.384 11.6928 13.5567 11.2763 13.5567 10.8345C13.5567 10.3927 13.3858 9.97816 13.0622 9.65455C12.4149 9.01092 11.3676 9.01271 10.7512 9.62362L3.94394 17.1055C2.57493 18.6129 1.81854 20.5656 1.81854 22.6038C1.81854 24.7856 2.66766 26.8365 4.2113 28.3802Z" fill="white"/>
<path d="M24.3709 9.36959C25.6945 6.4405 28.6181 4.5459 31.8182 4.5459C36.3291 4.5459 40 8.21681 40 12.7277C40 15.9277 38.1055 18.8514 35.1764 20.1768C35.0546 20.2314 34.9273 20.2569 34.8018 20.2569C34.4564 20.2569 34.1254 20.0568 33.9727 19.7223C33.7672 19.2641 33.9709 18.7259 34.4272 18.5187C36.7072 17.4877 38.1818 15.215 38.1818 12.7277C38.1818 9.21865 35.3272 6.36405 31.8181 6.36405C29.3308 6.36405 27.0581 7.83857 26.0271 10.1186C25.8217 10.5768 25.2817 10.7822 24.8254 10.5731C24.3673 10.3659 24.1637 9.82777 24.3709 9.36959Z" fill="white"/>
</svg>
