<svg width="24" height="24" viewBox="0 0 24 24" fill="none" xmlns="http://www.w3.org/2000/svg">
<path d="M23.8939 5.13449C23.752 4.90368 23.4924 4.77285 23.2221 4.79628L22.0254 4.90053L23.1693 2.59461C23.3055 2.31996 23.2517 1.98907 23.0355 1.77171C22.8192 1.55435 22.4887 1.49895 22.2134 1.63376L19.1859 3.11647C17.3154 2.129 14.9785 2.42211 13.3705 3.88691C12.0285 5.10941 11.3231 6.98943 11.4546 8.86425C7.947 8.51268 4.97793 6.50498 3.22227 3.26094C3.10579 3.04573 2.8874 2.90497 2.64332 2.88767C2.39877 2.87065 2.16318 2.97903 2.01759 3.17576C0.928679 4.6468 0.852273 6.66374 1.70591 8.32307C1.4706 8.26364 1.2202 8.1832 0.942507 8.09043C0.704617 8.01089 0.442351 8.06184 0.251429 8.22459C0.0605067 8.38734 -0.0312746 8.63817 0.00955351 8.88572C0.347335 10.9336 1.54152 12.5075 3.42796 13.4391C3.18234 13.5246 2.9317 13.5941 2.67684 13.6472C2.42362 13.7 2.21859 13.8852 2.14054 14.1318C2.06249 14.3784 2.12352 14.6479 2.30024 14.8368C3.65873 16.2889 5.62111 17.0036 7.01498 17.3464C5.43014 18.5876 3.71934 18.7953 1.23337 18.7099C0.945601 18.7012 0.680476 18.8633 0.559491 19.1241C0.438554 19.385 0.485476 19.693 0.678742 19.9061C1.71505 21.0484 5.49065 22.3364 9.45965 22.433C9.61664 22.4368 9.77676 22.4388 9.94026 22.4388C12.727 22.4388 16.4101 21.8414 19.0537 19.1978C21.0546 17.1969 22.3062 14.8934 22.7735 12.3515C23.1509 10.2985 22.9124 8.65453 22.7978 7.8644C22.7893 7.80632 22.7803 7.74468 22.773 7.69078L23.8924 5.88655C24.0352 5.6564 24.0358 5.3653 23.8939 5.13449ZM21.3811 8.0699C21.5935 9.53353 22.2397 13.9874 18.0415 18.1856C15.6012 20.6259 12.0468 21.0641 9.49444 21.002C7.31658 20.9491 5.36854 20.5325 3.95667 20.0575C4.5299 19.9872 5.04074 19.8787 5.52295 19.7289C6.85228 19.3157 7.97531 18.5722 9.05709 17.3891C9.23742 17.1919 9.29283 16.9107 9.2009 16.6599C9.10898 16.409 8.88492 16.2302 8.61989 16.1963C7.93743 16.1088 5.88684 15.7636 4.27209 14.6498C4.73742 14.4595 5.1862 14.2213 5.61473 13.937C5.84981 13.781 5.9714 13.5016 5.92509 13.2233C5.87882 12.945 5.67346 12.7198 5.40056 12.6482C4.07892 12.3017 2.48385 11.5264 1.74834 9.79566C2.21802 9.87797 2.72873 9.89789 3.27342 9.77578C3.52588 9.71925 3.7282 9.53081 3.80245 9.28294C3.87674 9.03506 3.81149 8.76637 3.63178 8.58028C2.71659 7.63237 2.37435 6.26634 2.66798 5.09741C3.62957 6.50277 4.84781 7.68553 6.24356 8.55998C8.02908 9.67866 10.113 10.2969 12.2703 10.3477C12.4898 10.3523 12.7004 10.2565 12.8401 10.0864C12.9798 9.91641 13.0335 9.69155 12.9858 9.47672C12.6146 7.8082 13.144 6.02947 14.3344 4.94511C15.5691 3.82034 17.3939 3.64972 18.7719 4.53046C18.9823 4.66494 19.2478 4.67999 19.4721 4.57011L20.9506 3.84598L20.1767 5.40604C20.0618 5.63783 20.0808 5.91365 20.2267 6.12735C20.3724 6.34105 20.6219 6.45969 20.88 6.43705L21.9226 6.34626L21.4423 7.1204C21.2811 7.38023 21.3145 7.61076 21.3811 8.0699Z" fill="white"/>
</svg>
