<svg width="40" height="40" viewBox="0 0 40 40" fill="none" xmlns="http://www.w3.org/2000/svg">
<path d="M37.3997 15.882L30.5633 8.36932C29.2106 7.0166 27.007 7.01481 25.6415 8.38023C25.2088 8.81293 24.9143 9.33112 24.7616 9.8839C23.4016 8.84208 21.4398 8.94572 20.187 10.1985C19.7561 10.6312 19.4615 11.1494 19.3051 11.7003C17.9452 10.6621 15.9833 10.7639 14.7324 12.0166C14.3088 12.4403 14.0179 12.9457 13.8597 13.4839L10.6379 10.2621C9.28515 8.90932 7.08151 8.90753 5.71608 10.273C4.36157 11.6257 4.36157 13.8293 5.71608 15.1838L18.0942 27.562L10.7524 28.7147C8.76875 28.9983 7.27242 30.722 7.27242 32.7275C7.27242 34.2311 8.49603 35.4547 9.99969 35.4547H27.1433C29.8143 35.4547 32.3251 34.4147 34.2142 32.5256L37.0742 29.6657C38.9615 27.7802 39.9996 25.2711 39.9996 22.6038C39.9996 20.1129 39.076 17.7257 37.3997 15.882ZM35.7887 28.3802L32.9287 31.2402C31.3833 32.7856 29.3287 33.6365 27.1432 33.6365H9.99961C9.49779 33.6365 9.09049 33.2292 9.09049 32.7274C9.09049 31.6219 9.91591 30.671 11.0232 30.5128L20.1414 29.0801C20.4796 29.0273 20.7578 28.7892 20.8651 28.4637C20.9705 28.1401 20.8851 27.7819 20.6432 27.5401L7.00148 13.8984C6.35606 13.2529 6.35606 12.202 7.0106 11.5457C7.33421 11.2238 7.75787 11.062 8.18154 11.062C8.6052 11.062 9.02878 11.2238 9.35248 11.5475L18.4489 20.6438C18.8034 20.9984 19.3798 20.9984 19.7344 20.6438C19.9107 20.4656 19.9998 20.233 19.9998 20.0002C19.9998 19.7675 19.9108 19.5348 19.7326 19.3566L16.018 15.642C15.3726 14.9966 15.3726 13.9475 16.0289 13.2911C16.6726 12.6475 17.7253 12.6475 18.3689 13.2911L22.0853 17.0075C22.4398 17.362 23.0162 17.362 23.3707 17.0075C23.5471 16.8292 23.6362 16.5966 23.6362 16.3638C23.6362 16.1311 23.5472 15.8984 23.369 15.7202L21.4726 13.8238C20.8271 13.1784 20.8271 12.1292 21.4835 11.4729C22.1271 10.8292 23.1798 10.8292 23.8235 11.4729L25.7289 13.3783C25.7326 13.3801 25.7307 13.3801 25.7307 13.3801L25.7325 13.3819C25.7343 13.3837 25.7343 13.3837 25.7343 13.3837C25.7361 13.3855 25.7361 13.3855 25.7361 13.3855H25.7378C25.7396 13.3855 25.7396 13.3873 25.7396 13.3873C26.096 13.7254 26.6597 13.7182 27.0069 13.3691C27.3614 13.0146 27.3614 12.4382 27.0069 12.0836L26.9287 12.0055C26.616 11.6928 26.4433 11.2763 26.4433 10.8345C26.4433 10.3927 26.6142 9.97816 26.9378 9.65455C27.5851 9.01092 28.6324 9.01271 29.2488 9.62362L36.0561 17.1055C37.4251 18.6129 38.1815 20.5656 38.1815 22.6038C38.1815 24.7856 37.3323 26.8365 35.7887 28.3802Z" fill="white"/>
<path d="M15.6291 9.36959C14.3055 6.4405 11.3819 4.5459 8.18182 4.5459C3.67091 4.5459 0 8.21681 0 12.7277C0 15.9277 1.89452 18.8514 4.82361 20.1768C4.9454 20.2314 5.07273 20.2569 5.19819 20.2569C5.54361 20.2569 5.87455 20.0568 6.02728 19.7223C6.23276 19.2641 6.02907 18.7259 5.57276 18.5187C3.29276 17.4877 1.81824 15.215 1.81824 12.7277C1.81824 9.21865 4.67276 6.36405 8.18191 6.36405C10.6692 6.36405 12.9419 7.83857 13.9729 10.1186C14.1783 10.5768 14.7183 10.7822 15.1746 10.5731C15.6327 10.3659 15.8363 9.82777 15.6291 9.36959Z" fill="white"/>
</svg>
