<svg width="16" height="16" viewBox="0 0 16 16" fill="none" xmlns="http://www.w3.org/2000/svg">
<path d="M8 16C12.4183 16 16 12.4183 16 8C16 3.58172 12.4183 0 8 0C3.58172 0 0 3.58172 0 8C0 12.4183 3.58172 16 8 16Z" fill="#4CD964"/>
<path d="M12.2002 4.69834L8.1358 3.11921C8.04849 3.08528 7.95155 3.08525 7.86421 3.11921L3.79973 4.69831C3.65555 4.75434 3.56055 4.89315 3.56055 5.04787V8.23444C3.56055 10.8118 5.39777 13.0366 7.92905 13.5245C7.95249 13.529 7.97627 13.5313 8.00002 13.5313C8.02377 13.5313 8.04755 13.529 8.07099 13.5245C10.6022 13.0366 12.4395 10.8118 12.4395 8.23444V5.04787C12.4394 4.89319 12.3444 4.75437 12.2002 4.69834ZM11.6894 8.23444C11.6894 10.4289 10.1423 12.3264 7.99996 12.7738C5.85761 12.3264 4.31048 10.4289 4.31048 8.23444V5.3045L7.99996 3.87109L11.6894 5.3045V8.23444ZM7.87155 8.51332L9.47143 6.91344C9.61786 6.767 9.85533 6.767 10.0018 6.91344C10.1482 7.05991 10.1482 7.29731 10.0018 7.44378L8.13671 9.30885C8.06349 9.38207 7.96752 9.41869 7.87155 9.41869C7.77558 9.41869 7.67958 9.38207 7.60639 9.30885L6.56842 8.27088C6.42196 8.12441 6.42196 7.887 6.56842 7.74053C6.71486 7.5941 6.95233 7.5941 7.09877 7.74053L7.87155 8.51332Z" fill="white"/>
</svg>
